<svg width="474" height="180" viewBox="0 0 474 180" fill="none" xmlns="http://www.w3.org/2000/svg">
<path d="M0.728 69L18.392 1.8H40.472L58.136 69H45.08L41.432 54.216H17.432L13.784 69H0.728ZM20.408 42.504H38.456L30.296 9.768H28.568L20.408 42.504ZM88.9318 70.344C84.3238 70.344 80.1318 69.384 76.3558 67.464C72.6438 65.544 69.6998 62.76 67.5238 59.112C65.3478 55.464 64.2598 51.048 64.2598 45.864V44.52C64.2598 39.336 65.3478 34.92 67.5238 31.272C69.6998 27.624 72.6438 24.84 76.3558 22.92C80.1318 21 84.3238 20.04 88.9318 20.04C93.4758 20.04 97.3798 20.84 100.644 22.44C103.908 24.04 106.532 26.248 108.516 29.064C110.564 31.816 111.908 34.952 112.548 38.472L100.836 40.968C100.58 39.048 100.004 37.32 99.1078 35.784C98.2118 34.248 96.9318 33.032 95.2678 32.136C93.6678 31.24 91.6518 30.792 89.2198 30.792C86.7878 30.792 84.5798 31.336 82.5958 32.424C80.6758 33.448 79.1398 35.016 77.9878 37.128C76.8998 39.176 76.3558 41.704 76.3558 44.712V45.672C76.3558 48.68 76.8998 51.24 77.9878 53.352C79.1398 55.4 80.6758 56.968 82.5958 58.056C84.5798 59.08 86.7878 59.592 89.2198 59.592C92.8678 59.592 95.6198 58.664 97.4758 56.808C99.3958 54.888 100.612 52.392 101.124 49.32L112.836 52.104C112.004 55.496 110.564 58.6 108.516 61.416C106.532 64.168 103.908 66.344 100.644 67.944C97.3798 69.544 93.4758 70.344 88.9318 70.344ZM139.46 69C136.324 69 133.764 68.04 131.78 66.12C129.86 64.136 128.9 61.512 128.9 58.248V31.368H116.996V21.384H128.9V6.6H140.996V21.384H154.052V31.368H140.996V56.136C140.996 58.056 141.892 59.016 143.684 59.016H152.9V69H139.46ZM183.145 69.768C179.433 69.768 176.169 68.936 173.353 67.272C170.601 65.544 168.457 63.176 166.921 60.168C165.385 57.16 164.617 53.704 164.617 49.8V21.384H176.713V48.84C176.713 52.424 177.577 55.112 179.305 56.904C181.097 58.696 183.625 59.592 186.889 59.592C190.601 59.592 193.481 58.376 195.529 55.944C197.577 53.448 198.601 49.992 198.601 45.576V21.384H210.697V69H198.793V62.76H197.065C196.297 64.36 194.857 65.928 192.745 67.464C190.633 69 187.433 69.768 183.145 69.768ZM238.942 70.344C235.55 70.344 232.51 69.768 229.822 68.616C227.134 67.4 224.99 65.672 223.39 63.432C221.854 61.128 221.086 58.344 221.086 55.08C221.086 51.816 221.854 49.096 223.39 46.92C224.99 44.68 227.166 43.016 229.918 41.928C232.734 40.776 235.934 40.2 239.518 40.2H252.574V37.512C252.574 35.272 251.87 33.448 250.462 32.04C249.054 30.568 246.814 29.832 243.742 29.832C240.734 29.832 238.494 30.536 237.022 31.944C235.55 33.288 234.59 35.048 234.142 37.224L223.006 33.48C223.774 31.048 224.99 28.84 226.654 26.856C228.382 24.808 230.654 23.176 233.47 21.96C236.35 20.68 239.838 20.04 243.934 20.04C250.206 20.04 255.166 21.608 258.814 24.744C262.462 27.88 264.286 32.424 264.286 38.376V56.136C264.286 58.056 265.182 59.016 266.974 59.016H270.814V69H262.75C260.382 69 258.43 68.424 256.894 67.272C255.358 66.12 254.59 64.584 254.59 62.664V62.568H252.766C252.51 63.336 251.934 64.36 251.038 65.64C250.142 66.856 248.734 67.944 246.814 68.904C244.894 69.864 242.27 70.344 238.942 70.344ZM241.054 60.552C244.446 60.552 247.198 59.624 249.31 57.768C251.486 55.848 252.574 53.32 252.574 50.184V49.224H240.382C238.142 49.224 236.382 49.704 235.102 50.664C233.822 51.624 233.182 52.968 233.182 54.696C233.182 56.424 233.854 57.832 235.198 58.92C236.542 60.008 238.494 60.552 241.054 60.552ZM279.658 69V1.8H291.754V69H279.658ZM330.886 70.344C322.438 70.344 315.718 68.04 310.726 63.432C305.734 58.76 303.238 52.104 303.238 43.464V27.336C303.238 18.696 305.734 12.072 310.726 7.464C315.718 2.792 322.438 0.455996 330.886 0.455996C339.334 0.455996 346.054 2.792 351.046 7.464C356.038 12.072 358.534 18.696 358.534 27.336V43.464C358.534 52.104 356.038 58.76 351.046 63.432C346.054 68.04 339.334 70.344 330.886 70.344ZM330.886 59.016C335.622 59.016 339.302 57.64 341.926 54.888C344.55 52.136 345.862 48.456 345.862 43.848V26.952C345.862 22.344 344.55 18.664 341.926 15.912C339.302 13.16 335.622 11.784 330.886 11.784C326.214 11.784 322.534 13.16 319.846 15.912C317.222 18.664 315.91 22.344 315.91 26.952V43.848C315.91 48.456 317.222 52.136 319.846 54.888C322.534 57.64 326.214 59.016 330.886 59.016ZM370.033 69V21.384H381.937V27.624H383.665C384.433 25.96 385.873 24.392 387.984 22.92C390.097 21.384 393.297 20.616 397.585 20.616C401.297 20.616 404.529 21.48 407.281 23.208C410.097 24.872 412.273 27.208 413.809 30.216C415.345 33.16 416.113 36.616 416.113 40.584V69H404.017V41.544C404.017 37.96 403.121 35.272 401.329 33.48C399.601 31.688 397.105 30.792 393.841 30.792C390.129 30.792 387.249 32.04 385.201 34.536C383.153 36.968 382.129 40.392 382.129 44.808V69H370.033ZM450.885 70.344C446.149 70.344 441.957 69.352 438.309 67.368C434.725 65.32 431.909 62.472 429.861 58.824C427.877 55.112 426.885 50.76 426.885 45.768V44.616C426.885 39.624 427.877 35.304 429.861 31.656C431.845 27.944 434.629 25.096 438.213 23.112C441.797 21.064 445.957 20.04 450.693 20.04C455.365 20.04 459.429 21.096 462.885 23.208C466.341 25.256 469.029 28.136 470.949 31.848C472.869 35.496 473.829 39.752 473.829 44.616V48.744H439.173C439.301 52.008 440.517 54.664 442.821 56.712C445.125 58.76 447.941 59.784 451.269 59.784C454.661 59.784 457.157 59.048 458.757 57.576C460.357 56.104 461.573 54.472 462.405 52.68L472.293 57.864C471.397 59.528 470.085 61.352 468.357 63.336C466.693 65.256 464.453 66.92 461.637 68.328C458.821 69.672 455.237 70.344 450.885 70.344ZM439.269 39.72H461.541C461.285 36.968 460.165 34.76 458.181 33.096C456.261 31.432 453.733 30.6 450.597 30.6C447.333 30.6 444.741 31.432 442.821 33.096C440.901 34.76 439.717 36.968 439.269 39.72ZM5.336 178V110.8H32.984C37.208 110.8 40.92 111.664 44.12 113.392C47.384 115.056 49.912 117.424 51.704 120.496C53.56 123.568 54.488 127.216 54.488 131.44V132.784C54.488 136.944 53.528 140.592 51.608 143.728C49.752 146.8 47.192 149.2 43.928 150.928C40.728 152.592 37.08 153.424 32.984 153.424H18.008V178H5.336ZM18.008 141.904H31.736C34.744 141.904 37.176 141.072 39.032 139.408C40.888 137.744 41.816 135.472 41.816 132.592V131.632C41.816 128.752 40.888 126.48 39.032 124.816C37.176 123.152 34.744 122.32 31.736 122.32H18.008V141.904ZM63.6575 178V130.384H75.5615V135.76H77.2895C77.9935 133.84 79.1455 132.432 80.7455 131.536C82.4095 130.64 84.3295 130.192 86.5055 130.192H92.2655V140.944H86.3135C83.2415 140.944 80.7135 141.776 78.7295 143.44C76.7455 145.04 75.7535 147.536 75.7535 150.928V178H63.6575ZM122.689 179.344C117.953 179.344 113.697 178.384 109.921 176.464C106.145 174.544 103.169 171.76 100.993 168.112C98.8165 164.464 97.7285 160.08 97.7285 154.96V153.424C97.7285 148.304 98.8165 143.92 100.993 140.272C103.169 136.624 106.145 133.84 109.921 131.92C113.697 130 117.953 129.04 122.689 129.04C127.425 129.04 131.681 130 135.457 131.92C139.233 133.84 142.209 136.624 144.385 140.272C146.561 143.92 147.649 148.304 147.649 153.424V154.96C147.649 160.08 146.561 164.464 144.385 168.112C142.209 171.76 139.233 174.544 135.457 176.464C131.681 178.384 127.425 179.344 122.689 179.344ZM122.689 168.592C126.401 168.592 129.473 167.408 131.905 165.04C134.337 162.608 135.553 159.152 135.553 154.672V153.712C135.553 149.232 134.337 145.808 131.905 143.44C129.537 141.008 126.465 139.792 122.689 139.792C118.977 139.792 115.905 141.008 113.473 143.44C111.041 145.808 109.825 149.232 109.825 153.712V154.672C109.825 159.152 111.041 162.608 113.473 165.04C115.905 167.408 118.977 168.592 122.689 168.592ZM175.46 178C172.324 178 169.764 177.04 167.78 175.12C165.86 173.136 164.9 170.512 164.9 167.248V140.368H152.996V130.384H164.9V115.6H176.996V130.384H190.052V140.368H176.996V165.136C176.996 167.056 177.892 168.016 179.684 168.016H188.9V178H175.46ZM221.97 179.344C217.234 179.344 212.978 178.384 209.202 176.464C205.426 174.544 202.45 171.76 200.274 168.112C198.098 164.464 197.01 160.08 197.01 154.96V153.424C197.01 148.304 198.098 143.92 200.274 140.272C202.45 136.624 205.426 133.84 209.202 131.92C212.978 130 217.234 129.04 221.97 129.04C226.706 129.04 230.962 130 234.738 131.92C238.514 133.84 241.49 136.624 243.666 140.272C245.842 143.92 246.93 148.304 246.93 153.424V154.96C246.93 160.08 245.842 164.464 243.666 168.112C241.49 171.76 238.514 174.544 234.738 176.464C230.962 178.384 226.706 179.344 221.97 179.344ZM221.97 168.592C225.682 168.592 228.754 167.408 231.186 165.04C233.618 162.608 234.834 159.152 234.834 154.672V153.712C234.834 149.232 233.618 145.808 231.186 143.44C228.818 141.008 225.746 139.792 221.97 139.792C218.258 139.792 215.186 141.008 212.754 143.44C210.322 145.808 209.106 149.232 209.106 153.712V154.672C209.106 159.152 210.322 162.608 212.754 165.04C215.186 167.408 218.258 168.592 221.97 168.592ZM280.463 179.344C275.855 179.344 271.663 178.384 267.887 176.464C264.175 174.544 261.231 171.76 259.055 168.112C256.879 164.464 255.791 160.048 255.791 154.864V153.52C255.791 148.336 256.879 143.92 259.055 140.272C261.231 136.624 264.175 133.84 267.887 131.92C271.663 130 275.855 129.04 280.463 129.04C285.007 129.04 288.911 129.84 292.175 131.44C295.439 133.04 298.063 135.248 300.047 138.064C302.095 140.816 303.439 143.952 304.079 147.472L292.367 149.968C292.111 148.048 291.535 146.32 290.639 144.784C289.743 143.248 288.463 142.032 286.799 141.136C285.199 140.24 283.183 139.792 280.751 139.792C278.319 139.792 276.111 140.336 274.127 141.424C272.207 142.448 270.671 144.016 269.519 146.128C268.431 148.176 267.887 150.704 267.887 153.712V154.672C267.887 157.68 268.431 160.24 269.519 162.352C270.671 164.4 272.207 165.968 274.127 167.056C276.111 168.08 278.319 168.592 280.751 168.592C284.399 168.592 287.151 167.664 289.007 165.808C290.927 163.888 292.143 161.392 292.655 158.32L304.367 161.104C303.535 164.496 302.095 167.6 300.047 170.416C298.063 173.168 295.439 175.344 292.175 176.944C288.911 178.544 285.007 179.344 280.463 179.344ZM337.001 179.344C332.265 179.344 328.009 178.384 324.233 176.464C320.457 174.544 317.481 171.76 315.305 168.112C313.129 164.464 312.041 160.08 312.041 154.96V153.424C312.041 148.304 313.129 143.92 315.305 140.272C317.481 136.624 320.457 133.84 324.233 131.92C328.009 130 332.265 129.04 337.001 129.04C341.737 129.04 345.993 130 349.769 131.92C353.545 133.84 356.521 136.624 358.697 140.272C360.873 143.92 361.961 148.304 361.961 153.424V154.96C361.961 160.08 360.873 164.464 358.697 168.112C356.521 171.76 353.545 174.544 349.769 176.464C345.993 178.384 341.737 179.344 337.001 179.344ZM337.001 168.592C340.713 168.592 343.785 167.408 346.217 165.04C348.649 162.608 349.865 159.152 349.865 154.672V153.712C349.865 149.232 348.649 145.808 346.217 143.44C343.849 141.008 340.777 139.792 337.001 139.792C333.289 139.792 330.217 141.008 327.785 143.44C325.353 145.808 324.137 149.232 324.137 153.712V154.672C324.137 159.152 325.353 162.608 327.785 165.04C330.217 167.408 333.289 168.592 337.001 168.592ZM373.126 178V110.8H385.222V178H373.126Z" fill="#F6FBFB"/>
</svg>
