<svg width="499" height="179" viewBox="0 0 499 179" fill="none" xmlns="http://www.w3.org/2000/svg">
<path d="M2.88 69C2.368 69 1.888 68.808 1.44 68.424C1.056 67.976 0.864 67.496 0.864 66.984C0.864 66.664 0.896 66.376 0.96 66.12L23.52 4.488C23.712 3.784 24.096 3.176 24.672 2.664C25.312 2.088 26.176 1.8 27.264 1.8H41.472C42.56 1.8 43.392 2.088 43.968 2.664C44.608 3.176 45.024 3.784 45.216 4.488L67.68 66.12C67.808 66.376 67.872 66.664 67.872 66.984C67.872 67.496 67.648 67.976 67.2 68.424C66.816 68.808 66.336 69 65.76 69H53.952C52.992 69 52.256 68.776 51.744 68.328C51.296 67.816 51.008 67.368 50.88 66.984L47.136 57.192H21.504L17.856 66.984C17.728 67.368 17.44 67.816 16.992 68.328C16.544 68.776 15.776 69 14.688 69H2.88ZM25.44 43.368H43.296L34.272 18.024L25.44 43.368ZM96.6705 69.96C91.9345 69.96 87.7425 69.096 84.0945 67.368C80.4465 65.64 77.5345 63.144 75.3585 59.88C73.2465 56.552 72.0945 52.584 71.9025 47.976C71.8385 46.952 71.8065 45.672 71.8065 44.136C71.8065 42.536 71.8385 41.224 71.9025 40.2C72.0945 35.528 73.2465 31.56 75.3585 28.296C77.4705 24.968 80.3505 22.44 83.9985 20.712C87.7105 18.984 91.9345 18.12 96.6705 18.12C101.087 18.12 104.863 18.76 107.999 20.04C111.135 21.256 113.695 22.792 115.679 24.648C117.663 26.504 119.135 28.424 120.095 30.408C121.119 32.328 121.663 34.024 121.727 35.496C121.791 36.136 121.567 36.712 121.055 37.224C120.543 37.672 119.967 37.896 119.327 37.896H107.135C106.431 37.896 105.887 37.736 105.503 37.416C105.119 37.096 104.767 36.616 104.447 35.976C103.679 33.992 102.687 32.584 101.471 31.752C100.319 30.92 98.8145 30.504 96.9585 30.504C94.3985 30.504 92.4145 31.336 91.0065 33C89.6625 34.664 88.9265 37.224 88.7985 40.68C88.7345 43.24 88.7345 45.512 88.7985 47.496C88.9265 51.016 89.6625 53.576 91.0065 55.176C92.4145 56.776 94.3985 57.576 96.9585 57.576C98.9425 57.576 100.511 57.16 101.663 56.328C102.815 55.496 103.743 54.088 104.447 52.104C104.767 51.464 105.119 50.984 105.503 50.664C105.887 50.344 106.431 50.184 107.135 50.184H119.327C119.967 50.184 120.543 50.44 121.055 50.952C121.567 51.4 121.791 51.944 121.727 52.584C121.663 53.672 121.343 54.952 120.767 56.424C120.191 57.832 119.295 59.336 118.079 60.936C116.863 62.536 115.263 64.04 113.279 65.448C111.359 66.792 109.023 67.88 106.271 68.712C103.519 69.544 100.319 69.96 96.6705 69.96ZM155.888 69C151.792 69 148.24 68.36 145.232 67.08C142.288 65.736 140.016 63.688 138.416 60.936C136.816 58.12 136.016 54.504 136.016 50.088V31.656H128.528C127.824 31.656 127.216 31.432 126.704 30.984C126.256 30.536 126.032 29.96 126.032 29.256V21.48C126.032 20.776 126.256 20.2 126.704 19.752C127.216 19.304 127.824 19.08 128.528 19.08H136.016V3.23999C136.016 2.536 136.24 1.96 136.688 1.512C137.2 1.064 137.776 0.839996 138.416 0.839996H149.552C150.256 0.839996 150.832 1.064 151.28 1.512C151.728 1.96 151.952 2.536 151.952 3.23999V19.08H163.952C164.656 19.08 165.232 19.304 165.68 19.752C166.128 20.2 166.352 20.776 166.352 21.48V29.256C166.352 29.96 166.128 30.536 165.68 30.984C165.232 31.432 164.656 31.656 163.952 31.656H151.952V48.744C151.952 50.92 152.368 52.648 153.2 53.928C154.032 55.208 155.44 55.848 157.424 55.848H164.816C165.52 55.848 166.096 56.072 166.544 56.52C166.992 56.968 167.216 57.544 167.216 58.248V66.6C167.216 67.304 166.992 67.88 166.544 68.328C166.096 68.776 165.52 69 164.816 69H155.888ZM193.5 69.96C189.852 69.96 186.588 69.128 183.708 67.464C180.892 65.8 178.684 63.368 177.084 60.168C175.484 56.904 174.684 52.936 174.684 48.264V21.48C174.684 20.776 174.908 20.2 175.356 19.752C175.804 19.304 176.38 19.08 177.084 19.08H189.084C189.788 19.08 190.364 19.304 190.812 19.752C191.26 20.2 191.484 20.776 191.484 21.48V47.688C191.484 53.96 194.3 57.096 199.932 57.096C202.556 57.096 204.636 56.296 206.172 54.696C207.772 53.032 208.572 50.696 208.572 47.688V21.48C208.572 20.776 208.796 20.2 209.244 19.752C209.692 19.304 210.268 19.08 210.972 19.08H222.972C223.676 19.08 224.252 19.304 224.7 19.752C225.148 20.2 225.372 20.776 225.372 21.48V66.6C225.372 67.304 225.148 67.88 224.7 68.328C224.252 68.776 223.676 69 222.972 69H211.836C211.196 69 210.62 68.776 210.108 68.328C209.66 67.88 209.436 67.304 209.436 66.6V62.952C207.772 65.256 205.596 67.016 202.908 68.232C200.284 69.384 197.148 69.96 193.5 69.96ZM251.64 69.96C248.184 69.96 245.08 69.32 242.328 68.04C239.64 66.696 237.496 64.904 235.896 62.664C234.296 60.424 233.496 57.896 233.496 55.08C233.496 50.536 235.352 46.952 239.064 44.328C242.776 41.64 247.704 39.816 253.848 38.856L265.848 37.032V35.688C265.848 33.384 265.368 31.624 264.408 30.408C263.448 29.192 261.688 28.584 259.128 28.584C257.336 28.584 255.864 28.936 254.712 29.64C253.624 30.344 252.76 31.304 252.12 32.52C251.544 33.352 250.744 33.768 249.72 33.768H238.968C238.264 33.768 237.72 33.576 237.336 33.192C236.952 32.744 236.792 32.232 236.856 31.656C236.856 30.504 237.272 29.192 238.104 27.72C239 26.184 240.344 24.68 242.136 23.208C243.928 21.736 246.232 20.52 249.048 19.56C251.864 18.6 255.256 18.12 259.224 18.12C263.384 18.12 266.936 18.6 269.88 19.56C272.824 20.52 275.192 21.864 276.984 23.592C278.84 25.32 280.216 27.368 281.112 29.736C282.008 32.04 282.456 34.6 282.456 37.416V66.6C282.456 67.304 282.2 67.88 281.688 68.328C281.24 68.776 280.696 69 280.056 69H268.92C268.216 69 267.64 68.776 267.192 68.328C266.744 67.88 266.52 67.304 266.52 66.6V63.24C265.688 64.456 264.568 65.576 263.16 66.6C261.752 67.624 260.088 68.424 258.168 69C256.312 69.64 254.136 69.96 251.64 69.96ZM256.152 59.016C258.008 59.016 259.672 58.632 261.144 57.864C262.68 57.032 263.864 55.784 264.696 54.12C265.592 52.392 266.04 50.248 266.04 47.688V46.344L257.88 47.784C254.872 48.296 252.664 49.096 251.256 50.184C249.912 51.208 249.24 52.424 249.24 53.832C249.24 54.92 249.56 55.848 250.2 56.616C250.84 57.384 251.672 57.992 252.696 58.44C253.72 58.824 254.872 59.016 256.152 59.016ZM295.689 69C294.985 69 294.409 68.776 293.961 68.328C293.513 67.88 293.289 67.304 293.289 66.6V3.23999C293.289 2.536 293.513 1.96 293.961 1.512C294.409 1.064 294.985 0.839996 295.689 0.839996H307.017C307.721 0.839996 308.297 1.064 308.745 1.512C309.193 1.96 309.417 2.536 309.417 3.23999V66.6C309.417 67.304 309.193 67.88 308.745 68.328C308.297 68.776 307.721 69 307.017 69H295.689ZM349.27 69.96C343.382 69.96 338.262 69 333.91 67.08C329.558 65.16 326.166 62.28 323.734 58.44C321.302 54.536 319.958 49.672 319.702 43.848C319.638 41.096 319.606 38.344 319.606 35.592C319.606 32.84 319.638 30.056 319.702 27.24C319.958 21.48 321.302 16.648 323.734 12.744C326.23 8.776 329.654 5.8 334.006 3.816C338.358 1.832 343.446 0.839996 349.27 0.839996C355.03 0.839996 360.086 1.832 364.438 3.816C368.854 5.8 372.31 8.776 374.806 12.744C377.302 16.648 378.646 21.48 378.838 27.24C378.966 30.056 379.03 32.84 379.03 35.592C379.03 38.344 378.966 41.096 378.838 43.848C378.582 49.672 377.238 54.536 374.806 58.44C372.374 62.28 368.982 65.16 364.63 67.08C360.278 69 355.158 69.96 349.27 69.96ZM349.27 56.136C352.662 56.136 355.414 55.112 357.526 53.064C359.702 51.016 360.854 47.752 360.982 43.272C361.11 40.456 361.174 37.8 361.174 35.304C361.174 32.808 361.11 30.216 360.982 27.528C360.854 24.52 360.278 22.088 359.254 20.232C358.294 18.312 356.95 16.904 355.222 16.008C353.494 15.112 351.51 14.664 349.27 14.664C347.094 14.664 345.142 15.112 343.414 16.008C341.686 16.904 340.31 18.312 339.286 20.232C338.262 22.088 337.686 24.52 337.558 27.528C337.494 30.216 337.462 32.808 337.462 35.304C337.462 37.8 337.494 40.456 337.558 43.272C337.75 47.752 338.902 51.016 341.014 53.064C343.126 55.112 345.878 56.136 349.27 56.136ZM391.502 69C390.798 69 390.222 68.776 389.773 68.328C389.326 67.88 389.102 67.304 389.102 66.6V21.48C389.102 20.776 389.326 20.2 389.773 19.752C390.222 19.304 390.798 19.08 391.502 19.08H402.542C403.246 19.08 403.822 19.304 404.27 19.752C404.718 20.2 404.942 20.776 404.942 21.48V25.128C406.606 23.144 408.782 21.48 411.47 20.136C414.158 18.792 417.326 18.12 420.974 18.12C424.686 18.12 427.95 18.952 430.766 20.616C433.646 22.28 435.886 24.744 437.486 28.008C439.15 31.208 439.982 35.144 439.982 39.816V66.6C439.982 67.304 439.726 67.88 439.214 68.328C438.766 68.776 438.222 69 437.582 69H425.486C424.846 69 424.27 68.776 423.758 68.328C423.31 67.88 423.086 67.304 423.086 66.6V40.392C423.086 37.384 422.35 35.08 420.878 33.48C419.47 31.816 417.358 30.984 414.542 30.984C411.918 30.984 409.806 31.816 408.206 33.48C406.67 35.08 405.902 37.384 405.902 40.392V66.6C405.902 67.304 405.646 67.88 405.134 68.328C404.686 68.776 404.142 69 403.502 69H391.502ZM473.735 69.96C466.183 69.96 460.167 67.912 455.687 63.816C451.207 59.72 448.871 53.64 448.679 45.576C448.679 45.128 448.679 44.552 448.679 43.848C448.679 43.144 448.679 42.6 448.679 42.216C448.871 37.16 449.991 32.84 452.039 29.256C454.151 25.608 457.031 22.856 460.679 21C464.391 19.08 468.711 18.12 473.639 18.12C479.271 18.12 483.911 19.24 487.559 21.48C491.271 23.72 494.055 26.76 495.911 30.6C497.767 34.44 498.695 38.824 498.695 43.752V46.056C498.695 46.76 498.439 47.336 497.927 47.784C497.479 48.232 496.935 48.456 496.295 48.456H465.575C465.575 48.52 465.575 48.616 465.575 48.744C465.575 48.872 465.575 49 465.575 49.128C465.639 50.984 465.959 52.68 466.535 54.216C467.111 55.752 468.007 56.968 469.223 57.864C470.439 58.76 471.911 59.208 473.639 59.208C474.919 59.208 475.975 59.016 476.807 58.632C477.703 58.184 478.439 57.704 479.015 57.192C479.591 56.616 480.039 56.136 480.359 55.752C480.935 55.112 481.383 54.728 481.703 54.6C482.087 54.408 482.663 54.312 483.431 54.312H495.335C495.975 54.312 496.487 54.504 496.871 54.888C497.319 55.208 497.511 55.688 497.447 56.328C497.383 57.416 496.839 58.728 495.815 60.264C494.791 61.8 493.287 63.336 491.303 64.872C489.383 66.344 486.951 67.56 484.007 68.52C481.063 69.48 477.639 69.96 473.735 69.96ZM465.575 38.952H481.799V38.76C481.799 36.712 481.479 34.92 480.839 33.384C480.263 31.848 479.335 30.664 478.055 29.832C476.839 29 475.367 28.584 473.639 28.584C471.911 28.584 470.439 29 469.223 29.832C468.071 30.664 467.175 31.848 466.535 33.384C465.895 34.92 465.575 36.712 465.575 38.76V38.952ZM9.12 178C8.416 178 7.84 177.776 7.392 177.328C6.944 176.88 6.72 176.304 6.72 175.6V113.2C6.72 112.496 6.944 111.92 7.392 111.472C7.84 111.024 8.416 110.8 9.12 110.8H36C41.312 110.8 45.92 111.632 49.824 113.296C53.792 114.896 56.864 117.328 59.04 120.592C61.28 123.856 62.4 127.984 62.4 132.976C62.4 137.904 61.28 141.968 59.04 145.168C56.864 148.368 53.792 150.736 49.824 152.272C45.92 153.808 41.312 154.576 36 154.576H24.576V175.6C24.576 176.304 24.32 176.88 23.808 177.328C23.36 177.776 22.784 178 22.08 178H9.12ZM24.288 141.328H35.52C38.272 141.328 40.448 140.624 42.048 139.216C43.712 137.808 44.544 135.664 44.544 132.784C44.544 130.352 43.84 128.304 42.432 126.64C41.024 124.976 38.72 124.144 35.52 124.144H24.288V141.328ZM72.939 178C72.235 178 71.659 177.776 71.211 177.328C70.763 176.88 70.539 176.304 70.539 175.6V130.48C70.539 129.84 70.763 129.296 71.211 128.848C71.659 128.336 72.235 128.08 72.939 128.08H83.979C84.683 128.08 85.259 128.336 85.707 128.848C86.155 129.296 86.379 129.84 86.379 130.48V134.32C88.107 132.336 90.155 130.8 92.523 129.712C94.955 128.624 97.675 128.08 100.683 128.08H104.907C105.547 128.08 106.091 128.304 106.539 128.752C107.051 129.2 107.307 129.776 107.307 130.48V140.368C107.307 141.008 107.051 141.584 106.539 142.096C106.091 142.544 105.547 142.768 104.907 142.768H95.595C92.971 142.768 90.923 143.504 89.451 144.976C88.043 146.384 87.339 148.4 87.339 151.024V175.6C87.339 176.304 87.083 176.88 86.571 177.328C86.123 177.776 85.547 178 84.843 178H72.939ZM137.374 178.96C131.998 178.96 127.454 178.096 123.742 176.368C120.094 174.64 117.278 172.176 115.294 168.976C113.374 165.712 112.286 161.84 112.03 157.36C111.966 156.08 111.934 154.64 111.934 153.04C111.934 151.376 111.966 149.936 112.03 148.72C112.286 144.176 113.438 140.304 115.486 137.104C117.534 133.904 120.382 131.44 124.03 129.712C127.742 127.984 132.19 127.12 137.374 127.12C142.622 127.12 147.07 127.984 150.718 129.712C154.43 131.44 157.31 133.904 159.358 137.104C161.406 140.304 162.558 144.176 162.814 148.72C162.878 149.936 162.91 151.376 162.91 153.04C162.91 154.64 162.878 156.08 162.814 157.36C162.558 161.84 161.438 165.712 159.454 168.976C157.534 172.176 154.718 174.64 151.006 176.368C147.358 178.096 142.814 178.96 137.374 178.96ZM137.374 167.248C140.254 167.248 142.334 166.384 143.614 164.656C144.958 162.928 145.726 160.336 145.918 156.88C145.982 155.92 146.014 154.64 146.014 153.04C146.014 151.44 145.982 150.16 145.918 149.2C145.726 145.808 144.958 143.248 143.614 141.52C142.334 139.728 140.254 138.832 137.374 138.832C134.558 138.832 132.478 139.728 131.134 141.52C129.79 143.248 129.054 145.808 128.926 149.2C128.862 150.16 128.83 151.44 128.83 153.04C128.83 154.64 128.862 155.92 128.926 156.88C129.054 160.336 129.79 162.928 131.134 164.656C132.478 166.384 134.558 167.248 137.374 167.248ZM197.7 178C193.604 178 190.052 177.36 187.044 176.08C184.1 174.736 181.828 172.688 180.228 169.936C178.628 167.12 177.828 163.504 177.828 159.088V140.656H170.34C169.636 140.656 169.028 140.432 168.516 139.984C168.068 139.536 167.844 138.96 167.844 138.256V130.48C167.844 129.776 168.068 129.2 168.516 128.752C169.028 128.304 169.636 128.08 170.34 128.08H177.828V112.24C177.828 111.536 178.052 110.96 178.5 110.512C179.012 110.064 179.588 109.84 180.228 109.84H191.364C192.068 109.84 192.644 110.064 193.092 110.512C193.54 110.96 193.764 111.536 193.764 112.24V128.08H205.764C206.468 128.08 207.044 128.304 207.492 128.752C207.94 129.2 208.164 129.776 208.164 130.48V138.256C208.164 138.96 207.94 139.536 207.492 139.984C207.044 140.432 206.468 140.656 205.764 140.656H193.764V157.744C193.764 159.92 194.18 161.648 195.012 162.928C195.844 164.208 197.252 164.848 199.236 164.848H206.628C207.332 164.848 207.908 165.072 208.356 165.52C208.804 165.968 209.028 166.544 209.028 167.248V175.6C209.028 176.304 208.804 176.88 208.356 177.328C207.908 177.776 207.332 178 206.628 178H197.7ZM240.593 178.96C235.217 178.96 230.673 178.096 226.961 176.368C223.313 174.64 220.497 172.176 218.513 168.976C216.593 165.712 215.505 161.84 215.249 157.36C215.185 156.08 215.153 154.64 215.153 153.04C215.153 151.376 215.185 149.936 215.249 148.72C215.505 144.176 216.657 140.304 218.705 137.104C220.753 133.904 223.601 131.44 227.249 129.712C230.961 127.984 235.409 127.12 240.593 127.12C245.841 127.12 250.289 127.984 253.937 129.712C257.649 131.44 260.529 133.904 262.577 137.104C264.625 140.304 265.777 144.176 266.033 148.72C266.097 149.936 266.129 151.376 266.129 153.04C266.129 154.64 266.097 156.08 266.033 157.36C265.777 161.84 264.657 165.712 262.673 168.976C260.753 172.176 257.937 174.64 254.225 176.368C250.577 178.096 246.033 178.96 240.593 178.96ZM240.593 167.248C243.473 167.248 245.553 166.384 246.833 164.656C248.177 162.928 248.945 160.336 249.137 156.88C249.201 155.92 249.233 154.64 249.233 153.04C249.233 151.44 249.201 150.16 249.137 149.2C248.945 145.808 248.177 143.248 246.833 141.52C245.553 139.728 243.473 138.832 240.593 138.832C237.777 138.832 235.697 139.728 234.353 141.52C233.009 143.248 232.273 145.808 232.145 149.2C232.081 150.16 232.049 151.44 232.049 153.04C232.049 154.64 232.081 155.92 232.145 156.88C232.273 160.336 233.009 162.928 234.353 164.656C235.697 166.384 237.777 167.248 240.593 167.248ZM298.514 178.96C293.778 178.96 289.586 178.096 285.938 176.368C282.29 174.64 279.378 172.144 277.202 168.88C275.09 165.552 273.938 161.584 273.746 156.976C273.682 155.952 273.65 154.672 273.65 153.136C273.65 151.536 273.682 150.224 273.746 149.2C273.938 144.528 275.09 140.56 277.202 137.296C279.314 133.968 282.194 131.44 285.842 129.712C289.554 127.984 293.778 127.12 298.514 127.12C302.93 127.12 306.706 127.76 309.842 129.04C312.978 130.256 315.538 131.792 317.522 133.648C319.506 135.504 320.978 137.424 321.938 139.408C322.962 141.328 323.506 143.024 323.57 144.496C323.634 145.136 323.41 145.712 322.898 146.224C322.386 146.672 321.81 146.896 321.17 146.896H308.978C308.274 146.896 307.73 146.736 307.346 146.416C306.962 146.096 306.61 145.616 306.29 144.976C305.522 142.992 304.53 141.584 303.314 140.752C302.162 139.92 300.658 139.504 298.802 139.504C296.242 139.504 294.258 140.336 292.85 142C291.506 143.664 290.77 146.224 290.642 149.68C290.578 152.24 290.578 154.512 290.642 156.496C290.77 160.016 291.506 162.576 292.85 164.176C294.258 165.776 296.242 166.576 298.802 166.576C300.786 166.576 302.354 166.16 303.506 165.328C304.658 164.496 305.586 163.088 306.29 161.104C306.61 160.464 306.962 159.984 307.346 159.664C307.73 159.344 308.274 159.184 308.978 159.184H321.17C321.81 159.184 322.386 159.44 322.898 159.952C323.41 160.4 323.634 160.944 323.57 161.584C323.506 162.672 323.186 163.952 322.61 165.424C322.034 166.832 321.138 168.336 319.922 169.936C318.706 171.536 317.106 173.04 315.122 174.448C313.202 175.792 310.866 176.88 308.114 177.712C305.362 178.544 302.162 178.96 298.514 178.96ZM355.811 178.96C350.435 178.96 345.891 178.096 342.179 176.368C338.531 174.64 335.715 172.176 333.731 168.976C331.811 165.712 330.723 161.84 330.467 157.36C330.403 156.08 330.371 154.64 330.371 153.04C330.371 151.376 330.403 149.936 330.467 148.72C330.723 144.176 331.875 140.304 333.923 137.104C335.971 133.904 338.819 131.44 342.467 129.712C346.179 127.984 350.627 127.12 355.811 127.12C361.059 127.12 365.507 127.984 369.155 129.712C372.867 131.44 375.747 133.904 377.795 137.104C379.843 140.304 380.995 144.176 381.251 148.72C381.315 149.936 381.347 151.376 381.347 153.04C381.347 154.64 381.315 156.08 381.251 157.36C380.995 161.84 379.875 165.712 377.891 168.976C375.971 172.176 373.155 174.64 369.443 176.368C365.795 178.096 361.251 178.96 355.811 178.96ZM355.811 167.248C358.691 167.248 360.771 166.384 362.051 164.656C363.395 162.928 364.163 160.336 364.355 156.88C364.419 155.92 364.451 154.64 364.451 153.04C364.451 151.44 364.419 150.16 364.355 149.2C364.163 145.808 363.395 143.248 362.051 141.52C360.771 139.728 358.691 138.832 355.811 138.832C352.995 138.832 350.915 139.728 349.571 141.52C348.227 143.248 347.491 145.808 347.363 149.2C347.299 150.16 347.267 151.44 347.267 153.04C347.267 154.64 347.299 155.92 347.363 156.88C347.491 160.336 348.227 162.928 349.571 164.656C350.915 166.384 352.995 167.248 355.811 167.248ZM393.189 178C392.485 178 391.909 177.776 391.461 177.328C391.013 176.88 390.789 176.304 390.789 175.6V112.24C390.789 111.536 391.013 110.96 391.461 110.512C391.909 110.064 392.485 109.84 393.189 109.84H404.517C405.221 109.84 405.797 110.064 406.245 110.512C406.693 110.96 406.917 111.536 406.917 112.24V175.6C406.917 176.304 406.693 176.88 406.245 177.328C405.797 177.776 405.221 178 404.517 178H393.189Z" fill="#AC47FF"/>
</svg>
