<svg width="251" height="108" viewBox="0 0 251 108" fill="none" xmlns="http://www.w3.org/2000/svg">
<path d="M239.728 0.414301C239.405 0.155577 238.933 0.208065 238.674 0.531538L234.458 5.80283C234.199 6.1263 234.252 6.59827 234.575 6.85699C234.899 7.11571 235.371 7.06323 235.629 6.73975L239.377 2.05416L244.063 5.80186C244.386 6.06058 244.858 6.00809 245.117 5.68462C245.375 5.36115 245.323 4.88918 245 4.63046L239.728 0.414301ZM219.289 57.6764L219.678 58.3177L219.289 57.6764ZM162.608 52.9141C162.226 52.756 161.787 52.9381 161.629 53.321C161.471 53.7038 161.653 54.1424 162.036 54.3005L162.608 52.9141ZM239.26 1C238.514 1.0829 238.514 1.0829 238.514 1.08311C238.514 1.08345 238.514 1.08386 238.515 1.08454C238.515 1.08589 238.515 1.08805 238.515 1.09101C238.516 1.09694 238.517 1.10605 238.518 1.11831C238.521 1.14282 238.525 1.17989 238.53 1.22907C238.54 1.32742 238.554 1.47417 238.572 1.66569C238.608 2.04875 238.656 2.61079 238.707 3.32277C238.808 4.74697 238.918 6.76971 238.955 9.15889C239.03 13.944 238.808 20.1696 237.637 25.9933C236.46 31.8439 234.353 37.148 230.765 40.2418C227.252 43.2708 222.157 44.3121 214.628 41.2855L214.069 42.6772C221.964 45.8512 227.695 44.8701 231.745 41.3778C235.72 37.9502 237.912 32.2339 239.107 26.289C240.308 20.3172 240.53 13.9722 240.455 9.13564C240.418 6.71397 240.306 4.66307 240.203 3.21636C240.151 2.49287 240.102 1.92013 240.066 1.52728C240.048 1.33084 240.032 1.17935 240.022 1.07645C240.017 1.025 240.013 0.985688 240.01 0.958979C240.008 0.945625 240.007 0.93542 240.006 0.928421C240.006 0.924922 240.006 0.922224 240.006 0.920335C240.005 0.919391 240.005 0.918582 240.005 0.918109C240.005 0.917503 240.005 0.917101 239.26 1ZM214.628 41.2855C210.775 39.7365 208.658 38.513 207.735 37.6341C207.256 37.1782 207.26 36.9685 207.259 36.9714C207.255 37.0267 207.218 36.9133 207.606 36.7383C207.972 36.573 208.549 36.4384 209.329 36.3654C210.098 36.2936 211.019 36.2856 212.044 36.3454C214.094 36.465 216.516 36.8533 218.893 37.5089C221.274 38.1655 223.579 39.0814 225.413 40.2397C227.257 41.4048 228.544 42.7628 229.039 44.2721C229.519 45.7376 229.301 47.5037 227.797 49.6354C226.277 51.7885 223.474 54.2616 218.9 57.035L219.678 58.3177C224.332 55.4962 227.332 52.895 229.022 50.5003C230.727 48.0842 231.127 45.8289 230.464 43.8051C229.815 41.8251 228.2 40.2259 226.214 38.9715C224.217 37.7104 221.764 36.7446 219.292 36.0629C216.817 35.3804 214.291 34.9739 212.132 34.8479C211.052 34.7849 210.052 34.7913 209.19 34.8719C208.338 34.9515 207.573 35.1073 206.988 35.3712C206.426 35.6253 205.831 36.0798 205.765 36.8424C205.704 37.5526 206.143 38.1896 206.701 38.7205C207.85 39.8152 210.21 41.1259 214.069 42.6772L214.628 41.2855ZM218.9 57.035C214.281 59.8358 208.479 61.0147 202.314 61.174C196.156 61.3331 189.693 60.4732 183.799 59.2481C177.908 58.0236 172.606 56.4388 168.776 55.1595C166.862 54.52 165.317 53.9574 164.252 53.5553C163.719 53.3542 163.307 53.1932 163.028 53.0829C162.889 53.0277 162.783 52.9852 162.713 52.9566C162.677 52.9423 162.651 52.9316 162.633 52.9244C162.625 52.9208 162.618 52.9182 162.614 52.9165C162.612 52.9156 162.61 52.915 162.61 52.9146C162.609 52.9144 162.609 52.9143 162.609 52.9142C162.608 52.9141 162.608 52.9141 162.322 53.6073C162.036 54.3005 162.036 54.3006 162.036 54.3008C162.037 54.3009 162.037 54.3012 162.038 54.3015C162.039 54.302 162.041 54.3028 162.044 54.3038C162.049 54.3059 162.056 54.3089 162.066 54.3128C162.085 54.3206 162.113 54.3321 162.15 54.347C162.224 54.3769 162.333 54.4209 162.476 54.4774C162.761 54.5906 163.181 54.7545 163.722 54.9585C164.803 55.3667 166.366 55.9359 168.301 56.5822C172.169 57.8743 177.53 59.4771 183.494 60.7167C189.455 61.9557 196.04 62.8366 202.353 62.6735C208.66 62.5105 214.752 61.3044 219.678 58.3177L218.9 57.035Z" fill="#FFD335"/>
<path d="M30.1776 36.5221C30.1472 36.9209 30.1363 37.4895 30.145 38.2277C30.1536 38.9542 30.2754 39.8376 30.5104 40.8779L29.1301 41.5974L28.4408 36.8239C28.03 36.7702 27.8233 36.632 27.8206 36.4094C27.8187 36.2453 27.9102 36.0508 28.095 35.826C28.2916 35.601 28.4359 35.4176 28.528 35.2759C28.6199 35.1225 28.6707 34.9578 28.6804 34.7819C28.7016 34.5941 28.727 34.2657 28.7566 33.7965C28.7862 33.3274 28.8096 32.829 28.8268 32.3015C28.8557 31.7737 28.8791 31.2754 28.897 30.8064C28.9266 30.3373 28.9403 30.0089 28.9381 29.8215C29.1929 29.5606 29.3785 29.4002 29.495 29.3402C29.7861 29.1844 29.986 29.2407 30.0947 29.5089L30.0547 35.0469C32.949 35.0127 34.6869 34.8046 35.2684 34.4227L35.2027 28.8684C35.2706 28.6684 35.5975 28.5649 36.1834 28.5579C36.3123 28.5564 36.4179 28.561 36.5 28.5718C36.5027 28.7944 36.5125 29.1342 36.5297 29.591C36.5584 30.036 36.582 30.5456 36.6005 31.1196C36.6307 31.6935 36.6614 32.3025 36.6924 32.9468C36.7233 33.5792 36.7539 34.1824 36.7841 34.7563C36.8334 35.9512 36.8731 36.8297 36.9032 37.3918C37.0019 38.797 37.3024 39.9303 37.8048 40.7916C37.28 41.0087 36.7012 41.1211 36.0684 41.1285C35.5136 39.7991 35.2058 38.0506 35.145 35.8832C34.3713 35.8689 33.8439 35.8635 33.5627 35.8668C33.2814 35.8701 32.9653 35.8914 32.6141 35.9307C31.8882 35.9862 31.076 36.1833 30.1776 36.5221ZM42.8152 40.0995C43.8464 40.0873 45.3934 39.6002 47.4564 38.6382C47.5853 38.6367 47.6913 38.6823 47.7745 38.7751C47.8575 38.8561 47.8997 38.9553 47.901 39.0724C47.4417 39.8748 46.5527 40.5064 45.2338 40.9674C43.915 41.4283 42.6796 41.5191 41.5278 41.2398C40.2231 40.9153 39.4235 40.1923 39.1289 39.0707C39.1029 38.8483 39.0876 38.5497 39.0832 38.1747C39.0787 37.7997 39.1667 37.3065 39.3469 36.6949C39.5388 36.0715 39.8658 35.4817 40.328 34.9254C40.7902 34.3691 41.3358 33.929 41.9649 33.6051C42.5939 33.2813 43.2658 33.1151 43.9806 33.1067C44.6602 33.0986 45.4247 33.324 46.2739 33.7827C46.675 34.0006 46.9943 34.2488 47.232 34.5273C47.4697 34.8058 47.5903 35.0915 47.5937 35.3844C47.5947 35.4664 47.5898 35.5485 47.5791 35.6307C47.5641 36.3458 47.2237 36.801 46.558 36.9964C46.2661 37.0819 45.9267 37.1269 45.54 37.1315L43.0077 37.0559C42.164 37.0659 41.5217 37.2552 41.0807 37.6237C40.8253 37.826 40.6472 38.1269 40.5464 38.5266C40.852 39.5894 41.6082 40.1137 42.8152 40.0995ZM45.8796 34.6312C45.6196 34.4467 45.3485 34.3152 45.0663 34.2365C44.7841 34.1578 44.5493 34.1195 44.3618 34.1218C44.1743 34.124 43.8704 34.192 43.4501 34.3259C43.0296 34.4481 42.6562 34.5873 42.3299 34.7435C41.5258 35.128 41.1262 35.5254 41.131 35.9355C42.0694 36.0064 42.773 36.0391 43.2417 36.0336C44.5424 36.0182 45.4199 35.8965 45.8743 35.6684C46.1542 35.5479 46.293 35.3998 46.291 35.224C46.2885 35.0131 46.1514 34.8155 45.8796 34.6312ZM53.1287 47.8354C52.8892 48.3891 52.5995 48.6679 52.2596 48.6719C52.0956 48.6739 51.9717 48.5992 51.8878 48.4478C51.8159 48.308 51.8138 48.1381 51.8818 47.9381C52.1267 46.8453 52.4811 45.5988 52.9451 44.1987C53.4207 42.7984 53.7377 41.8571 53.8961 41.3747C53.4811 40.9695 52.8269 40.1568 51.9335 38.9368C50.099 36.4271 49.1803 35.0492 49.1774 34.8031C49.1773 34.7914 49.183 34.7796 49.1946 34.7678L49.8546 34.0919C50.7904 34.9364 52.0146 36.3752 53.527 38.4082C53.9081 38.9193 54.212 39.3494 54.4388 39.6983C54.6791 39.2032 54.8674 38.7791 55.0039 38.4259C55.1402 38.061 55.2481 37.7726 55.3277 37.5607C55.4188 37.3369 55.5383 37.0425 55.6864 36.6775C56.0733 35.7002 56.6094 34.4574 57.2947 32.9492C57.3996 32.9011 57.5107 32.8763 57.6279 32.8749C57.9208 32.8715 58.1326 32.9451 58.2633 33.0959C58.3109 33.154 58.3352 33.224 58.3361 33.306C58.337 33.3763 58.3261 33.4468 58.3035 33.5174L53.1287 47.8354ZM75.1823 32.3157L73.6176 32.2991C73.2074 32.3039 72.7334 32.3505 72.1953 32.4389C72.1773 32.8962 72.1374 33.4885 72.0757 34.2159C71.8601 36.7967 71.7569 38.4738 71.766 39.2472C71.775 40.0089 71.7931 40.5478 71.8203 40.8639L70.1695 41.0065L70.6117 32.317L66.8653 32.1504C66.7716 32.1515 66.6945 32.0762 66.6341 31.9246C66.5855 31.7728 66.5604 31.6325 66.5588 31.5036C66.5573 31.3747 66.6084 31.2334 66.712 31.0799C66.8157 30.9263 66.9378 30.8487 67.0785 30.847C67.9343 30.872 68.7962 30.9204 69.6643 30.9922C71.2714 31.1138 72.6373 31.168 73.7622 31.1547L74.8516 31.1066C75.7067 31.0731 76.5552 30.9693 77.3969 30.7953C77.5848 30.8282 77.7055 31.1198 77.7589 31.67C77.772 31.787 77.7789 31.8807 77.7798 31.951C77.009 32.1828 76.1432 32.3043 75.1823 32.3157ZM86.9786 40.5615C86.8755 40.762 86.6013 40.8648 86.156 40.8701C85.7224 40.8752 85.5038 40.7196 85.5 40.4032C85.4837 39.0205 85.4432 38.0717 85.3785 37.5568C85.2596 36.4214 85.0297 35.8147 84.6889 35.7367C83.8433 35.5826 83.151 35.5088 82.6119 35.5152C82.0846 35.5214 81.6472 35.6906 81.2995 36.0229C80.9634 36.3433 80.7061 36.8796 80.5275 37.6318C80.3604 38.3721 80.2439 39.4165 80.1778 40.765L78.8243 40.781C78.8399 40.1128 78.8443 39.4916 78.8375 38.9175C78.8307 38.3433 78.8109 37.6638 78.7782 36.879C78.7453 36.0824 78.7058 35.2156 78.6595 34.2786C78.5882 33.2013 78.5482 32.2935 78.5394 31.5552C78.5306 30.8053 78.5693 30.1192 78.6557 29.4971C78.7703 29.2731 78.9389 29.1597 79.1615 29.1571C79.431 29.1539 79.6431 29.251 79.7978 29.4484C79.9524 29.6341 80.0364 29.803 80.0499 29.9552L79.9963 32.8565C80.0092 33.9462 80.0716 34.76 80.1834 35.2978C81.2297 34.5822 82.3153 34.2178 83.4402 34.2045C83.8035 34.2002 84.1905 34.2249 84.6014 34.2787C85.4856 34.7253 86.0655 35.2048 86.3412 35.7172C86.4732 35.9852 86.5587 36.2713 86.5974 36.5755C86.6362 36.8798 86.6637 37.2252 86.68 37.6117C86.7661 38.9467 86.8656 39.93 86.9786 40.5615ZM91.5629 39.5229C92.5941 39.5107 94.1412 39.0236 96.2042 38.0616C96.3331 38.0601 96.4391 38.1057 96.5222 38.1985C96.6052 38.2795 96.6474 38.3787 96.6488 38.4958C96.1895 39.2982 95.3004 39.9299 93.9816 40.3908C92.6627 40.8517 91.4274 40.9425 90.2756 40.6632C88.9708 40.3387 88.1712 39.6157 87.8767 38.4941C87.8506 38.2718 87.8354 37.9731 87.8309 37.5981C87.8265 37.2231 87.9144 36.7299 88.0947 36.1183C88.2866 35.4949 88.6136 34.9051 89.0758 34.3488C89.538 33.7925 90.0836 33.3524 90.7126 33.0286C91.3417 32.7047 92.0136 32.5385 92.7284 32.5301C93.408 32.522 94.1724 32.7474 95.0217 33.2061C95.4227 33.424 95.7421 33.6722 95.9798 33.9507C96.2174 34.2292 96.338 34.5149 96.3415 34.8078C96.3425 34.8898 96.3376 34.9719 96.3268 35.0541C96.3118 35.7692 95.9715 36.2244 95.3058 36.4198C95.0138 36.5053 94.6745 36.5503 94.2878 36.5549L91.7555 36.4794C90.9118 36.4893 90.2694 36.6786 89.8285 37.0471C89.573 37.2494 89.3949 37.5503 89.2942 37.95C89.5997 39.0128 90.356 39.5371 91.5629 39.5229ZM94.6274 34.0546C94.3674 33.8702 94.0963 33.7386 93.8141 33.6599C93.5319 33.5812 93.297 33.5429 93.1095 33.5452C92.922 33.5474 92.6181 33.6154 92.1978 33.7493C91.7774 33.8715 91.404 34.0107 91.0777 34.1669C90.2736 34.5514 89.874 34.9488 89.8788 35.3589C90.8172 35.4298 91.5208 35.4625 91.9895 35.457C93.2902 35.4416 94.1677 35.3199 94.6221 35.0918C94.9019 34.9713 95.0408 34.8232 95.0387 34.6474C95.0362 34.4365 94.8991 34.2389 94.6274 34.0546ZM106.644 34.1586C106.147 33.8129 105.513 33.6446 104.739 33.6537C104.013 33.6623 103.341 33.805 102.723 34.0819C101.557 34.5879 100.761 35.2302 100.337 36.0087C100.154 36.3624 100.064 36.7385 100.069 37.1369C100.07 37.2072 100.072 37.4064 100.076 37.7345C100.08 38.0509 100.144 38.4838 100.267 39.0332C100.391 39.5708 100.456 40.1208 100.463 40.6833C100.217 40.6979 100.018 40.7296 99.8661 40.7783C99.7143 40.8269 99.5857 40.8519 99.4802 40.8531C99.3748 40.8544 99.2805 40.8086 99.1973 40.7159C99.1259 40.6229 99.0418 40.4423 98.9448 40.1739C98.9323 40.1037 98.9065 39.9048 98.8674 39.5771C98.8284 39.2494 98.7768 38.8516 98.7127 38.3835C98.6603 37.9154 98.5957 37.4063 98.5188 36.8564C98.4536 36.2947 98.3885 35.7446 98.3235 35.2063C98.1808 34.036 98.071 33.1759 97.9942 32.626C97.9908 32.3448 98.1942 32.2017 98.6044 32.1969C98.8504 32.194 99.045 32.2971 99.1881 32.5064C99.3311 32.7039 99.4452 32.937 99.5304 33.2055C99.6155 33.4624 99.6713 33.7195 99.6978 33.977C99.736 34.2344 99.7674 34.4157 99.7921 34.5209C101.322 33.1199 103.236 32.4058 105.533 32.3786C105.791 32.3756 106.06 32.3782 106.342 32.3866C106.412 32.3741 106.5 32.3672 106.605 32.3659C106.71 32.3647 106.817 32.4338 106.924 32.5731C107.055 32.7356 107.121 32.9341 107.124 33.1684C107.131 33.7543 106.971 34.0844 106.644 34.1586ZM111.951 39.2817C112.983 39.2695 114.53 38.7824 116.593 37.8205C116.722 37.8189 116.828 37.8646 116.911 37.9573C116.994 38.0384 117.036 38.1375 117.037 38.2547C116.578 39.057 115.689 39.6887 114.37 40.1496C113.051 40.6106 111.816 40.7014 110.664 40.422C109.359 40.0976 108.56 39.3746 108.265 38.253C108.239 38.0306 108.224 37.7319 108.219 37.357C108.215 36.982 108.303 36.4887 108.483 35.8772C108.675 35.2538 109.002 34.6639 109.464 34.1076C109.926 33.5513 110.472 33.1113 111.101 32.7874C111.73 32.4635 112.402 32.2974 113.117 32.2889C113.796 32.2809 114.561 32.5062 115.41 32.965C115.811 33.1829 116.131 33.4311 116.368 33.7095C116.606 33.988 116.727 34.2737 116.73 34.5667C116.731 34.6487 116.726 34.7308 116.715 34.8129C116.7 35.528 116.36 35.9832 115.694 36.1786C115.402 36.2641 115.063 36.3091 114.676 36.3137L112.144 36.2382C111.3 36.2482 110.658 36.4374 110.217 36.806C109.962 37.0082 109.783 37.3092 109.683 37.7088C109.988 38.7717 110.744 39.296 111.951 39.2817ZM115.016 33.8134C114.756 33.629 114.485 33.4974 114.203 33.4187C113.92 33.34 113.686 33.3018 113.498 33.304C113.311 33.3062 113.007 33.3743 112.586 33.5082C112.166 33.6303 111.792 33.7695 111.466 33.9257C110.662 34.3103 110.262 34.7076 110.267 35.1177C111.206 35.1887 111.909 35.2214 112.378 35.2158C113.679 35.2004 114.556 35.0787 115.011 34.8507C115.29 34.7302 115.429 34.582 115.427 34.4063C115.425 34.1953 115.288 33.9977 115.016 33.8134ZM119.097 39.2499C119.589 39.2441 119.888 39.2874 119.995 39.3799C120.113 39.4723 120.173 39.5712 120.174 39.6767C120.051 40.1469 119.773 40.4315 119.34 40.5303C119.27 40.5429 119.194 40.5496 119.112 40.5506C119.03 40.5516 118.924 40.5294 118.795 40.4841C118.677 40.4386 118.588 40.3576 118.528 40.2411C118.396 39.9497 118.585 39.6193 119.097 39.2499ZM119.749 24.581C119.683 24.8865 119.67 26.7911 119.712 30.2948C119.753 33.7867 119.689 35.7974 119.519 36.3268L118.342 36.3407C118.327 35.1337 118.356 33.6216 118.429 31.8042C118.551 28.2751 118.605 25.8954 118.59 24.6651L119.749 24.581ZM27.2962 80.8288L27.2981 78.0161C27.2928 77.5708 27.2473 77.1905 27.1615 76.8751L24.4371 76.9073L24.3876 75.6949L27.0242 75.6637L26.9705 71.1289C27.0044 71.023 27.0735 70.9167 27.1777 70.81C27.3398 70.644 27.4736 70.5604 27.5791 70.5591C27.6962 70.5577 27.796 70.5683 27.8783 70.5907C27.9606 70.6132 28.0494 70.6942 28.1448 70.8337C28.3415 71.6049 28.449 72.7697 28.4674 74.3282C28.472 74.7149 28.4941 75.0955 28.5337 75.4701C28.9081 75.4187 29.2828 75.3909 29.6578 75.3864C29.6578 75.3864 29.9624 75.3828 30.5718 75.3756C30.7944 75.373 30.9993 75.3589 31.1865 75.3332L31.1488 76.5994L28.5817 76.5594L28.7413 82.6224C28.5315 82.7186 28.3505 82.7677 28.1981 82.7695C27.6122 82.7764 27.3116 82.1295 27.2962 80.8288ZM32.6988 79.1125C32.6824 77.7297 33.2669 76.6095 34.4521 75.7516C35.3934 75.0725 36.5311 74.6547 37.8653 74.4983C37.9356 74.4975 38.0996 74.4955 38.3574 74.4925C38.6152 74.4894 38.9618 74.5615 39.3972 74.7087C40.3619 75.0254 41.025 75.5977 41.3864 76.4255C41.5308 76.752 41.6045 77.0324 41.6073 77.2667C41.6099 77.4894 41.6059 77.6476 41.5953 77.7415C41.6126 79.2063 41.0697 80.3671 39.9664 81.2239C38.9444 82.0095 37.66 82.4114 36.1132 82.4297C35 82.4429 34.1533 82.1951 33.573 81.6863C33.0045 81.1773 32.7131 80.3194 32.6988 79.1125ZM33.9166 79.52C33.9252 80.2465 34.1243 80.7363 34.5141 80.9896C34.8092 81.1736 35.3025 81.2615 35.9939 81.2533C36.6852 81.2451 37.2939 81.1852 37.82 81.0735C38.346 80.9618 38.8126 80.7746 39.2197 80.512C40.0919 79.9391 40.521 79.061 40.507 77.8774C40.4987 77.1744 40.3044 76.6024 39.9241 76.1616C39.5083 75.686 38.9665 75.4521 38.2985 75.46C37.8425 75.5475 37.3807 75.6408 36.9131 75.7401C36.4572 75.8393 36.0258 76.026 35.6188 76.3004C34.7351 76.8851 34.1676 77.9583 33.9166 79.52ZM55.5183 89.7066L55.272 89.6919C54.9205 89.6961 54.5458 89.7239 54.1479 89.7755L53.48 89.7834C52.777 89.7917 52.2246 89.6635 51.823 89.3987C51.6104 89.2606 51.5025 89.0509 51.4991 88.7697L55.5395 88.5285C56.7812 88.4787 57.3944 87.8034 57.379 86.5027C57.3784 86.4558 57.3775 86.3738 57.3761 86.2566C57.3748 86.1512 57.372 85.911 57.3676 85.536L57.3885 79.8752C57.3861 79.676 57.3783 79.512 57.3651 79.3832C55.4877 81.1751 53.6702 82.0814 51.9125 82.1022C51.7602 82.104 51.6078 82.1 51.4553 82.09C50.6702 82.0993 50.2736 81.7583 50.2654 81.0669C50.2824 80.5276 50.4336 79.934 50.719 79.2861C51.0041 78.6264 51.3717 77.995 51.8216 77.392C52.2831 76.7771 52.804 76.226 53.3842 75.7387C54.2778 74.9898 55.1464 74.6103 55.9901 74.6003C56.9744 74.5887 57.7891 75.1006 58.4342 76.136C58.6547 78.9226 58.7718 80.9019 58.7857 82.0737C58.7996 83.2454 58.7933 84.2065 58.7671 84.9569C58.7408 85.7073 58.6669 86.3937 58.5453 87.0163C58.4355 87.6387 58.2831 88.1328 58.0882 88.4984C57.8933 88.864 57.662 89.1304 57.3945 89.2976C56.9522 89.5607 56.3269 89.697 55.5183 89.7066ZM56.4095 75.8787C56.2684 75.8335 56.0689 75.8124 55.8111 75.8154C55.565 75.8183 55.244 75.9276 54.8481 76.1432C54.4522 76.3589 54.0746 76.6388 53.7154 76.9829C53.356 77.3153 53.0205 77.6884 52.709 78.1023C51.9475 79.1192 51.5703 79.9264 51.5774 80.524C51.5796 80.7115 51.634 80.8515 51.7406 80.944C51.8232 80.9899 51.9231 81.0122 52.0402 81.0108C52.1691 81.0093 52.3506 80.9895 52.5845 80.9516C52.8183 80.902 53.1334 80.7928 53.5299 80.624C53.938 80.4434 54.3572 80.2157 54.7875 79.9411C55.2179 79.6665 55.6069 79.363 55.9546 79.0308C56.766 78.2711 57.1674 77.5339 57.159 76.8191C57.1539 76.3855 56.904 76.0721 56.4095 75.8787ZM63.5613 80.8569C64.5925 80.8447 66.1396 80.3577 68.2026 79.3957C68.3315 79.3942 68.4375 79.4398 68.5206 79.5326C68.6036 79.6136 68.6458 79.7127 68.6472 79.8299C68.1879 80.6323 67.2988 81.2639 65.98 81.7249C64.6611 82.1858 63.4258 82.2766 62.2739 81.9972C60.9692 81.6728 60.1696 80.9498 59.8751 79.8282C59.849 79.6058 59.8338 79.3072 59.8293 78.9322C59.8249 78.5572 59.9128 78.064 60.0931 77.4524C60.2849 76.829 60.612 76.2391 61.0742 75.6829C61.5364 75.1266 62.082 74.6865 62.711 74.3626C63.34 74.0388 64.012 73.8726 64.7268 73.8641C65.4064 73.8561 66.1708 74.0815 67.0201 74.5402C67.4211 74.7581 67.7405 75.0063 67.9782 75.2848C68.2158 75.5632 68.3364 75.8489 68.3399 76.1419C68.3409 76.2239 68.336 76.306 68.3252 76.3882C68.3102 77.1032 67.9699 77.5585 67.3042 77.7539C67.0122 77.8393 66.6729 77.8844 66.2862 77.8889L63.7539 77.8134C62.9102 77.8234 62.2678 78.0127 61.8268 78.3812C61.5714 78.5834 61.3933 78.8844 61.2926 79.284C61.5981 80.3469 62.3544 80.8712 63.5613 80.8569ZM66.6258 75.3887C66.3658 75.2042 66.0947 75.0727 65.8125 74.994C65.5303 74.9153 65.2954 74.877 65.1079 74.8792C64.9204 74.8815 64.6165 74.9495 64.1962 75.0834C63.7758 75.2056 63.4024 75.3448 63.0761 75.501C62.272 75.8855 61.8723 76.2828 61.8772 76.693C62.8156 76.7639 63.5192 76.7966 63.9879 76.7911C65.2886 76.7757 66.1661 76.654 66.6205 76.4259C66.9003 76.3054 67.0392 76.1573 67.0371 75.9815C67.0346 75.7706 66.8975 75.573 66.6258 75.3887ZM72.7219 80.2915L72.7238 77.4788C72.7185 77.0335 72.673 76.6532 72.5873 76.3378L69.8628 76.37L69.8133 75.1576L72.4499 75.1264L72.3962 70.5916C72.4301 70.4857 72.4992 70.3794 72.6034 70.2727C72.7655 70.1067 72.8993 70.0231 73.0048 70.0218C73.122 70.0204 73.2217 70.031 73.304 70.0534C73.3863 70.0759 73.4752 70.1569 73.5706 70.2964C73.7672 71.0676 73.8747 72.2324 73.8932 73.7909C73.8977 74.1776 73.9198 74.5582 73.9594 74.9328C74.3338 74.8814 74.7085 74.8536 75.0835 74.8491C75.0835 74.8491 75.3882 74.8455 75.9975 74.8383C76.2201 74.8357 76.4251 74.8216 76.6123 74.7959L76.5745 76.0621L74.0075 76.0221L74.1671 82.0851C73.9573 82.1813 73.7762 82.2304 73.6238 82.2322C73.0379 82.2391 72.7373 81.5922 72.7219 80.2915ZM85.5268 75.0069C85.4959 74.3744 85.4658 73.8122 85.4365 73.3203C85.4071 72.8167 85.3852 72.4478 85.3707 72.2136C85.3678 71.9675 85.2671 71.3769 85.0685 70.4417C85.1723 70.2998 85.2703 70.1639 85.3625 70.0339C85.4664 69.9037 85.6122 69.8375 85.7996 69.8353C86.2098 69.8305 86.5466 71.5551 86.8101 75.0093C86.951 77.0117 87.0333 79.0147 87.057 81.0185C87.0634 81.5575 86.6916 81.8315 85.9416 81.8403L85.8008 81.8244C85.7936 81.2151 85.7668 80.4361 85.7204 79.4873C85.6741 78.5386 85.635 77.7128 85.6032 77.01C85.5832 76.3071 85.5577 75.6394 85.5268 75.0069ZM95.3541 78.7933C94.4917 80.1864 93.33 81.0556 91.8691 81.4011C91.5301 81.4754 91.22 81.5142 90.9388 81.5176C90.6693 81.5207 90.4408 81.5234 90.2533 81.5257C90.0774 81.516 89.8778 81.4891 89.6546 81.4448C89.4314 81.4006 89.2255 81.3269 89.0367 81.2236C88.6003 80.9827 88.3794 80.6396 88.3741 80.1943C88.3248 79.9839 88.2986 79.7498 88.2955 79.492C88.2923 79.2225 88.3468 78.8703 88.4588 78.4353C88.5709 78.0004 88.7762 77.5292 89.0749 77.0217C89.3854 76.5141 89.7607 76.0467 90.201 75.6196C91.1162 74.7181 92.1113 74.1321 93.1863 73.8615C93.5018 73.7875 93.7885 73.7489 94.0463 73.7459C94.3158 73.7427 94.5562 73.7574 94.7676 73.7901C95.4472 73.782 95.9097 74.2395 96.155 75.1624C96.3143 75.7465 96.4119 76.5658 96.4478 77.6201C96.4953 78.6626 96.5341 79.4708 96.5643 80.0447C96.6062 80.6067 96.6884 81.1214 96.8111 81.5887L95.7741 81.601C95.7235 81.2852 95.685 81.0044 95.6587 80.7586C95.6323 80.5128 95.6062 80.2845 95.5802 80.0739C95.5158 79.5824 95.4405 79.1556 95.3541 78.7933ZM95.2516 76.0697C95.2436 75.39 94.9056 75.0542 94.2377 75.0621C94.1555 75.0513 94.0734 75.0464 93.9914 75.0474C93.136 75.0575 92.2385 75.4783 91.2991 76.3098C90.8583 76.69 90.4824 77.1164 90.1716 77.5889C89.7108 78.2623 89.4835 78.8627 89.4897 79.39C89.4979 80.0814 89.9011 80.4868 90.6995 80.6063C91.7538 80.5703 92.7559 80.078 93.7057 79.1292C94.1109 78.7142 94.4455 78.2649 94.7093 77.7813C95.0767 77.1324 95.2574 76.5618 95.2516 76.0697ZM100.633 79.9614L100.635 77.1487C100.629 76.7034 100.584 76.323 100.498 76.0076L97.7735 76.0398L97.724 74.8275L100.361 74.7963L100.307 70.2614C100.341 70.1556 100.41 70.0493 100.514 69.9426C100.676 69.7766 100.81 69.6929 100.915 69.6917C101.033 69.6903 101.132 69.7009 101.215 69.7233C101.297 69.7458 101.386 69.8268 101.481 69.9663C101.678 70.7374 101.785 71.9023 101.804 73.4608C101.808 73.8474 101.831 74.2281 101.87 74.6026C102.245 74.5513 102.619 74.5234 102.994 74.519C102.994 74.519 103.299 74.5154 103.908 74.5082C104.131 74.5056 104.336 74.4914 104.523 74.4658L104.485 75.7319L101.918 75.692L102.078 81.755C101.868 81.8512 101.687 81.9002 101.535 81.902C100.949 81.909 100.648 81.2621 100.633 79.9614ZM109.206 80.317C110.238 80.3048 111.785 79.8178 113.848 78.8558C113.977 78.8543 114.083 78.8999 114.166 78.9927C114.249 79.0737 114.291 79.1728 114.292 79.29C113.833 80.0924 112.944 80.724 111.625 81.185C110.306 81.6459 109.071 81.7367 107.919 81.4573C106.614 81.1329 105.815 80.4099 105.52 79.2883C105.494 79.0659 105.479 78.7673 105.474 78.3923C105.47 78.0173 105.558 77.5241 105.738 76.9125C105.93 76.2891 106.257 75.6993 106.719 75.143C107.181 74.5867 107.727 74.1466 108.356 73.8227C108.985 73.4989 109.657 73.3327 110.372 73.3243C111.051 73.3162 111.816 73.5416 112.665 74.0003C113.066 74.2182 113.386 74.4664 113.623 74.7449C113.861 75.0233 113.981 75.309 113.985 75.602C113.986 75.684 113.981 75.7661 113.97 75.8483C113.955 76.5633 113.615 77.0186 112.949 77.214C112.657 77.2995 112.318 77.3445 111.931 77.3491L109.399 77.2735C108.555 77.2835 107.913 77.4728 107.472 77.8413C107.216 78.0435 107.038 78.3445 106.938 78.7442C107.243 79.807 107.999 80.3313 109.206 80.317ZM112.271 74.8488C112.011 74.6643 111.74 74.5328 111.458 74.4541C111.175 74.3754 110.94 74.3371 110.753 74.3393C110.566 74.3416 110.262 74.4096 109.841 74.5435C109.421 74.6657 109.047 74.8049 108.721 74.9611C107.917 75.3456 107.517 75.7429 107.522 76.1531C108.461 76.224 109.164 76.2567 109.633 76.2512C110.934 76.2358 111.811 76.1141 112.266 75.886C112.545 75.7655 112.684 75.6174 112.682 75.4416C112.68 75.2307 112.543 75.0331 112.271 74.8488ZM121.691 76.8645C122.979 76.8492 123.628 77.1697 123.636 77.8259C123.641 78.318 123.291 78.8965 122.584 79.5611C121.529 80.5463 120.103 81.3425 118.305 81.9498C118.223 81.9507 118.128 81.8698 118.021 81.707C117.925 81.5441 117.848 81.4219 117.788 81.3406C117.74 81.2474 117.704 81.1892 117.681 81.1661C119.023 80.7049 120.124 80.1527 120.983 79.5097C121.564 79.0809 121.853 78.7318 121.85 78.4623C121.847 78.1928 121.5 78.0621 120.808 78.0703C120.117 78.0785 119.105 78.2545 117.773 78.5984C117.164 78.5822 116.634 78.3716 116.184 77.9668C115.793 77.6081 115.595 77.2471 115.591 76.8839C115.586 76.5089 115.688 76.1678 115.895 75.8607C116.102 75.5418 116.38 75.2455 116.728 74.9718C117.077 74.6982 117.484 74.4472 117.95 74.2191C119.092 73.6547 120.278 73.3653 121.508 73.3507C121.872 73.3464 122.224 73.3774 122.564 73.4437C122.845 73.4404 123.011 73.5615 123.061 73.807C123.11 74.0525 123.139 74.4565 123.145 75.019C122.45 74.7108 121.669 74.5618 120.802 74.5721C119.724 74.5848 118.836 74.8121 118.138 75.254C117.416 75.6845 117.048 76.2396 117.033 76.9196C117.037 77.2477 117.279 77.4089 117.759 77.4032L119.041 77.2474C120.139 77 121.023 76.8724 121.691 76.8645ZM127.762 79.6405L127.763 76.8278C127.758 76.3825 127.713 76.0022 127.627 75.6867L124.902 75.719L124.853 74.5066L127.489 74.4754L127.436 69.9406C127.47 69.8347 127.539 69.7284 127.643 69.6217C127.805 69.4557 127.939 69.3721 128.044 69.3708C128.162 69.3694 128.261 69.38 128.344 69.4024C128.426 69.4249 128.515 69.5059 128.61 69.6454C128.807 70.4166 128.914 71.5814 128.933 73.1399C128.937 73.5266 128.959 73.9072 128.999 74.2817C129.373 74.2304 129.748 74.2026 130.123 74.1981C130.123 74.1981 130.428 74.1945 131.037 74.1873C131.26 74.1847 131.465 74.1705 131.652 74.1449L131.614 75.411L129.047 75.3711L129.207 81.4341C128.997 81.5303 128.816 81.5793 128.663 81.5811C128.078 81.5881 127.777 80.9412 127.762 79.6405ZM45.9339 97.9592C45.9317 97.7717 45.9111 97.5141 45.8721 97.1864C45.8446 96.8469 45.8168 96.478 45.7886 96.0799C45.7605 95.6818 45.744 95.2777 45.7391 94.8675C45.7343 94.4574 45.765 94.082 45.8313 93.7414C45.9746 92.9779 46.2865 92.5933 46.7669 92.5876C47.0962 92.6775 47.3143 92.7921 47.4214 92.9315C47.5403 93.0707 47.601 93.2458 47.6035 93.4567C47.6058 93.6559 47.5561 93.9085 47.4542 94.2144C47.0796 95.2384 46.8971 96.1606 46.9068 96.9808C46.91 97.2503 46.931 97.5372 46.9697 97.8415C47.1665 98.6243 47.8156 99.0093 48.9171 98.9962C49.4913 98.9895 50.035 98.8834 50.5482 98.6781C51.5282 98.3032 52.1911 97.8676 52.5368 97.3713C52.6359 96.831 52.6831 96.3617 52.6784 95.9633C52.6735 95.5531 52.6516 95.1901 52.6128 94.8741C52.5856 94.558 52.5463 94.2128 52.495 93.8383C52.4553 93.4521 52.4269 93.0305 52.4097 92.5736C52.5613 92.5015 52.7073 92.4646 52.8479 92.463C53.0003 92.4612 53.1535 92.5355 53.3076 92.6861C53.4735 92.8365 53.6116 93.122 53.7221 93.5425C53.8443 93.963 53.9263 94.4601 53.9683 95.0339C54.0101 95.5959 54.0346 96.1816 54.0418 96.7909C54.0607 97.4001 54.0736 97.9918 54.0803 98.566C54.087 99.1285 54.1162 99.6145 54.1679 100.024C54.0288 100.155 53.8948 100.221 53.7659 100.222C53.2972 100.228 52.946 99.7631 52.7123 98.8283C52.5615 98.959 52.3055 99.1202 51.9445 99.312C51.1761 99.743 50.2654 100.035 49.2125 100.188C49.0135 100.214 48.791 100.228 48.545 100.231C48.2989 100.234 47.9878 100.191 47.6117 100.102C47.2474 100.012 46.8991 99.7995 46.567 99.4635C46.2349 99.1276 46.0239 98.6261 45.9339 97.9592ZM57.1534 93.1152C58.7406 92.5456 60.1142 92.254 61.2742 92.2402C62.7507 92.2228 63.7396 92.5978 64.2409 93.3654C64.4678 93.726 64.5838 94.1173 64.5888 94.5391C64.5957 95.125 64.4154 95.7307 64.0477 96.3562C63.6918 96.9815 63.2122 97.5497 62.6088 98.0608C61.2047 99.2377 59.4906 99.9787 57.4668 100.284C57.4683 100.413 57.4707 100.618 57.474 100.899C57.4892 101.192 57.4989 101.514 57.5031 101.866C57.5189 102.217 57.5292 102.592 57.5339 102.99C57.5504 103.389 57.5666 103.769 57.5826 104.132C57.6284 105.034 57.658 105.55 57.6712 105.678C57.6962 105.807 57.7091 105.912 57.7101 105.994C57.7136 106.287 57.6224 106.505 57.4366 106.648C57.2509 106.803 57.0057 106.882 56.701 106.885C56.6424 106.886 56.5839 106.887 56.5253 106.887L56.0769 92.7588C56.1805 92.6052 56.3203 92.5332 56.4962 92.5429C56.6721 92.5525 56.8133 92.5977 56.9197 92.6785C57.0262 92.7593 57.1041 92.9048 57.1534 93.1152ZM62.2932 93.6697C61.9041 93.4751 61.487 93.3804 61.0417 93.3857C60.6081 93.3908 60.175 93.4369 59.7424 93.5241C58.7604 93.7232 58.0388 94.1478 57.5777 94.7978C57.3703 95.105 57.2693 95.4812 57.2746 95.9265C57.2751 95.9734 57.2757 96.0202 57.2763 96.0671L57.3122 99.1079C59.7197 98.5403 61.4217 97.7701 62.4181 96.7973C62.9974 96.2397 63.2837 95.6679 63.2767 95.082C63.2694 94.4609 62.9415 93.9902 62.2932 93.6697ZM74.0752 85.8482C74.0885 86.9731 74.0663 88.075 74.0088 89.1539C73.9628 90.2209 73.9166 91.2703 73.8702 92.3022C73.8354 93.3222 73.8249 94.4123 73.8386 95.5723C73.8522 96.7207 73.9486 97.9384 74.1279 99.2254C74.1311 99.4949 74.0807 99.6889 73.9766 99.8073C73.8842 99.9256 73.7209 99.9862 73.4865 99.9889C72.9358 99.9954 72.655 99.5417 72.6442 98.6277L72.6373 98.0477C70.9881 99.3094 69.5893 99.9471 68.4409 99.9607C67.9839 99.9661 67.5139 99.8603 67.0308 99.6434C66.5594 99.4263 66.1088 98.9804 65.6789 98.3058C65.617 98.0252 65.5843 97.7385 65.5809 97.4455C65.5774 97.1526 65.626 96.8004 65.7266 96.389C65.8388 95.9658 66.0622 95.5296 66.3967 95.0803C66.743 94.6308 67.1602 94.2333 67.6483 93.8876C68.7178 93.1484 69.8794 92.7713 71.1332 92.7565C71.6722 92.7501 72.1888 92.826 72.6829 92.9843C72.6804 92.7733 72.6878 92.4041 72.705 91.8765C72.7339 91.3488 72.7624 90.7918 72.7907 90.2055C72.843 88.6813 72.8792 87.7843 72.8995 87.5145C72.9196 87.233 72.9461 86.9983 72.979 86.8104C73.0236 86.6107 73.086 86.44 73.1664 86.2984C73.3387 86.0034 73.6416 85.8533 74.0752 85.8482ZM66.8623 97.2897C66.8733 98.2155 67.2127 98.6744 67.8806 98.6665C67.9861 98.6652 68.1031 98.6521 68.2318 98.6272C68.7122 98.6215 69.3023 98.4739 70.002 98.1843C71.3316 97.6412 72.1406 97.1746 72.429 96.7844L72.4013 94.4467C72.3965 94.0366 72.0601 93.8354 71.3922 93.8433C71.31 93.8326 71.1986 93.8281 71.058 93.8297C70.9291 93.8312 70.7244 93.863 70.4439 93.9249C70.1633 93.9868 69.8482 94.096 69.4985 94.2525C69.1487 94.409 68.8053 94.6006 68.4681 94.8272C67.759 95.3161 67.2735 95.8844 67.0116 96.5321C66.909 96.7794 66.8593 97.0319 66.8623 97.2897ZM82.3893 96.9479C81.5268 98.341 80.3651 99.2103 78.9043 99.5557C78.5653 99.63 78.2552 99.6688 77.9739 99.6722C77.7044 99.6753 77.4759 99.6781 77.2884 99.6803C77.1125 99.6706 76.913 99.6437 76.6898 99.5995C76.4666 99.5552 76.2606 99.4815 76.0719 99.3782C75.6354 99.1373 75.4145 98.7942 75.4093 98.3489C75.3599 98.1385 75.3337 97.9044 75.3307 97.6466C75.3275 97.3771 75.3819 97.0249 75.4939 96.5899C75.606 96.155 75.8114 95.6838 76.1101 95.1763C76.4205 94.6687 76.7959 94.2013 77.2362 93.7742C78.1513 92.8727 79.1464 92.2867 80.2214 92.0161C80.537 91.9421 80.8237 91.9035 81.0815 91.9005C81.351 91.8973 81.5914 91.912 81.8027 91.9447C82.4824 91.9367 82.9448 92.3941 83.1901 93.3171C83.3494 93.9011 83.447 94.7204 83.4829 95.7747C83.5304 96.8172 83.5693 97.6254 83.5995 98.1993C83.6413 98.7613 83.7236 99.276 83.8463 99.7433L82.8092 99.7556C82.7586 99.4398 82.7201 99.159 82.6938 98.9132C82.6675 98.6674 82.6413 98.4391 82.6154 98.2285C82.551 97.737 82.4756 97.3102 82.3893 96.9479ZM82.2868 94.2243C82.2787 93.5446 81.9407 93.2088 81.2728 93.2167C81.1906 93.2059 81.1086 93.201 81.0265 93.202C80.1711 93.2121 79.2737 93.6329 78.3342 94.4644C77.8934 94.8447 77.5176 95.271 77.2067 95.7435C76.7459 96.4169 76.5186 97.0173 76.5248 97.5446C76.533 98.236 76.9363 98.6414 77.7346 98.7609C78.789 98.725 79.791 98.2326 80.7408 97.2838C81.1461 96.8688 81.4806 96.4195 81.7445 95.9359C82.1118 95.287 82.2926 94.7164 82.2868 94.2243ZM87.6678 98.116L87.6697 95.3033C87.6644 94.858 87.6189 94.4776 87.5331 94.1622L84.8087 94.1945L84.7592 92.9821L87.3957 92.9509L87.3421 88.416C87.376 88.3102 87.4451 88.2039 87.5493 88.0972C87.7114 87.9312 87.8452 87.8476 87.9506 87.8463C88.0678 87.8449 88.1675 87.8555 88.2498 87.8779C88.3321 87.9004 88.421 87.9814 88.5164 88.1209C88.713 88.892 88.8206 90.0569 88.839 91.6154C88.8436 92.0021 88.8657 92.3827 88.9053 92.7572C89.2797 92.7059 89.6544 92.6781 90.0293 92.6736C90.0293 92.6736 90.334 92.67 90.9433 92.6628C91.166 92.6602 91.3709 92.646 91.5581 92.6204L91.5204 93.8865L88.9533 93.8466L89.1129 99.9096C88.9031 100.006 88.722 100.055 88.5697 100.057C87.9838 100.064 87.6832 99.4167 87.6678 98.116ZM96.2416 98.4716C97.2727 98.4594 98.8198 97.9724 100.883 97.0104C101.012 97.0089 101.118 97.0545 101.201 97.1473C101.284 97.2283 101.326 97.3274 101.327 97.4446C100.868 98.247 99.9791 98.8786 98.6602 99.3396C97.3413 99.8005 96.106 99.8913 94.9542 99.612C93.6495 99.2875 92.8498 98.5645 92.5553 97.4429C92.5292 97.2205 92.514 96.9219 92.5095 96.5469C92.5051 96.1719 92.593 95.6787 92.7733 95.0671C92.9652 94.4437 93.2922 93.8539 93.7544 93.2976C94.2166 92.7413 94.7622 92.3012 95.3913 91.9773C96.0203 91.6535 96.6922 91.4873 97.407 91.4789C98.0866 91.4708 98.8511 91.6962 99.7003 92.1549C100.101 92.3728 100.421 92.621 100.658 92.8995C100.896 93.1779 101.017 93.4636 101.02 93.7566C101.021 93.8386 101.016 93.9207 101.005 94.0029C100.99 94.718 100.65 95.1732 99.9844 95.3686C99.6924 95.4541 99.3531 95.4991 98.9664 95.5037L96.4341 95.4281C95.5904 95.4381 94.9481 95.6274 94.5071 95.9959C94.2516 96.1981 94.0735 96.4991 93.9728 96.8988C94.2784 97.9616 95.0346 98.4859 96.2416 98.4716ZM99.306 93.0034C99.046 92.8189 98.7749 92.6874 98.4927 92.6087C98.2105 92.53 97.9756 92.4917 97.7882 92.494C97.6007 92.4962 97.2968 92.5642 96.8764 92.6981C96.456 92.8203 96.0826 92.9595 95.7563 93.1157C94.9522 93.5002 94.5526 93.8976 94.5574 94.3077C95.4958 94.3786 96.1994 94.4113 96.6681 94.4058C97.9688 94.3904 98.8463 94.2687 99.3007 94.0406C99.5805 93.9201 99.7194 93.772 99.7173 93.5962C99.7148 93.3853 99.5777 93.1877 99.306 93.0034ZM108.726 95.0191C110.015 95.0038 110.663 95.3243 110.671 95.9805C110.677 96.4727 110.326 97.0511 109.619 97.7157C108.564 98.7009 107.138 99.4971 105.34 100.104C105.258 100.105 105.164 100.024 105.056 99.8616C104.96 99.6987 104.883 99.5766 104.823 99.4952C104.775 99.402 104.739 99.3439 104.716 99.3207C106.058 98.8595 107.159 98.3074 108.019 97.6643C108.6 97.2356 108.888 96.8864 108.885 96.6169C108.882 96.3474 108.535 96.2167 107.843 96.2249C107.152 96.2331 106.14 96.4091 104.808 96.753C104.199 96.7368 103.669 96.5262 103.219 96.1214C102.828 95.7627 102.63 95.4017 102.626 95.0385C102.621 94.6635 102.723 94.3224 102.93 94.0153C103.137 93.6964 103.415 93.4001 103.763 93.1264C104.112 92.8528 104.519 92.6019 104.985 92.3737C106.127 91.8093 107.313 91.5199 108.543 91.5053C108.907 91.5011 109.259 91.532 109.599 91.5983C109.881 91.595 110.046 91.7161 110.096 91.9616C110.146 92.2072 110.174 92.6111 110.18 93.1736C109.485 92.8654 108.704 92.7164 107.837 92.7267C106.759 92.7394 105.871 92.9667 105.173 93.4086C104.452 93.8391 104.083 94.3942 104.068 95.0742C104.072 95.4023 104.314 95.5635 104.794 95.5578L106.076 95.402C107.174 95.1546 108.058 95.027 108.726 95.0191Z" fill="#FFD335"/>
<path d="M22.0962 56.9121L21.9735 52.4835C21.9652 51.7805 21.9736 51.1631 21.9985 50.6315C22.0389 50.0842 22.1529 49.8094 22.3404 49.8071L23.9106 49.7886C23.9135 50.0385 23.9427 50.5226 23.998 51.2408C24.0534 51.9589 24.0933 52.685 24.1176 53.4192C24.1417 54.1377 24.1568 54.7547 24.1629 55.2703C24.169 55.7859 24.1691 56.4578 24.1633 57.2861C24.1573 58.0987 24.0898 58.998 23.9608 59.984C23.6595 62.2533 23.0511 63.6591 22.1356 64.2012C21.4371 64.6001 20.3211 64.7071 18.7876 64.5221C17.2382 64.3216 15.8736 63.8846 14.6937 63.211C13.3093 62.4305 12.5092 61.5024 12.2934 60.4267C12.2891 60.0674 12.4026 59.7535 12.6338 59.4851C13.0498 58.9802 13.4296 58.7256 13.7733 58.7216C13.7995 59.612 14.0503 60.3434 14.5259 60.916C15.6351 62.2154 17.4005 62.8508 19.8222 62.8222C20.2285 62.8174 20.6266 62.7892 21.0166 62.7378C21.7774 62.3225 22.1373 60.3806 22.0962 56.9121ZM26.4811 60.0714C26.4593 58.2278 27.2386 56.7341 28.8189 55.5903C30.0739 54.6848 31.5908 54.1277 33.3698 53.9192C33.4635 53.9181 33.6822 53.9155 34.026 53.9114C34.3697 53.9073 34.8318 54.0034 35.4123 54.1997C36.6986 54.622 37.5827 55.3851 38.0645 56.4888C38.2572 56.9241 38.3554 57.2979 38.3591 57.6104C38.3626 57.9073 38.3573 58.1183 38.3431 58.2435C38.3662 60.1964 37.6423 61.7442 36.1713 62.8867C34.8086 63.9341 33.0961 64.47 31.0337 64.4944C29.5495 64.512 28.4205 64.1815 27.6468 63.5031C26.8887 62.8246 26.5001 61.6806 26.4811 60.0714ZM28.1048 60.6147C28.1163 61.5834 28.3818 62.2366 28.9015 62.5742C29.2951 62.8195 29.9527 62.9368 30.8745 62.9259C31.7964 62.915 32.608 62.835 33.3094 62.6861C34.0108 62.5372 34.6329 62.2876 35.1757 61.9374C36.3386 61.1736 36.9107 60.0027 36.892 58.4247C36.881 57.4873 36.6219 56.7246 36.1149 56.1369C35.5605 55.5027 34.838 55.1909 33.9475 55.2015C33.3394 55.3181 32.7237 55.4425 32.1002 55.5749C31.4923 55.7071 30.9171 55.9561 30.3745 56.3219C29.1962 57.1016 28.4396 58.5325 28.1048 60.6147ZM41.9058 53.326C42.1435 56.2452 42.3554 59.6258 42.5415 63.4676C42.4534 63.9531 42.0813 64.1997 41.4251 64.2074C41.2533 64.2095 41.0732 64.1803 40.885 64.1201C40.7122 64.044 40.6016 63.9437 40.5533 63.8193L40.4294 53.3434L41.9058 53.326ZM39.6886 50.1645C39.6821 49.6176 39.9992 49.3404 40.6398 49.3329C41.0616 49.3279 41.4065 49.4175 41.6743 49.6019C41.7232 49.7732 41.7486 49.9448 41.7507 50.1166C41.7525 50.2729 41.6919 50.4299 41.5687 50.5876C41.4456 50.7453 41.259 50.8256 41.0091 50.8286C40.7591 50.8316 40.5084 50.7798 40.2572 50.6734C40.0057 50.5514 39.8162 50.3817 39.6886 50.1645ZM53.1187 59.0766C53.0967 57.2173 52.979 55.8514 52.7655 54.9789C52.8877 54.7431 52.6989 54.6281 52.1989 54.634C51.6677 54.6403 50.9818 54.7812 50.1413 55.0568C49.3007 55.3324 48.6164 55.6061 48.0883 55.878C46.83 56.5023 46.1339 57.1044 46.0002 57.6841L46.0756 64.0587L44.5054 64.0772C44.296 63.5484 44.1768 62.0575 44.1478 59.6046C44.1219 57.4172 44.1419 55.8075 44.2078 54.7754C44.2894 53.7431 44.3528 53.1564 44.398 53.0152C44.801 52.7448 45.1276 52.6081 45.3776 52.6052C45.7682 52.6006 45.9689 53.0592 45.9798 53.981C45.9841 54.3403 45.9648 54.6921 45.922 55.0364C45.8946 55.3649 45.8817 55.5916 45.8831 55.7166C48.3922 53.8274 50.342 52.8746 51.7326 52.8582C53.3106 52.8395 54.224 54.1022 54.4729 56.6463C54.5771 57.5358 54.6386 58.7695 54.6573 60.3475L54.6557 62.1992C54.6639 62.8867 54.6874 63.5505 54.7262 64.1907C54.571 64.2863 54.4466 64.3347 54.3529 64.3358C54.3058 64.3207 54.204 64.2985 54.0474 64.2691C53.8908 64.2397 53.6874 64.2186 53.4372 64.206C53.2736 63.5829 53.1802 62.9511 53.157 62.3107C53.1336 61.6547 53.1186 61.0533 53.1122 60.5064L53.1187 59.0766ZM75.4363 57.4766C75.1061 58.6212 74.8295 59.6792 74.6066 60.6507C74.3994 61.6219 74.1901 62.4292 73.979 63.0723C73.6462 63.9982 73.261 64.4637 72.8235 64.4689C72.5892 64.4717 72.3223 64.3654 72.0228 64.1502C71.2951 63.3931 70.2595 61.71 68.916 59.1007C67.6046 56.5535 66.945 54.9596 66.9375 54.3191C66.9341 54.0378 67.018 53.8649 67.1892 53.8004C67.3601 53.7203 67.5553 53.7101 67.7748 53.77C68.3078 53.92 68.6857 54.1577 68.9083 54.4833C69.0195 54.6382 69.1555 54.91 69.3164 55.2988L69.9195 56.7449C70.5951 58.3776 71.2612 59.8699 71.9179 61.2216C72.2553 60.6863 72.5753 59.995 72.8778 59.1476L73.5805 57.1235C74.1845 55.3506 74.7364 54.4456 75.236 54.4084C75.6236 54.1538 76.8118 55.5227 78.8004 58.515C79.6436 59.7863 80.1683 60.5458 80.3743 60.7934C80.515 60.7917 80.6735 60.3211 80.8499 59.3814C81.0419 58.4416 81.2044 57.6505 81.3375 57.0083C81.4859 56.3503 81.6662 55.7387 81.8783 55.1737C82.3784 53.8551 82.9643 53.1919 83.6361 53.184C83.8549 53.1814 84.0042 53.2578 84.0842 53.4131C84.1796 53.5526 84.2279 53.6692 84.229 53.7629C84.2301 53.8567 84.2309 53.927 84.2315 53.9739C84.0503 54.5073 83.8622 55.1189 83.6672 55.8088C83.472 56.483 83.2615 57.1809 83.0357 57.9023C82.8252 58.608 82.607 59.3138 82.381 60.0196C82.1704 60.7096 81.959 61.3372 81.7469 61.9022C81.2458 63.127 80.8239 63.7883 80.4812 63.8861C80.2171 64.0142 79.7839 63.7146 79.1815 62.9873C78.9118 62.6468 78.6258 62.2439 78.3234 61.7787C78.021 61.3135 77.7028 60.8328 77.3687 60.3367C76.5571 59.0962 75.913 58.1429 75.4363 57.4766ZM95.6563 59.8157C94.5064 61.6732 92.9575 62.8322 91.0096 63.2928C90.5577 63.3919 90.1442 63.4437 89.7692 63.4481C89.4099 63.4523 89.1052 63.4559 88.8552 63.4589C88.6207 63.4461 88.3546 63.4101 88.057 63.3511C87.7594 63.2922 87.4848 63.1938 87.2331 63.0562C86.6512 62.7349 86.3567 62.2774 86.3497 61.6837C86.2838 61.4032 86.2489 61.0911 86.2448 60.7474C86.2406 60.388 86.3132 59.9184 86.4626 59.3385C86.612 58.7585 86.8858 58.1303 87.2841 57.4536C87.698 56.7768 88.1985 56.1537 88.7855 55.5842C90.0058 54.3822 91.3325 53.6008 92.7659 53.2401C93.1866 53.1413 93.5688 53.0899 93.9126 53.0859C94.2719 53.0816 94.5925 53.1013 94.8743 53.1448C95.7805 53.1341 96.3971 53.744 96.7242 54.9746C96.9365 55.7534 97.0666 56.8457 97.1145 58.2515C97.1778 59.6415 97.2296 60.719 97.2699 61.4842C97.3257 62.2336 97.4354 62.9199 97.599 63.543L96.2163 63.5593C96.1488 63.1382 96.0975 62.7638 96.0624 62.4361C96.0272 62.1084 95.9924 61.8041 95.9578 61.5232C95.8719 60.8679 95.7714 60.2988 95.6563 59.8157ZM95.5196 56.1843C95.5089 55.2781 95.0583 54.8302 94.1677 54.8408C94.0582 54.8264 93.9487 54.8199 93.8393 54.8212C92.6988 54.8347 91.5022 55.3958 90.2496 56.5044C89.6618 57.0114 89.1607 57.5799 88.7462 58.2098C88.1318 59.1078 87.8288 59.9083 87.8371 60.6114C87.848 61.5332 88.3857 62.0737 89.4501 62.233C90.8559 62.1852 92.192 61.5287 93.4584 60.2636C93.9987 59.7103 94.4448 59.1112 94.7966 58.4664C95.2864 57.6012 95.5274 56.8405 95.5196 56.1843ZM101.161 52.6251C101.399 55.5444 101.611 58.9249 101.797 62.7667C101.709 63.2522 101.337 63.4988 100.68 63.5065C100.508 63.5086 100.328 63.4795 100.14 63.4192C99.9674 63.3431 99.8569 63.2428 99.8085 63.1184L99.6846 52.6426L101.161 52.6251ZM98.9438 49.4636C98.9374 48.9168 99.2544 48.6396 99.895 48.632C100.317 48.627 100.662 48.7167 100.93 48.901C100.978 49.0723 101.004 49.2439 101.006 49.4158C101.008 49.572 100.947 49.729 100.824 49.8867C100.701 50.0444 100.514 50.1248 100.264 50.1277C100.014 50.1307 99.7637 50.0789 99.5124 49.9725C99.2609 49.8505 99.0714 49.6809 98.9438 49.4636ZM106.807 61.3246L106.809 57.5743C106.802 56.9806 106.742 56.4734 106.627 56.0529L102.995 56.0958L102.929 54.4793L106.444 54.4377L106.373 48.3913C106.418 48.2501 106.51 48.1084 106.649 47.9661C106.865 47.7448 107.043 47.6333 107.184 47.6316C107.34 47.6298 107.473 47.6438 107.583 47.6738C107.693 47.7038 107.811 47.8117 107.938 47.9977C108.201 49.026 108.344 50.5791 108.369 52.657C108.375 53.1726 108.404 53.6801 108.457 54.1795C108.956 54.1111 109.456 54.074 109.956 54.0681C109.956 54.0681 110.362 54.0633 111.174 54.0536C111.471 54.0501 111.744 54.0313 111.994 53.9971L111.944 55.6853L108.521 55.632L108.734 63.716C108.454 63.8443 108.213 63.9097 108.009 63.9121C107.228 63.9213 106.827 63.0588 106.807 61.3246ZM113.791 54.3977C113.75 53.5544 113.71 52.8048 113.671 52.149C113.632 51.4775 113.603 50.9856 113.583 50.6734C113.579 50.3453 113.445 49.5577 113.18 48.3108C113.319 48.1216 113.449 47.9404 113.572 47.767C113.711 47.5935 113.905 47.5053 114.155 47.5023C114.702 47.4958 115.151 49.7954 115.502 54.4009C115.69 57.0708 115.8 59.7415 115.832 62.4132C115.84 63.1319 115.344 63.4972 114.344 63.509L114.157 63.4878C114.147 62.6753 114.111 61.6366 114.05 60.3716C113.988 59.1067 113.936 58.0056 113.893 57.0686C113.867 56.1313 113.833 55.241 113.791 54.3977ZM119.709 52.4057C119.947 55.325 120.159 58.7055 120.345 62.5473C120.257 63.0328 119.885 63.2794 119.228 63.2872C119.057 63.2892 118.877 63.2601 118.688 63.1998C118.516 63.1237 118.405 63.0234 118.357 62.899L118.233 52.4232L119.709 52.4057ZM117.492 49.2442C117.485 48.6974 117.803 48.4202 118.443 48.4126C118.865 48.4076 119.21 48.4973 119.478 48.6816C119.526 48.8529 119.552 49.0245 119.554 49.1964C119.556 49.3526 119.495 49.5096 119.372 49.6673C119.249 49.825 119.062 49.9054 118.812 49.9083C118.562 49.9113 118.312 49.8596 118.06 49.7532C117.809 49.6311 117.619 49.4615 117.492 49.2442ZM129.786 57.2556C131.505 57.2353 132.369 57.6626 132.38 58.5375C132.388 59.1937 131.92 59.9649 130.977 60.8512C129.571 62.1648 127.669 63.2264 125.272 64.036C125.163 64.0373 125.037 63.9294 124.894 63.7124C124.766 63.4951 124.662 63.3323 124.583 63.2238C124.519 63.0996 124.471 63.022 124.44 62.9911C126.229 62.3762 127.697 61.64 128.844 60.7826C129.618 60.2109 130.003 59.7454 129.999 59.3861C129.995 59.0267 129.532 58.8525 128.61 58.8634C127.688 58.8743 126.339 59.109 124.563 59.5676C123.75 59.5459 123.044 59.2652 122.444 58.7254C121.922 58.2471 121.659 57.7658 121.653 57.2815C121.647 56.7815 121.783 56.3268 122.059 55.9172C122.335 55.4921 122.706 55.097 123.17 54.7321C123.634 54.3672 124.177 54.0327 124.799 53.7284C126.321 52.976 127.903 52.5901 129.543 52.5707C130.028 52.5649 130.497 52.6063 130.951 52.6946C131.326 52.6902 131.547 52.8517 131.613 53.179C131.68 53.5064 131.717 54.0451 131.726 54.795C130.799 54.3841 129.758 54.1854 128.602 54.1991C127.164 54.2161 125.98 54.5192 125.05 55.1084C124.088 55.6823 123.596 56.4225 123.576 57.3291C123.581 57.7665 123.904 57.9815 124.544 57.9739L126.253 57.7662C127.718 57.4363 128.896 57.2662 129.786 57.2556ZM137.881 60.957L137.883 57.2067C137.876 56.613 137.816 56.1059 137.701 55.6853L134.069 55.7283L134.003 54.1118L137.518 54.0702L137.447 48.0237C137.492 47.8826 137.584 47.7409 137.723 47.5986C137.939 47.3773 138.117 47.2658 138.258 47.2641C138.414 47.2622 138.547 47.2763 138.657 47.3063C138.767 47.3362 138.885 47.4442 139.012 47.6302C139.275 48.6584 139.418 50.2115 139.443 52.2895C139.449 52.8051 139.478 53.3126 139.531 53.812C140.03 53.7436 140.53 53.7064 141.03 53.7005C141.03 53.7005 141.436 53.6957 142.248 53.6861C142.545 53.6826 142.818 53.6637 143.068 53.6295L143.018 55.3177L139.595 55.2645L139.808 63.3485C139.528 63.4768 139.287 63.5421 139.083 63.5445C138.302 63.5538 137.901 62.6913 137.881 60.957Z" fill="#AC47FF"/>
</svg>
