<svg width="305" height="237" viewBox="0 0 305 237" fill="none" xmlns="http://www.w3.org/2000/svg">
<path d="M0.231308 47.6983C-0.121944 48.1228 -0.064156 48.7533 0.360381 49.1066L7.27861 54.8632C7.70315 55.2164 8.33367 55.1586 8.68692 54.7341C9.04017 54.3095 8.98238 53.679 8.55785 53.3258L2.40831 48.2088L7.52526 42.0593C7.87852 41.6347 7.82073 41.0042 7.39619 40.651C6.97165 40.2977 6.34113 40.3555 5.98788 40.78L0.231308 47.6983ZM106.073 58.6396L105.886 59.6219L106.073 58.6396ZM167.122 142.526C167.188 143.074 167.687 143.464 168.235 143.397C168.783 143.331 169.174 142.832 169.107 142.284L167.122 142.526ZM1.09127 49.3337C14.5095 48.1039 33.7848 47.9368 48.0894 51.3764C55.2651 53.1018 61.0059 55.6933 64.1955 59.3435C65.7706 61.1462 66.7238 63.2062 66.9351 65.5796C67.1474 67.9649 66.6167 70.7414 65.0953 73.9715L66.9046 74.8237C68.5353 71.3615 69.1787 68.2273 68.9272 65.4023C68.6746 62.5655 67.526 60.1156 65.7016 58.0276C62.0919 53.8965 55.8422 51.1836 48.557 49.4318C33.9395 45.917 14.4107 46.1046 0.908732 47.3421L1.09127 49.3337ZM65.0953 73.9715C61.8483 80.8654 58.6404 85.4486 55.7233 88.2654C52.7979 91.0903 50.2557 92.0573 48.3041 91.9585C46.3934 91.8618 44.8071 90.7298 43.7638 88.7844C42.7118 86.8228 42.2464 84.071 42.6711 80.9616C43.5164 74.7736 47.8802 67.3085 57.7285 62.4379C67.59 57.5607 83.0012 55.2685 105.886 59.6219L106.26 57.6572C83.1132 53.2539 67.2218 55.5115 56.8419 60.6451C46.4487 65.7853 41.632 73.7918 40.6895 80.6909C40.2204 84.1251 40.7093 87.3207 42.0012 89.7297C43.3018 92.1548 45.4491 93.8165 48.203 93.9559C50.9161 94.0933 53.9697 92.7389 57.1126 89.7041C60.2638 86.6613 63.5968 81.8466 66.9046 74.8237L65.0953 73.9715ZM105.886 59.6219C136.591 65.4629 150.316 74.7419 157.208 88.0283C160.679 94.7223 162.461 102.514 163.721 111.583C164.989 120.713 165.701 130.855 167.122 142.526L169.107 142.284C167.711 130.819 166.964 120.389 165.702 111.307C164.432 102.165 162.612 94.1052 158.983 87.1075C151.671 73.0101 137.193 63.5416 106.26 57.6572L105.886 59.6219Z" fill="#FFD335"/>
<path d="M117.234 164.417C117.234 164.95 117.278 165.707 117.365 166.688C117.45 167.653 117.702 168.815 118.121 170.174L116.359 171.271L114.956 164.995C114.404 164.966 114.115 164.803 114.089 164.507C114.07 164.29 114.172 164.022 114.394 163.704C114.633 163.385 114.806 163.126 114.914 162.928C115.021 162.715 115.071 162.491 115.066 162.256C115.075 162.004 115.076 161.565 115.067 160.938C115.059 160.312 115.039 159.647 115.008 158.944C114.993 158.239 114.973 157.574 114.949 156.949C114.94 156.322 114.925 155.884 114.903 155.635C115.215 155.263 115.446 155.03 115.594 154.939C115.966 154.702 116.237 154.756 116.409 155.102L116.92 162.468C120.765 162.128 123.054 161.674 123.788 161.107L123.134 153.73C123.204 153.457 123.628 153.286 124.407 153.217C124.578 153.202 124.718 153.197 124.829 153.203C124.855 153.499 124.903 153.949 124.972 154.555C125.056 155.144 125.139 155.819 125.222 156.58C125.321 157.34 125.424 158.146 125.531 159C125.636 159.837 125.738 160.636 125.837 161.396C126.024 162.979 126.167 164.143 126.264 164.888C126.538 166.746 127.053 168.222 127.809 169.315C127.134 169.658 126.376 169.866 125.535 169.94C124.662 168.23 124.075 165.937 123.773 163.061C122.743 163.121 122.041 163.168 121.667 163.201C121.294 163.234 120.876 163.294 120.413 163.382C119.454 163.53 118.394 163.875 117.234 164.417ZM134.4 167.885C135.769 167.763 137.776 166.958 140.421 165.469C140.592 165.454 140.738 165.503 140.858 165.618C140.976 165.718 141.042 165.845 141.056 166.001C140.527 167.114 139.41 168.045 137.703 168.792C135.997 169.539 134.364 169.786 132.804 169.532C131.037 169.233 129.9 168.354 129.394 166.893C129.337 166.6 129.286 166.204 129.242 165.706C129.198 165.208 129.264 164.543 129.442 163.712C129.633 162.864 130.008 162.046 130.566 161.26C131.123 160.473 131.804 159.832 132.607 159.338C133.41 158.843 134.287 158.553 135.236 158.469C136.139 158.389 137.178 158.611 138.354 159.134C138.909 159.383 139.359 159.681 139.703 160.026C140.048 160.372 140.237 160.74 140.272 161.129C140.281 161.238 140.283 161.348 140.277 161.458C140.33 162.41 139.924 163.05 139.059 163.378C138.68 163.521 138.233 163.616 137.719 163.661L134.345 163.819C133.225 163.918 132.39 164.235 131.841 164.77C131.522 165.065 131.316 165.483 131.223 166.025C131.738 167.407 132.796 168.027 134.4 167.885ZM137.916 160.302C137.552 160.084 137.178 159.936 136.795 159.861C136.411 159.785 136.095 159.758 135.846 159.78C135.597 159.802 135.2 159.923 134.655 160.144C134.108 160.35 133.626 160.573 133.208 160.814C132.179 161.407 131.688 161.976 131.736 162.521C132.991 162.519 133.93 162.491 134.552 162.436C136.28 162.283 137.434 162.031 138.015 161.682C138.374 161.493 138.544 161.282 138.523 161.049C138.499 160.769 138.296 160.52 137.916 160.302ZM148.899 177.118C148.637 177.878 148.281 178.278 147.829 178.318C147.611 178.338 147.439 178.251 147.312 178.058C147.202 177.88 147.182 177.654 147.252 177.381C147.466 175.903 147.81 174.21 148.284 172.301C148.774 170.391 149.1 169.108 149.261 168.45C148.668 167.954 147.715 166.94 146.403 165.409C143.709 162.26 142.347 160.522 142.318 160.195C142.316 160.179 142.323 160.163 142.337 160.146L143.146 159.18C144.476 160.208 146.25 161.996 148.468 164.544C149.026 165.185 149.474 165.726 149.811 166.166C150.08 165.484 150.288 164.901 150.433 164.417C150.577 163.918 150.691 163.524 150.775 163.234C150.874 162.927 151.002 162.523 151.162 162.023C151.577 160.684 152.163 158.978 152.92 156.903C153.055 156.828 153.2 156.784 153.355 156.77C153.745 156.735 154.034 156.812 154.223 156.999C154.292 157.071 154.331 157.162 154.341 157.271C154.349 157.364 154.342 157.459 154.319 157.555L148.899 177.118ZM176.636 154.237L174.554 154.374C174.009 154.423 173.384 154.533 172.677 154.705C172.7 155.315 172.707 156.107 172.7 157.08C172.676 160.533 172.71 162.773 172.801 163.8C172.89 164.812 172.969 165.526 173.038 165.944L170.858 166.302L170.56 154.705L165.562 154.865C165.438 154.876 165.328 154.784 165.232 154.588C165.152 154.392 165.104 154.208 165.089 154.036C165.074 153.865 165.127 153.672 165.249 153.457C165.371 153.243 165.526 153.127 165.713 153.111C166.853 153.057 168.004 153.033 169.165 153.04C171.314 153.038 173.136 152.971 174.63 152.838L176.073 152.663C177.206 152.531 178.324 152.307 179.425 151.99C179.678 152.014 179.868 152.39 179.995 153.116C180.025 153.27 180.044 153.394 180.052 153.487C179.051 153.874 177.912 154.124 176.636 154.237ZM193.159 163.997C193.042 164.274 192.688 164.438 192.097 164.491C191.521 164.542 191.214 164.357 191.177 163.937C191.014 162.1 190.864 160.843 190.725 160.165C190.451 158.668 190.084 157.885 189.623 157.816C188.483 157.697 187.555 157.67 186.839 157.733C186.139 157.795 185.575 158.065 185.146 158.542C184.732 159.002 184.445 159.741 184.284 160.759C184.137 161.761 184.089 163.161 184.138 164.96L182.341 165.12C182.293 164.23 182.236 163.404 182.168 162.641C182.101 161.878 182.005 160.977 181.882 159.937C181.757 158.881 181.616 157.733 181.459 156.492C181.254 155.067 181.108 153.864 181.021 152.884C180.933 151.888 180.915 150.972 180.966 150.136C181.096 149.826 181.308 149.658 181.604 149.632C181.962 149.6 182.254 149.708 182.48 149.955C182.704 150.186 182.833 150.402 182.866 150.603L183.091 154.465C183.219 155.913 183.385 156.988 183.589 157.692C184.907 156.634 186.313 156.038 187.807 155.906C188.289 155.863 188.806 155.857 189.358 155.886C190.579 156.39 191.399 156.968 191.818 157.621C192.02 157.964 192.163 158.336 192.246 158.736C192.328 159.137 192.4 159.593 192.461 160.105C192.712 161.872 192.944 163.169 193.159 163.997ZM199.148 162.148C200.517 162.027 202.524 161.222 205.169 159.733C205.34 159.717 205.486 159.767 205.606 159.882C205.724 159.981 205.79 160.109 205.804 160.265C205.275 161.378 204.158 162.308 202.451 163.056C200.745 163.803 199.112 164.05 197.552 163.796C195.785 163.497 194.648 162.618 194.142 161.157C194.085 160.864 194.034 160.468 193.99 159.97C193.946 159.472 194.012 158.807 194.19 157.976C194.381 157.128 194.756 156.31 195.314 155.523C195.871 154.737 196.552 154.096 197.355 153.601C198.158 153.107 199.035 152.817 199.984 152.733C200.887 152.653 201.926 152.875 203.102 153.398C203.657 153.647 204.107 153.944 204.451 154.29C204.796 154.636 204.985 155.004 205.02 155.393C205.029 155.502 205.031 155.612 205.025 155.722C205.078 156.674 204.672 157.314 203.807 157.642C203.428 157.785 202.981 157.879 202.467 157.925L199.093 158.083C197.973 158.182 197.138 158.499 196.589 159.034C196.27 159.329 196.064 159.747 195.971 160.289C196.486 161.671 197.544 162.29 199.148 162.148ZM202.664 154.566C202.3 154.348 201.926 154.2 201.543 154.125C201.159 154.049 200.843 154.022 200.594 154.044C200.345 154.066 199.948 154.187 199.403 154.408C198.856 154.613 198.374 154.837 197.956 155.078C196.927 155.671 196.436 156.24 196.484 156.784C197.739 156.783 198.678 156.755 199.3 156.7C201.028 156.547 202.182 156.295 202.763 155.946C203.122 155.757 203.292 155.546 203.271 155.313C203.246 155.032 203.044 154.784 202.664 154.566ZM218.65 153.48C217.954 153.071 217.093 152.912 216.066 153.003C215.101 153.088 214.222 153.346 213.429 153.777C211.93 154.569 210.939 155.504 210.454 156.582C210.246 157.071 210.166 157.58 210.213 158.109C210.221 158.203 210.244 158.467 210.283 158.903C210.32 159.323 210.449 159.892 210.67 160.61C210.889 161.312 211.031 162.037 211.097 162.784C210.772 162.828 210.511 162.891 210.314 162.971C210.117 163.051 209.949 163.097 209.809 163.11C209.669 163.122 209.539 163.071 209.419 162.956C209.314 162.84 209.184 162.608 209.028 162.261C209.004 162.169 208.949 161.908 208.864 161.476C208.779 161.044 208.669 160.521 208.536 159.905C208.419 159.288 208.281 158.618 208.123 157.894C207.979 157.154 207.836 156.43 207.695 155.721C207.386 154.179 207.152 153.047 206.994 152.324C206.961 151.95 207.217 151.739 207.762 151.691C208.089 151.662 208.358 151.78 208.569 152.043C208.78 152.291 208.955 152.589 209.096 152.938C209.235 153.27 209.335 153.607 209.397 153.946C209.474 154.285 209.534 154.522 209.578 154.66C211.469 152.641 213.941 151.497 216.991 151.226C217.334 151.196 217.692 151.172 218.067 151.155C218.159 151.131 218.275 151.113 218.415 151.1C218.555 151.088 218.704 151.169 218.86 151.343C219.051 151.546 219.16 151.803 219.187 152.114C219.256 152.892 219.077 153.348 218.65 153.48ZM226.228 159.749C227.598 159.628 229.605 158.823 232.249 157.334C232.42 157.318 232.566 157.368 232.686 157.483C232.805 157.582 232.871 157.71 232.885 157.865C232.356 158.979 231.238 159.909 229.532 160.657C227.826 161.404 226.193 161.65 224.633 161.397C222.865 161.098 221.728 160.219 221.223 158.757C221.165 158.465 221.114 158.069 221.07 157.571C221.026 157.073 221.093 156.408 221.27 155.577C221.462 154.728 221.836 153.911 222.394 153.124C222.952 152.338 223.632 151.697 224.436 151.202C225.239 150.708 226.115 150.418 227.064 150.334C227.967 150.254 229.006 150.476 230.182 150.999C230.738 151.248 231.187 151.545 231.532 151.891C231.876 152.237 232.066 152.605 232.1 152.994C232.11 153.103 232.112 153.212 232.106 153.323C232.159 154.275 231.753 154.915 230.888 155.242C230.508 155.386 230.062 155.48 229.548 155.526L226.174 155.684C225.053 155.783 224.218 156.1 223.67 156.635C223.351 156.93 223.145 157.348 223.052 157.89C223.566 159.271 224.625 159.891 226.228 159.749ZM229.745 152.167C229.38 151.949 229.006 151.801 228.623 151.725C228.24 151.65 227.924 151.623 227.675 151.645C227.426 151.667 227.029 151.788 226.483 152.009C225.937 152.214 225.455 152.437 225.037 152.678C224.007 153.272 223.516 153.841 223.565 154.385C224.819 154.384 225.758 154.356 226.381 154.301C228.108 154.147 229.262 153.896 229.843 153.547C230.203 153.358 230.372 153.147 230.352 152.913C230.327 152.633 230.125 152.385 229.745 152.167ZM235.724 158.979C236.378 158.921 236.78 158.948 236.931 159.06C237.098 159.171 237.187 159.296 237.2 159.436C237.084 160.074 236.743 160.48 236.178 160.656C236.086 160.68 235.986 160.697 235.877 160.706C235.768 160.716 235.625 160.697 235.448 160.65C235.287 160.602 235.161 160.503 235.069 160.354C234.864 159.98 235.082 159.522 235.724 158.979ZM235.096 139.411C235.039 139.824 235.216 142.357 235.628 147.011C236.039 151.649 236.159 154.328 235.988 155.049L234.423 155.188C234.281 153.585 234.166 151.572 234.077 149.148C233.879 144.444 233.708 141.275 233.564 139.641L235.096 139.411ZM260.847 185.184L260.562 181.445C260.51 180.853 260.411 180.352 260.265 179.942L256.646 180.262L256.457 178.656L259.958 178.345L259.425 172.322C259.459 172.178 259.54 172.029 259.668 171.877C259.866 171.64 260.036 171.515 260.176 171.503C260.331 171.489 260.465 171.493 260.577 171.514C260.689 171.536 260.815 171.634 260.956 171.81C261.296 172.815 261.558 174.353 261.741 176.423C261.787 176.936 261.855 177.44 261.946 177.934C262.438 177.828 262.933 177.752 263.431 177.708C263.431 177.708 263.836 177.672 264.645 177.601C264.941 177.574 265.212 177.535 265.458 177.482L265.537 179.169L262.12 179.377L262.951 187.421C262.682 187.571 262.446 187.654 262.244 187.672C261.465 187.741 261 186.912 260.847 185.184ZM267.854 182.352C267.691 180.515 268.354 178.966 269.842 177.705C271.025 176.706 272.494 176.035 274.252 175.691C274.346 175.682 274.563 175.663 274.906 175.633C275.248 175.602 275.716 175.663 276.31 175.814C277.625 176.137 278.565 176.83 279.13 177.894C279.355 178.313 279.482 178.678 279.509 178.99C279.535 179.285 279.546 179.496 279.542 179.622C279.714 181.568 279.111 183.166 277.731 184.418C276.453 185.566 274.786 186.232 272.732 186.414C271.253 186.545 270.102 186.301 269.279 185.684C268.471 185.066 267.996 183.955 267.854 182.352ZM269.515 182.769C269.6 183.734 269.915 184.365 270.459 184.662C270.87 184.877 271.535 184.943 272.453 184.862C273.371 184.781 274.174 184.639 274.862 184.437C275.55 184.235 276.151 183.938 276.666 183.547C277.767 182.697 278.248 181.486 278.109 179.914C278.026 178.98 277.709 178.239 277.159 177.692C276.558 177.102 275.813 176.847 274.926 176.925C274.329 177.088 273.724 177.259 273.113 177.439C272.517 177.617 271.962 177.909 271.449 178.315C270.334 179.183 269.689 180.668 269.515 182.769ZM85.3325 236.153L85.0036 236.158C84.5367 236.2 84.0414 236.275 83.5177 236.384L82.6306 236.463C81.6967 236.545 80.9494 236.431 80.3885 236.12C80.0918 235.958 79.9269 235.69 79.8938 235.317L85.2406 234.584C86.8863 234.392 87.6326 233.431 87.4795 231.704C87.474 231.641 87.4644 231.533 87.4506 231.377C87.4382 231.237 87.4099 230.918 87.3658 230.42L86.8165 222.892C86.7931 222.627 86.766 222.41 86.7353 222.24C84.4221 224.814 82.0982 226.204 79.7636 226.411C79.5613 226.429 79.3583 226.439 79.1545 226.441C78.1118 226.534 77.5497 226.121 77.4683 225.202C77.436 224.484 77.5765 223.679 77.8898 222.789C78.2017 221.883 78.626 221.006 79.1626 220.158C79.7135 219.294 80.3498 218.508 81.0714 217.801C82.183 216.714 83.2991 216.121 84.4197 216.022C85.7271 215.906 86.8623 216.504 87.8255 217.814C88.4027 221.496 88.7602 224.116 88.8981 225.672C89.036 227.229 89.1257 228.507 89.1673 229.507C89.2088 230.507 89.1806 231.428 89.0824 232.268C88.9999 233.106 88.8477 233.779 88.6258 234.285C88.404 234.79 88.1237 235.168 87.7851 235.418C87.224 235.813 86.4064 236.058 85.3325 236.153ZM85.1076 217.679C84.9153 217.633 84.648 217.625 84.3056 217.656C83.9787 217.685 83.5631 217.863 83.0588 218.19C82.5544 218.517 82.081 218.927 81.6385 219.421C81.1946 219.9 80.7867 220.43 80.4147 221.012C79.5061 222.442 79.0869 223.553 79.1572 224.347C79.1793 224.596 79.2659 224.777 79.417 224.889C79.5315 224.941 79.6665 224.961 79.8222 224.947C79.9934 224.932 80.2325 224.887 80.5397 224.813C80.8454 224.723 81.2533 224.546 81.7631 224.281C82.2872 223.999 82.8213 223.654 83.3655 223.245C83.9096 222.836 84.3958 222.393 84.8242 221.915C85.8254 220.823 86.284 219.802 86.1999 218.852C86.1488 218.277 85.7848 217.885 85.1076 217.679ZM95.123 223.568C96.4926 223.446 98.4997 222.641 101.144 221.152C101.315 221.137 101.461 221.187 101.581 221.302C101.7 221.401 101.766 221.528 101.78 221.684C101.251 222.797 100.133 223.728 98.4269 224.475C96.7205 225.222 95.0875 225.469 93.5277 225.215C91.7601 224.917 90.6234 224.037 90.1175 222.576C90.0601 222.283 90.0094 221.887 89.9653 221.389C89.9212 220.891 89.9878 220.227 90.1651 219.395C90.3566 218.547 90.7312 217.729 91.289 216.943C91.8468 216.156 92.5272 215.515 93.3305 215.021C94.1337 214.526 95.01 214.237 95.9594 214.153C96.8621 214.073 97.9014 214.294 99.0771 214.818C99.6325 215.066 100.082 215.364 100.427 215.71C100.771 216.056 100.961 216.423 100.995 216.812C101.005 216.921 101.007 217.031 101.001 217.141C101.054 218.093 100.648 218.733 99.7825 219.061C99.403 219.204 98.9565 219.299 98.4429 219.344L95.0686 219.502C93.948 219.601 93.1134 219.918 92.5647 220.453C92.2457 220.748 92.0396 221.166 91.9465 221.708C92.461 223.09 93.5199 223.71 95.123 223.568ZM98.6395 215.986C98.275 215.767 97.9012 215.62 97.518 215.544C97.1348 215.468 96.8187 215.441 96.5697 215.463C96.3206 215.485 95.9235 215.607 95.3784 215.828C94.8319 216.033 94.3497 216.256 93.9318 216.497C92.902 217.09 92.4113 217.659 92.4595 218.204C93.7143 218.202 94.653 218.174 95.2755 218.119C97.0031 217.966 98.1573 217.715 98.7381 217.365C99.0979 217.176 99.2674 216.965 99.2467 216.732C99.2219 216.452 99.0195 216.203 98.6395 215.986ZM107.244 221.882L106.959 218.143C106.907 217.551 106.808 217.05 106.662 216.64L103.043 216.96L102.854 215.354L106.355 215.043L105.822 209.02C105.856 208.876 105.937 208.727 106.065 208.575C106.263 208.338 106.433 208.213 106.573 208.201C106.728 208.187 106.862 208.191 106.974 208.212C107.086 208.234 107.212 208.332 107.353 208.508C107.693 209.513 107.955 211.051 108.138 213.121C108.184 213.634 108.252 214.138 108.343 214.632C108.835 214.526 109.33 214.45 109.828 214.406C109.828 214.406 110.233 214.37 111.042 214.299C111.338 214.272 111.609 214.233 111.855 214.18L111.934 215.867L108.517 216.075L109.348 224.119C109.079 224.269 108.843 224.352 108.641 224.37C107.862 224.439 107.397 223.61 107.244 221.882ZM123.728 213.551C123.623 212.714 123.525 211.969 123.436 211.318C123.346 210.652 123.279 210.164 123.236 209.854C123.207 209.527 123.013 208.752 122.653 207.529C122.777 207.33 122.893 207.139 123.003 206.957C123.128 206.773 123.315 206.67 123.564 206.648C124.108 206.6 124.732 208.858 125.434 213.424C125.826 216.071 126.139 218.726 126.375 221.387C126.439 222.103 125.972 222.505 124.976 222.594L124.787 222.587C124.716 221.777 124.601 220.745 124.442 219.488C124.284 218.231 124.148 217.138 124.034 216.207C123.936 215.274 123.834 214.389 123.728 213.551ZM137.179 217.583C136.174 219.523 134.719 220.797 132.812 221.405C132.369 221.539 131.96 221.622 131.587 221.655C131.229 221.687 130.925 221.714 130.676 221.736C130.441 221.741 130.173 221.725 129.872 221.689C129.571 221.653 129.29 221.576 129.028 221.458C128.423 221.182 128.095 220.749 128.042 220.157C127.955 219.883 127.897 219.574 127.866 219.232C127.834 218.874 127.871 218.4 127.976 217.81C128.08 217.221 128.305 216.573 128.651 215.868C129.011 215.162 129.463 214.502 130.005 213.889C131.129 212.598 132.393 211.717 133.794 211.248C134.206 211.117 134.583 211.037 134.926 211.006C135.284 210.975 135.605 210.97 135.889 210.992C136.792 210.912 137.453 211.473 137.873 212.675C138.145 213.435 138.358 214.514 138.513 215.912C138.683 217.293 138.817 218.364 138.915 219.123C139.028 219.866 139.19 220.542 139.401 221.151L138.023 221.273C137.924 220.858 137.844 220.489 137.784 220.165C137.724 219.841 137.666 219.54 137.61 219.263C137.474 218.616 137.331 218.056 137.179 217.583ZM136.765 213.973C136.685 213.07 136.201 212.658 135.314 212.737C135.204 212.731 135.094 212.733 134.985 212.742C133.849 212.843 132.699 213.494 131.535 214.695C130.988 215.245 130.531 215.851 130.166 216.51C129.622 217.453 129.381 218.274 129.443 218.974C129.525 219.893 130.102 220.39 131.176 220.468C132.574 220.313 133.856 219.556 135.022 218.198C135.518 217.605 135.917 216.973 136.218 216.304C136.641 215.403 136.823 214.626 136.765 213.973ZM144.315 218.598L144.031 214.858C143.979 214.267 143.879 213.766 143.733 213.355L140.115 213.676L139.925 212.069L143.427 211.759L142.894 205.736C142.928 205.592 143.009 205.443 143.136 205.291C143.335 205.054 143.504 204.929 143.644 204.916C143.8 204.903 143.934 204.906 144.045 204.928C144.157 204.949 144.284 205.048 144.425 205.224C144.765 206.229 145.026 207.766 145.21 209.836C145.255 210.35 145.323 210.854 145.414 211.348C145.907 211.241 146.402 211.166 146.9 211.122C146.9 211.122 147.305 211.086 148.114 211.014C148.41 210.988 148.681 210.949 148.927 210.895L149.006 212.582L145.589 212.791L146.419 220.835C146.15 220.984 145.915 221.068 145.712 221.086C144.934 221.155 144.468 220.326 144.315 218.598ZM155.75 218.197C157.12 218.075 159.127 217.27 161.771 215.781C161.942 215.766 162.088 215.816 162.208 215.931C162.327 216.03 162.393 216.157 162.406 216.313C161.878 217.426 160.76 218.357 159.054 219.104C157.347 219.851 155.714 220.098 154.155 219.844C152.387 219.546 151.25 218.666 150.744 217.205C150.687 216.912 150.636 216.516 150.592 216.018C150.548 215.52 150.615 214.856 150.792 214.024C150.984 213.176 151.358 212.358 151.916 211.572C152.474 210.785 153.154 210.144 153.957 209.65C154.761 209.155 155.637 208.866 156.586 208.782C157.489 208.702 158.528 208.923 159.704 209.446C160.259 209.695 160.709 209.993 161.054 210.339C161.398 210.685 161.587 211.052 161.622 211.441C161.632 211.55 161.633 211.66 161.628 211.77C161.681 212.722 161.274 213.362 160.409 213.69C160.03 213.833 159.583 213.928 159.07 213.973L155.696 214.131C154.575 214.23 153.74 214.547 153.192 215.082C152.873 215.377 152.667 215.795 152.573 216.337C153.088 217.719 154.147 218.339 155.75 218.197ZM159.266 210.615C158.902 210.396 158.528 210.249 158.145 210.173C157.762 210.097 157.446 210.07 157.197 210.092C156.948 210.114 156.55 210.236 156.005 210.457C155.459 210.662 154.977 210.885 154.559 211.126C153.529 211.719 153.038 212.288 153.086 212.833C154.341 212.831 155.28 212.803 155.902 212.748C157.63 212.595 158.784 212.344 159.365 211.994C159.725 211.805 159.894 211.594 159.874 211.361C159.849 211.081 159.646 210.832 159.266 210.615ZM171.995 212.334C173.707 212.182 174.601 212.542 174.679 213.414C174.736 214.068 174.329 214.872 173.457 215.828C172.155 217.245 170.34 218.449 168.012 219.44C167.903 219.449 167.769 219.352 167.61 219.146C167.466 218.939 167.35 218.785 167.263 218.683C167.19 218.564 167.136 218.49 167.102 218.462C168.84 217.712 170.247 216.865 171.324 215.923C172.053 215.294 172.401 214.8 172.37 214.442C172.338 214.084 171.863 213.946 170.945 214.027C170.026 214.108 168.699 214.446 166.964 215.039C166.152 215.079 165.426 214.853 164.786 214.361C164.23 213.924 163.93 213.464 163.887 212.982C163.843 212.484 163.943 212.02 164.188 211.59C164.431 211.145 164.77 210.723 165.205 210.324C165.64 209.925 166.156 209.549 166.752 209.199C168.213 208.332 169.76 207.826 171.394 207.681C171.877 207.639 172.348 207.644 172.807 207.697C173.181 207.664 173.413 207.808 173.505 208.13C173.596 208.451 173.674 208.985 173.741 209.732C172.785 209.393 171.731 209.275 170.58 209.377C169.148 209.504 167.99 209.897 167.108 210.555C166.192 211.201 165.759 211.977 165.808 212.882C165.847 213.318 166.185 213.508 166.823 213.451L168.511 213.113C169.946 212.672 171.107 212.413 171.995 212.334ZM180.349 215.406L180.064 211.666C180.012 211.075 179.913 210.574 179.767 210.163L176.148 210.484L175.958 208.877L179.46 208.567L178.927 202.544C178.961 202.399 179.042 202.251 179.17 202.098C179.368 201.861 179.538 201.736 179.678 201.724C179.833 201.71 179.967 201.714 180.079 201.736C180.19 201.757 180.317 201.856 180.458 202.031C180.798 203.037 181.06 204.574 181.243 206.644C181.289 207.158 181.357 207.662 181.447 208.155C181.94 208.049 182.435 207.974 182.933 207.93C182.933 207.93 183.338 207.894 184.147 207.822C184.443 207.796 184.714 207.756 184.96 207.703L185.039 209.39L181.622 209.599L182.453 217.643C182.184 217.792 181.948 217.876 181.745 217.894C180.967 217.963 180.502 217.133 180.349 215.406ZM196.824 213.076C196.801 212.827 196.748 212.486 196.662 212.055C196.591 211.606 196.517 211.118 196.439 210.592C196.361 210.066 196.298 209.53 196.249 208.985C196.201 208.441 196.204 207.938 196.257 207.479C196.37 206.449 196.745 205.906 197.383 205.85C197.83 205.935 198.132 206.066 198.289 206.24C198.461 206.413 198.559 206.64 198.584 206.92C198.607 207.184 198.567 207.525 198.463 207.942C198.069 209.342 197.921 210.586 198.017 211.676C198.049 212.034 198.106 212.413 198.189 212.814C198.53 213.834 199.432 214.28 200.895 214.15C201.658 214.083 202.37 213.886 203.031 213.561C204.296 212.963 205.133 212.316 205.542 211.621C205.618 210.893 205.633 210.264 205.586 209.735C205.538 209.19 205.472 208.709 205.388 208.293C205.32 207.876 205.232 207.421 205.126 206.928C205.034 206.419 204.953 205.861 204.884 205.256C205.078 205.144 205.268 205.08 205.455 205.064C205.657 205.046 205.869 205.129 206.089 205.314C206.325 205.497 206.537 205.862 206.727 206.41C206.932 206.957 207.092 207.609 207.206 208.368C207.319 209.111 207.412 209.887 207.483 210.696C207.571 211.504 207.648 212.289 207.715 213.052C207.782 213.799 207.87 214.442 207.981 214.981C207.809 215.169 207.638 215.271 207.466 215.286C206.844 215.341 206.329 214.759 205.923 213.54C205.736 213.729 205.412 213.97 204.952 214.261C203.974 214.913 202.794 215.394 201.409 215.705C201.148 215.759 200.853 215.801 200.526 215.83C200.199 215.859 199.782 215.833 199.272 215.753C198.779 215.671 198.294 215.424 197.819 215.011C197.343 214.598 197.011 213.953 196.824 213.076ZM211.245 205.492C213.297 204.573 215.094 204.045 216.634 203.909C218.595 203.735 219.948 204.133 220.693 205.102C221.031 205.558 221.226 206.067 221.275 206.627C221.344 207.405 221.166 208.229 220.741 209.098C220.332 209.966 219.752 210.77 219.002 211.511C217.255 213.218 215.052 214.378 212.393 214.99C212.408 215.162 212.432 215.434 212.465 215.808C212.515 216.195 212.561 216.623 212.602 217.09C212.659 217.555 212.711 218.052 212.758 218.582C212.82 219.109 212.881 219.614 212.939 220.095C213.092 221.289 213.184 221.971 213.214 222.141C213.261 222.31 213.289 222.448 213.298 222.557C213.333 222.946 213.234 223.245 213.001 223.454C212.77 223.679 212.452 223.809 212.048 223.844C211.97 223.851 211.892 223.858 211.814 223.865L209.778 205.128C209.9 204.913 210.078 204.803 210.313 204.798C210.548 204.793 210.74 204.839 210.89 204.935C211.04 205.032 211.158 205.217 211.245 205.492ZM218.135 205.705C217.598 205.486 217.033 205.403 216.442 205.455C215.866 205.506 215.295 205.612 214.729 205.772C213.444 206.137 212.527 206.775 211.981 207.686C211.736 208.115 211.64 208.626 211.693 209.217C211.698 209.279 211.704 209.342 211.709 209.404L212.067 213.443C215.21 212.443 217.394 211.245 218.62 209.851C219.333 209.05 219.655 208.261 219.586 207.483C219.513 206.658 219.029 206.065 218.135 205.705ZM233.001 194.106C233.133 195.6 233.216 197.067 233.249 198.507C233.297 199.931 233.343 201.331 233.386 202.707C233.444 204.067 233.541 205.517 233.677 207.058C233.813 208.583 234.065 210.192 234.435 211.885C234.466 212.243 234.419 212.506 234.293 212.674C234.182 212.84 233.971 212.938 233.66 212.965C232.928 213.03 232.509 212.455 232.401 211.241L232.333 210.471C230.269 212.317 228.474 213.307 226.949 213.442C226.342 213.496 225.706 213.403 225.042 213.164C224.393 212.923 223.749 212.377 223.108 211.523C222.998 211.157 222.925 210.779 222.89 210.39C222.856 210.001 222.885 209.528 222.976 208.97C223.082 208.396 223.335 207.794 223.734 207.162C224.148 206.529 224.662 205.958 225.276 205.449C226.623 204.357 228.128 203.738 229.794 203.59C230.51 203.527 231.204 203.575 231.877 203.735C231.852 203.455 231.825 202.963 231.794 202.26C231.778 201.555 231.759 200.812 231.737 200.03C231.651 197.998 231.608 196.802 231.608 196.441C231.606 196.065 231.617 195.75 231.642 195.497C231.68 195.227 231.746 194.994 231.838 194.797C232.037 194.387 232.425 194.157 233.001 194.106ZM224.578 210.052C224.687 211.282 225.185 211.857 226.072 211.779C226.212 211.766 226.367 211.737 226.535 211.69C227.173 211.634 227.943 211.378 228.843 210.921C230.556 210.064 231.584 209.361 231.927 208.813L231.652 205.708C231.604 205.163 231.136 204.93 230.249 205.009C230.139 205.003 229.99 205.008 229.803 205.024C229.632 205.04 229.363 205.103 228.996 205.214C228.63 205.325 228.222 205.502 227.773 205.746C227.324 205.989 226.887 206.279 226.462 206.615C225.569 207.337 224.981 208.142 224.699 209.03C224.588 209.369 224.548 209.71 224.578 210.052ZM245.185 208.015C244.181 209.955 242.725 211.229 240.818 211.837C240.375 211.97 239.967 212.053 239.593 212.087C239.235 212.118 238.932 212.145 238.683 212.167C238.448 212.172 238.18 212.157 237.879 212.121C237.577 212.085 237.296 212.008 237.035 211.89C236.43 211.614 236.101 211.18 236.049 210.589C235.962 210.314 235.903 210.006 235.873 209.663C235.841 209.305 235.877 208.831 235.982 208.242C236.087 207.652 236.312 207.005 236.657 206.3C237.018 205.593 237.469 204.934 238.011 204.321C239.136 203.029 240.399 202.149 241.801 201.679C242.212 201.549 242.59 201.468 242.932 201.438C243.29 201.406 243.611 201.401 243.895 201.423C244.798 201.343 245.46 201.904 245.88 203.106C246.151 203.866 246.364 204.946 246.52 206.344C246.689 207.725 246.823 208.795 246.922 209.555C247.035 210.298 247.196 210.974 247.407 211.583L246.03 211.705C245.93 211.29 245.851 210.92 245.79 210.596C245.73 210.272 245.672 209.972 245.616 209.694C245.481 209.047 245.337 208.488 245.185 208.015ZM244.771 204.404C244.691 203.502 244.208 203.09 243.321 203.168C243.21 203.162 243.101 203.164 242.992 203.174C241.856 203.274 240.705 203.925 239.541 205.126C238.994 205.677 238.538 206.282 238.173 206.942C237.629 207.884 237.388 208.705 237.45 209.406C237.531 210.324 238.109 210.822 239.182 210.899C240.58 210.744 241.862 209.988 243.028 208.629C243.524 208.036 243.923 207.405 244.225 206.735C244.647 205.835 244.829 205.058 244.771 204.404ZM252.322 209.03L252.037 205.29C251.985 204.699 251.886 204.198 251.74 203.787L248.121 204.108L247.932 202.501L251.433 202.191L250.9 196.167C250.934 196.023 251.015 195.875 251.143 195.722C251.341 195.485 251.511 195.36 251.651 195.348C251.806 195.334 251.94 195.338 252.052 195.359C252.164 195.381 252.29 195.479 252.431 195.655C252.771 196.66 253.033 198.198 253.216 200.268C253.262 200.782 253.33 201.285 253.421 201.779C253.913 201.673 254.408 201.598 254.906 201.554C254.906 201.554 255.311 201.518 256.12 201.446C256.416 201.42 256.687 201.38 256.933 201.327L257.012 203.014L253.595 203.223L254.426 211.267C254.157 211.416 253.921 211.5 253.719 211.518C252.94 211.586 252.475 210.757 252.322 209.03ZM263.756 208.628C265.126 208.507 267.133 207.702 269.777 206.213C269.949 206.197 270.094 206.247 270.214 206.362C270.333 206.461 270.399 206.589 270.413 206.744C269.884 207.858 268.766 208.788 267.06 209.536C265.354 210.283 263.721 210.529 262.161 210.275C260.393 209.977 259.257 209.097 258.751 207.636C258.693 207.343 258.643 206.948 258.599 206.45C258.554 205.952 258.621 205.287 258.798 204.456C258.99 203.607 259.365 202.79 259.922 202.003C260.48 201.217 261.161 200.576 261.964 200.081C262.767 199.587 263.643 199.297 264.593 199.213C265.495 199.133 266.535 199.355 267.71 199.878C268.266 200.127 268.716 200.424 269.06 200.77C269.404 201.116 269.594 201.484 269.628 201.873C269.638 201.982 269.64 202.091 269.634 202.202C269.687 203.154 269.281 203.794 268.416 204.121C268.036 204.265 267.59 204.359 267.076 204.405L263.702 204.563C262.581 204.662 261.747 204.979 261.198 205.514C260.879 205.809 260.673 206.227 260.58 206.769C261.094 208.15 262.153 208.77 263.756 208.628ZM267.273 201.046C266.908 200.828 266.534 200.68 266.151 200.604C265.768 200.529 265.452 200.502 265.203 200.524C264.954 200.546 264.557 200.667 264.012 200.888C263.465 201.093 262.983 201.316 262.565 201.557C261.535 202.151 261.045 202.72 261.093 203.264C262.348 203.263 263.286 203.235 263.909 203.179C265.636 203.026 266.791 202.775 267.371 202.426C267.731 202.237 267.901 202.026 267.88 201.792C267.855 201.512 267.653 201.264 267.273 201.046ZM280.001 202.766C281.713 202.614 282.608 202.974 282.685 203.845C282.743 204.499 282.336 205.304 281.463 206.26C280.162 207.677 278.347 208.881 276.019 209.871C275.91 209.881 275.776 209.783 275.616 209.578C275.472 209.371 275.357 209.216 275.269 209.114C275.196 208.995 275.142 208.922 275.109 208.893C276.846 208.143 278.253 207.297 279.331 206.354C280.059 205.725 280.408 205.232 280.376 204.874C280.344 204.516 279.869 204.377 278.951 204.459C278.033 204.54 276.706 204.877 274.97 205.47C274.158 205.511 273.432 205.285 272.792 204.792C272.236 204.355 271.936 203.896 271.894 203.413C271.85 202.915 271.95 202.451 272.194 202.022C272.437 201.577 272.776 201.155 273.211 200.755C273.646 200.356 274.162 199.981 274.759 199.63C276.219 198.763 277.766 198.258 279.401 198.113C279.883 198.07 280.354 198.076 280.814 198.129C281.187 198.096 281.42 198.24 281.511 198.561C281.602 198.883 281.681 199.417 281.747 200.164C280.791 199.825 279.738 199.707 278.586 199.809C277.154 199.935 275.997 200.328 275.114 200.987C274.199 201.633 273.765 202.408 273.814 203.314C273.853 203.75 274.191 203.939 274.829 203.883L276.517 203.545C277.953 203.104 279.114 202.844 280.001 202.766Z" fill="#FFD335"/>
<path d="M95.3611 194.41L94.9001 190.003C94.8381 189.303 94.7992 188.687 94.7834 188.155C94.7819 187.606 94.8745 187.323 95.0612 187.307L96.6254 187.168C96.6475 187.417 96.7136 187.898 96.8237 188.609C96.9338 189.321 97.029 190.042 97.1094 190.772C97.1884 191.487 97.2507 192.101 97.2962 192.615C97.3417 193.128 97.3932 193.798 97.4507 194.624C97.5068 195.435 97.5083 196.337 97.4551 197.33C97.3282 199.616 96.829 201.064 95.9576 201.674C95.2917 202.125 94.1871 202.317 92.6439 202.25C91.0838 202.169 89.6897 201.837 88.4618 201.256C87.0218 200.584 86.1531 199.719 85.8556 198.663C85.8239 198.305 85.9131 197.984 86.1231 197.699C86.4992 197.163 86.8584 196.88 87.2008 196.85C87.295 197.736 87.6011 198.446 88.119 198.981C89.3243 200.191 91.1332 200.69 93.5456 200.476C93.9503 200.44 94.3451 200.382 94.73 200.301C95.4568 199.829 95.6672 197.865 95.3611 194.41ZM100.18 196.089C99.9765 193.793 100.805 191.857 102.665 190.28C104.143 189.032 105.98 188.192 108.178 187.762C108.294 187.752 108.567 187.728 108.995 187.69C109.423 187.652 110.008 187.728 110.75 187.917C112.394 188.32 113.568 189.187 114.274 190.516C114.556 191.04 114.714 191.497 114.749 191.886C114.781 192.256 114.795 192.519 114.789 192.677C115.005 195.109 114.25 197.107 112.526 198.671C110.928 200.107 108.845 200.939 106.277 201.166C104.429 201.33 102.99 201.026 101.961 200.254C100.951 199.481 100.357 198.092 100.18 196.089ZM102.256 196.611C102.362 197.817 102.756 198.605 103.436 198.977C103.95 199.245 104.781 199.328 105.928 199.226C107.076 199.125 108.08 198.947 108.94 198.695C109.8 198.442 110.552 198.072 111.195 197.583C112.571 196.52 113.172 195.006 112.998 193.041C112.895 191.874 112.499 190.948 111.811 190.264C111.059 189.527 110.129 189.207 109.02 189.305C108.273 189.509 107.518 189.723 106.753 189.947C106.008 190.17 105.315 190.536 104.674 191.043C103.28 192.128 102.474 193.983 102.256 196.611ZM118.76 186.207C119.335 189.823 119.922 194.016 120.521 198.786C120.458 199.4 120.018 199.743 119.201 199.815C118.987 199.834 118.759 199.815 118.519 199.758C118.296 199.68 118.149 199.565 118.077 199.415L116.921 186.37L118.76 186.207ZM115.694 182.479C115.634 181.798 116.002 181.422 116.8 181.351C117.325 181.305 117.764 181.384 118.115 181.588C118.192 181.797 118.241 182.008 118.26 182.222C118.277 182.417 118.216 182.618 118.078 182.827C117.939 183.035 117.715 183.153 117.403 183.18C117.092 183.208 116.775 183.167 116.451 183.059C116.126 182.931 115.874 182.737 115.694 182.479ZM133.284 192.303C133.079 189.988 132.802 188.297 132.453 187.229C132.582 186.924 132.336 186.799 131.713 186.854C131.052 186.912 130.211 187.154 129.189 187.577C128.168 188.001 127.341 188.408 126.709 188.797C125.2 189.695 124.39 190.512 124.279 191.248L124.982 199.185L123.027 199.359C122.716 198.719 122.425 196.873 122.154 193.818C121.913 191.095 121.784 189.086 121.767 187.794C121.77 186.499 121.793 185.762 121.836 185.582C122.313 185.206 122.706 185.005 123.018 184.977C123.504 184.934 123.798 185.486 123.9 186.634C123.939 187.082 123.949 187.522 123.929 187.955C123.926 188.367 123.931 188.651 123.945 188.807C126.892 186.212 129.231 184.838 130.962 184.685C132.927 184.511 134.187 185.997 134.74 189.144C134.955 190.243 135.149 191.775 135.323 193.74L135.498 196.048C135.574 196.904 135.667 197.729 135.777 198.523C135.592 198.657 135.442 198.729 135.325 198.74C135.265 198.725 135.136 198.707 134.938 198.686C134.74 198.664 134.485 198.657 134.172 198.665C133.908 197.904 133.731 197.126 133.641 196.33C133.549 195.515 133.473 194.766 133.413 194.086L133.284 192.303ZM160.947 188.176C160.645 189.634 160.401 190.979 160.216 192.211C160.051 193.441 159.867 194.467 159.665 195.289C159.339 196.475 158.903 197.092 158.359 197.14C158.067 197.166 157.724 197.059 157.33 196.82C156.351 195.946 154.899 193.947 152.976 190.823C151.098 187.774 150.123 185.85 150.053 185.053C150.022 184.702 150.11 184.479 150.317 184.382C150.522 184.266 150.764 184.235 151.044 184.288C151.722 184.424 152.216 184.684 152.525 185.069C152.678 185.251 152.874 185.577 153.111 186.046L154.001 187.791C154.999 189.761 155.972 191.558 156.92 193.18C157.289 192.48 157.622 191.588 157.918 190.503L158.6 187.913C159.183 185.646 159.785 184.465 160.404 184.371C160.863 184.017 162.474 185.609 165.239 189.148C166.411 190.652 167.138 191.549 167.418 191.838C167.593 191.822 167.746 191.22 167.876 190.032C168.025 188.843 168.152 187.841 168.257 187.028C168.379 186.194 168.545 185.414 168.756 184.69C169.253 182.999 169.92 182.116 170.756 182.042C171.029 182.018 171.222 182.099 171.337 182.285C171.469 182.449 171.54 182.59 171.551 182.707C171.561 182.824 171.569 182.911 171.574 182.97C171.399 183.652 171.223 184.432 171.046 185.31C170.867 186.169 170.671 187.059 170.459 187.98C170.264 188.88 170.06 189.78 169.845 190.681C169.649 191.562 169.445 192.364 169.235 193.088C168.727 194.663 168.265 195.527 167.847 195.682C167.53 195.867 166.962 195.535 166.141 194.686C165.773 194.287 165.378 193.813 164.956 193.262C164.535 192.711 164.092 192.142 163.629 191.556C162.499 190.087 161.605 188.961 160.947 188.176ZM186.371 189.159C185.116 191.584 183.296 193.176 180.912 193.936C180.358 194.103 179.848 194.207 179.381 194.248C178.934 194.288 178.554 194.322 178.243 194.349C177.95 194.356 177.614 194.336 177.238 194.291C176.861 194.246 176.51 194.15 176.183 194.002C175.427 193.658 175.016 193.116 174.951 192.376C174.842 192.033 174.768 191.647 174.731 191.219C174.691 190.772 174.736 190.18 174.867 189.442C174.998 188.705 175.279 187.896 175.711 187.015C176.162 186.132 176.726 185.307 177.404 184.541C178.81 182.927 180.388 181.826 182.14 181.239C182.655 181.076 183.127 180.975 183.555 180.938C184.002 180.898 184.404 180.892 184.759 180.919C185.888 180.819 186.714 181.52 187.24 183.023C187.579 183.973 187.845 185.322 188.039 187.07C188.251 188.796 188.419 190.134 188.542 191.084C188.683 192.013 188.885 192.857 189.149 193.618L187.427 193.771C187.303 193.253 187.203 192.791 187.128 192.386C187.053 191.981 186.98 191.605 186.91 191.258C186.741 190.449 186.561 189.75 186.371 189.159ZM185.854 184.646C185.754 183.517 185.15 183.002 184.041 183.1C183.903 183.093 183.766 183.095 183.629 183.107C182.209 183.233 180.772 184.047 179.316 185.548C178.632 186.236 178.062 186.993 177.606 187.818C176.926 188.995 176.624 190.022 176.702 190.898C176.804 192.045 177.525 192.668 178.867 192.765C180.615 192.57 182.217 191.625 183.675 189.927C184.295 189.186 184.794 188.396 185.171 187.559C185.699 186.434 185.926 185.463 185.854 184.646ZM192.545 179.671C193.12 183.286 193.707 187.479 194.306 192.25C194.243 192.863 193.803 193.206 192.986 193.278C192.772 193.297 192.545 193.278 192.304 193.221C192.082 193.143 191.934 193.028 191.862 192.878L190.706 179.833L192.545 179.671ZM189.479 175.942C189.419 175.261 189.788 174.885 190.585 174.815C191.111 174.768 191.549 174.847 191.9 175.051C191.978 175.26 192.026 175.471 192.045 175.685C192.062 175.88 192.001 176.081 191.863 176.29C191.725 176.498 191.5 176.616 191.189 176.644C190.877 176.671 190.56 176.631 190.237 176.522C189.912 176.394 189.659 176.201 189.479 175.942ZM200.413 189.973L200.058 185.299C199.992 184.56 199.868 183.933 199.685 183.42L195.162 183.821L194.925 181.813L199.303 181.425L198.636 173.896C198.679 173.715 198.78 173.53 198.939 173.339C199.188 173.043 199.399 172.887 199.574 172.871C199.769 172.854 199.936 172.859 200.076 172.886C200.215 172.913 200.373 173.036 200.55 173.256C200.975 174.512 201.302 176.434 201.531 179.021C201.588 179.664 201.673 180.293 201.787 180.911C202.402 180.778 203.021 180.684 203.644 180.628C203.644 180.628 204.15 180.584 205.161 180.494C205.531 180.461 205.87 180.412 206.178 180.345L206.276 182.454L202.005 182.715L203.043 192.77C202.707 192.956 202.412 193.061 202.159 193.083C201.186 193.17 200.604 192.133 200.413 189.973ZM208.456 180.673C208.324 179.626 208.202 178.695 208.091 177.881C207.978 177.048 207.895 176.438 207.841 176.051C207.804 175.642 207.562 174.674 207.113 173.145C207.267 172.896 207.413 172.657 207.549 172.43C207.705 172.2 207.939 172.071 208.25 172.044C208.931 171.984 209.711 174.807 210.589 180.513C211.078 183.823 211.47 187.141 211.765 190.468C211.844 191.363 211.261 191.865 210.016 191.976L209.78 191.967C209.69 190.955 209.547 189.664 209.349 188.094C209.151 186.523 208.981 185.156 208.838 183.992C208.715 182.826 208.588 181.72 208.456 180.673ZM215.641 177.624C216.216 181.24 216.804 185.433 217.403 190.204C217.339 190.817 216.899 191.16 216.082 191.232C215.868 191.251 215.641 191.232 215.4 191.175C215.178 191.097 215.03 190.982 214.958 190.832L213.803 177.787L215.641 177.624ZM212.576 173.896C212.515 173.215 212.884 172.839 213.682 172.769C214.207 172.722 214.645 172.801 214.997 173.005C215.074 173.214 215.122 173.425 215.141 173.639C215.158 173.834 215.098 174.035 214.959 174.244C214.821 174.452 214.596 174.57 214.285 174.598C213.974 174.625 213.656 174.585 213.333 174.476C213.008 174.348 212.755 174.155 212.576 173.896ZM228.664 182.706C230.804 182.516 231.923 182.966 232.019 184.056C232.092 184.873 231.583 185.879 230.492 187.073C228.865 188.845 226.596 190.35 223.686 191.588C223.55 191.6 223.383 191.478 223.183 191.221C223.004 190.962 222.859 190.769 222.75 190.642C222.658 190.493 222.591 190.401 222.549 190.365C224.721 189.428 226.48 188.37 227.826 187.192C228.737 186.405 229.173 185.788 229.133 185.341C229.093 184.893 228.5 184.72 227.352 184.822C226.204 184.924 224.545 185.345 222.376 186.087C221.36 186.137 220.453 185.855 219.653 185.239C218.958 184.693 218.584 184.119 218.53 183.515C218.475 182.893 218.6 182.313 218.905 181.776C219.209 181.22 219.633 180.692 220.177 180.193C220.721 179.694 221.366 179.225 222.111 178.786C223.937 177.703 225.871 177.071 227.914 176.89C228.517 176.837 229.106 176.843 229.68 176.91C230.147 176.869 230.438 177.049 230.552 177.45C230.666 177.852 230.764 178.52 230.847 179.454C229.652 179.03 228.335 178.882 226.896 179.01C225.106 179.168 223.659 179.659 222.556 180.482C221.411 181.29 220.87 182.259 220.931 183.391C220.979 183.936 221.402 184.173 222.2 184.102L224.309 183.68C226.104 183.129 227.555 182.804 228.664 182.706ZM239.107 186.545L238.751 181.871C238.686 181.132 238.562 180.506 238.379 179.992L233.856 180.393L233.619 178.385L237.996 177.997L237.329 170.468C237.372 170.287 237.473 170.102 237.633 169.911C237.881 169.615 238.093 169.459 238.268 169.443C238.463 169.426 238.63 169.431 238.769 169.458C238.909 169.485 239.067 169.608 239.243 169.828C239.668 171.084 239.995 173.006 240.225 175.594C240.282 176.236 240.367 176.865 240.48 177.483C241.096 177.35 241.715 177.256 242.338 177.2C242.338 177.2 242.843 177.156 243.855 177.066C244.225 177.033 244.564 176.984 244.871 176.917L244.97 179.026L240.699 179.287L241.737 189.342C241.4 189.529 241.106 189.633 240.853 189.655C239.88 189.742 239.298 188.705 239.107 186.545Z" fill="#AC47FF"/>
</svg>
