<svg width="251" height="105" viewBox="0 0 251 105" fill="none" xmlns="http://www.w3.org/2000/svg">
<path d="M239.728 0.414301C239.405 0.155577 238.933 0.208065 238.674 0.531538L234.458 5.80283C234.199 6.1263 234.252 6.59827 234.575 6.85699C234.899 7.11571 235.371 7.06323 235.629 6.73975L239.377 2.05416L244.063 5.80186C244.386 6.06058 244.858 6.00809 245.117 5.68462C245.375 5.36115 245.323 4.88918 245 4.63046L239.728 0.414301ZM219.289 57.6764L219.678 58.3177L219.289 57.6764ZM162.608 52.9141C162.226 52.756 161.787 52.9381 161.629 53.321C161.471 53.7038 161.653 54.1424 162.036 54.3005L162.608 52.9141ZM239.26 1C238.514 1.0829 238.514 1.0829 238.514 1.08311C238.514 1.08345 238.514 1.08386 238.515 1.08454C238.515 1.08589 238.515 1.08805 238.515 1.09101C238.516 1.09694 238.517 1.10605 238.518 1.11831C238.521 1.14282 238.525 1.17989 238.53 1.22907C238.54 1.32742 238.554 1.47417 238.572 1.66569C238.608 2.04875 238.656 2.61079 238.707 3.32277C238.808 4.74697 238.918 6.76971 238.955 9.15889C239.03 13.944 238.808 20.1696 237.637 25.9933C236.46 31.8439 234.353 37.148 230.765 40.2418C227.252 43.2708 222.157 44.3121 214.628 41.2855L214.069 42.6772C221.964 45.8512 227.695 44.8701 231.745 41.3778C235.72 37.9502 237.912 32.2339 239.107 26.289C240.308 20.3172 240.53 13.9722 240.455 9.13564C240.418 6.71397 240.306 4.66307 240.203 3.21636C240.151 2.49287 240.102 1.92013 240.066 1.52728C240.048 1.33084 240.032 1.17935 240.022 1.07645C240.017 1.025 240.013 0.985688 240.01 0.958979C240.008 0.945625 240.007 0.93542 240.006 0.928421C240.006 0.924922 240.006 0.922224 240.006 0.920335C240.005 0.919391 240.005 0.918582 240.005 0.918109C240.005 0.917503 240.005 0.917101 239.26 1ZM214.628 41.2855C210.775 39.7365 208.658 38.513 207.735 37.6341C207.256 37.1782 207.26 36.9685 207.259 36.9714C207.255 37.0267 207.218 36.9133 207.606 36.7383C207.972 36.573 208.549 36.4384 209.329 36.3654C210.098 36.2936 211.019 36.2856 212.044 36.3454C214.094 36.465 216.516 36.8533 218.893 37.5089C221.274 38.1655 223.579 39.0814 225.413 40.2397C227.257 41.4048 228.544 42.7628 229.039 44.2721C229.519 45.7376 229.301 47.5037 227.797 49.6354C226.277 51.7885 223.474 54.2616 218.9 57.035L219.678 58.3177C224.332 55.4962 227.332 52.895 229.022 50.5003C230.727 48.0842 231.127 45.8289 230.464 43.8051C229.815 41.8251 228.2 40.2259 226.214 38.9715C224.217 37.7104 221.764 36.7446 219.292 36.0629C216.817 35.3804 214.291 34.9739 212.132 34.8479C211.052 34.7849 210.052 34.7913 209.19 34.8719C208.338 34.9515 207.573 35.1073 206.988 35.3712C206.426 35.6253 205.831 36.0798 205.765 36.8424C205.704 37.5526 206.143 38.1896 206.701 38.7205C207.85 39.8152 210.21 41.1259 214.069 42.6772L214.628 41.2855ZM218.9 57.035C214.281 59.8358 208.479 61.0147 202.314 61.174C196.156 61.3331 189.693 60.4732 183.799 59.2481C177.908 58.0236 172.606 56.4388 168.776 55.1595C166.862 54.52 165.317 53.9574 164.252 53.5553C163.719 53.3542 163.307 53.1932 163.028 53.0829C162.889 53.0277 162.783 52.9852 162.713 52.9566C162.677 52.9423 162.651 52.9316 162.633 52.9244C162.625 52.9208 162.618 52.9182 162.614 52.9165C162.612 52.9156 162.61 52.915 162.61 52.9146C162.609 52.9144 162.609 52.9143 162.609 52.9142C162.608 52.9141 162.608 52.9141 162.322 53.6073C162.036 54.3005 162.036 54.3006 162.036 54.3008C162.037 54.3009 162.037 54.3012 162.038 54.3015C162.039 54.302 162.041 54.3028 162.044 54.3038C162.049 54.3059 162.056 54.3089 162.066 54.3128C162.085 54.3206 162.113 54.3321 162.15 54.347C162.224 54.3769 162.333 54.4209 162.476 54.4774C162.761 54.5906 163.181 54.7545 163.722 54.9585C164.803 55.3667 166.366 55.9359 168.301 56.5822C172.169 57.8743 177.53 59.4771 183.494 60.7167C189.455 61.9557 196.04 62.8366 202.353 62.6735C208.66 62.5105 214.752 61.3044 219.678 58.3177L218.9 57.035Z" fill="#FFD335"/>
<path d="M17.0359 33.0035L15.4711 32.9868C15.061 32.9917 14.5869 33.0383 14.0488 33.1267C14.0308 33.584 13.9909 34.1763 13.9292 34.9036C13.7136 37.4845 13.6104 39.1616 13.6196 39.935C13.6286 40.6966 13.6467 41.2355 13.6738 41.5516L12.0231 41.6942L12.4652 33.0048L8.71887 32.8381C8.62512 32.8393 8.54805 32.764 8.48766 32.6124C8.43899 32.4606 8.41389 32.3202 8.41237 32.1913C8.41084 32.0624 8.46191 31.9212 8.56557 31.7676C8.66923 31.614 8.79137 31.5364 8.93198 31.5348C9.78781 31.5598 10.6498 31.6082 11.5179 31.68C13.1249 31.8016 14.4909 31.8557 15.6158 31.8424L16.7051 31.7944C17.5603 31.7608 18.4087 31.6571 19.2504 31.483C19.4384 31.516 19.559 31.8075 19.6124 32.3577C19.6255 32.4748 19.6325 32.5684 19.6333 32.6387C18.8625 32.8705 17.9967 32.9921 17.0359 33.0035ZM28.8321 41.2493C28.729 41.4497 28.4548 41.5526 28.0095 41.5579C27.576 41.563 27.3573 41.4074 27.3536 41.091C27.3372 39.7083 27.2967 38.7595 27.232 38.2446C27.1131 37.1092 26.8832 36.5025 26.5425 36.4245C25.6968 36.2704 25.0045 36.1965 24.4655 36.2029C23.9382 36.2092 23.5007 36.3784 23.153 36.7107C22.8169 37.0311 22.5596 37.5674 22.381 38.3195C22.2139 39.0598 22.0974 40.1043 22.0313 41.4528L20.6779 41.4688C20.6934 40.8006 20.6978 40.1794 20.691 39.6052C20.6842 39.031 20.6644 38.3515 20.6317 37.5667C20.5989 36.7702 20.5593 35.9034 20.5131 34.9664C20.4417 33.889 20.4017 32.9812 20.393 32.243C20.3841 31.4931 20.4228 30.807 20.5092 30.1848C20.6238 29.9608 20.7924 29.8475 21.015 29.8449C21.2845 29.8417 21.4966 29.9388 21.6513 30.1362C21.8059 30.3219 21.8899 30.4908 21.9034 30.643L21.8499 33.5442C21.8627 34.634 21.9251 35.4478 22.0369 35.9855C23.0832 35.27 24.1689 34.9056 25.2938 34.8923C25.657 34.888 26.0441 34.9127 26.4549 34.9664C27.3391 35.413 27.9191 35.8925 28.1947 36.4049C28.3268 36.6729 28.4122 36.959 28.4509 37.2633C28.4897 37.5675 28.5172 37.9129 28.5335 38.2995C28.6196 39.6345 28.7192 40.6178 28.8321 41.2493ZM33.4165 40.2106C34.4476 40.1984 35.9947 39.7113 38.0577 38.7494C38.1866 38.7479 38.2926 38.7935 38.3758 38.8862C38.4587 38.9673 38.5009 39.0664 38.5023 39.1836C38.043 39.986 37.154 40.6176 35.8351 41.0786C34.5162 41.5395 33.2809 41.6303 32.1291 41.3509C30.8244 41.0265 30.0247 40.3035 29.7302 39.1819C29.7041 38.9595 29.6889 38.6608 29.6845 38.2859C29.68 37.9109 29.7679 37.4176 29.9482 36.8061C30.1401 36.1827 30.4671 35.5928 30.9293 35.0366C31.3915 34.4803 31.9371 34.0402 32.5662 33.7163C33.1952 33.3924 33.8671 33.2263 34.5819 33.2178C35.2615 33.2098 36.026 33.4351 36.8752 33.8939C37.2762 34.1118 37.5956 34.36 37.8333 34.6385C38.071 34.9169 38.1915 35.2026 38.195 35.4956C38.196 35.5776 38.1911 35.6597 38.1803 35.7419C38.1654 36.4569 37.825 36.9122 37.1593 37.1075C36.8673 37.193 36.528 37.2381 36.1413 37.2426L33.609 37.1671C32.7653 37.1771 32.123 37.3663 31.682 37.7349C31.4265 37.9371 31.2484 38.2381 31.1477 38.6377C31.4533 39.7006 32.2095 40.2249 33.4165 40.2106ZM36.4809 34.7424C36.2209 34.5579 35.9498 34.4263 35.6676 34.3476C35.3854 34.2689 35.1505 34.2307 34.9631 34.2329C34.7756 34.2351 34.4717 34.3032 34.0513 34.4371C33.6309 34.5593 33.2575 34.6984 32.9312 34.8547C32.1271 35.2392 31.7275 35.6365 31.7323 36.0467C32.6707 36.1176 33.3743 36.1503 33.843 36.1447C35.1437 36.1294 36.0212 36.0076 36.4756 35.7796C36.7554 35.6591 36.8943 35.511 36.8922 35.3352C36.8897 35.1243 36.7526 34.9267 36.4809 34.7424ZM48.4973 34.8463C48.001 34.5006 47.3661 34.3323 46.5927 34.3415C45.8662 34.3501 45.194 34.4928 44.5762 34.7697C43.4102 35.2757 42.615 35.9179 42.1906 36.6964C42.0073 37.0502 41.918 37.4263 41.9227 37.8247C41.9235 37.895 41.9259 38.0942 41.9297 38.4223C41.9335 38.7387 41.9972 39.1716 42.1209 39.7209C42.2444 40.2586 42.3095 40.8086 42.3162 41.3711C42.0703 41.3857 41.8714 41.4173 41.7196 41.466C41.5678 41.5147 41.4392 41.5397 41.3338 41.5409C41.2283 41.5421 41.134 41.4964 41.0509 41.4036C40.9795 41.3107 40.8953 41.13 40.7984 40.8616C40.7858 40.7915 40.76 40.5925 40.721 40.2649C40.6819 39.9372 40.6304 39.5393 40.5662 39.0713C40.5138 38.6031 40.4492 38.0941 40.3724 37.5442C40.3071 36.9824 40.242 36.4324 40.1771 35.894C40.0343 34.7238 39.9245 33.8637 39.8477 33.3138C39.8444 33.0325 40.0478 32.8895 40.4579 32.8846C40.704 32.8817 40.8986 32.9849 41.0417 33.1942C41.1846 33.3917 41.2987 33.6247 41.3839 33.8933C41.469 34.1501 41.5248 34.4073 41.5513 34.6648C41.5895 34.9222 41.6209 35.1035 41.6456 35.2086C43.176 33.8076 45.0896 33.0935 47.3863 33.0664C47.6441 33.0633 47.9137 33.066 48.195 33.0744C48.2652 33.0618 48.353 33.0549 48.4585 33.0537C48.564 33.0525 48.6702 33.1215 48.7774 33.2609C48.9082 33.4234 48.975 33.6218 48.9778 33.8562C48.9847 34.4421 48.8245 34.7721 48.4973 34.8463ZM53.805 39.9695C54.8361 39.9573 56.3832 39.4702 58.4462 38.5082C58.5751 38.5067 58.6811 38.5523 58.7642 38.6451C58.8472 38.7261 58.8894 38.8253 58.8908 38.9424C58.4315 39.7448 57.5425 40.3765 56.2236 40.8374C54.9047 41.2983 53.6694 41.3891 52.5176 41.1098C51.2129 40.7853 50.4132 40.0623 50.1187 38.9407C50.0926 38.7184 50.0774 38.4197 50.0729 38.0447C50.0685 37.6697 50.1564 37.1765 50.3367 36.5649C50.5286 35.9415 50.8556 35.3517 51.3178 34.7954C51.78 34.2391 52.3256 33.799 52.9546 33.4752C53.5837 33.1513 54.2556 32.9851 54.9704 32.9767C55.65 32.9686 56.4145 33.194 57.2637 33.6527C57.6647 33.8707 57.9841 34.1188 58.2218 34.3973C58.4595 34.6758 58.58 34.9615 58.5835 35.2544C58.5845 35.3364 58.5796 35.4185 58.5688 35.5007C58.5539 36.2158 58.2135 36.671 57.5478 36.8664C57.2558 36.9519 56.9165 36.9969 56.5298 37.0015L53.9975 36.926C53.1538 36.9359 52.5115 37.1252 52.0705 37.4937C51.815 37.696 51.6369 37.9969 51.5362 38.3966C51.8418 39.4594 52.598 39.9837 53.805 39.9695ZM56.8694 34.5012C56.6094 34.3168 56.3383 34.1852 56.0561 34.1065C55.7739 34.0278 55.539 33.9896 55.3516 33.9918C55.1641 33.994 54.8602 34.062 54.4398 34.1959C54.0194 34.3181 53.646 34.4573 53.3197 34.6135C52.5156 34.998 52.116 35.3954 52.1208 35.8055C53.0592 35.8764 53.7628 35.9091 54.2315 35.9036C55.5322 35.8882 56.4097 35.7665 56.8641 35.5384C57.1439 35.4179 57.2828 35.2698 57.2807 35.094C57.2782 34.8831 57.1411 34.6855 56.8694 34.5012ZM73.8556 36.4274C75.1445 36.4121 75.7929 36.7326 75.8007 37.3888C75.8065 37.881 75.4559 38.4594 74.7488 39.124C73.694 40.1092 72.2678 40.9055 70.4702 41.5127C70.3881 41.5137 70.2934 41.4328 70.186 41.27C70.0903 41.107 70.0127 40.9849 69.9532 40.9035C69.9052 40.8104 69.8693 40.7522 69.8456 40.729C71.1879 40.2678 72.2889 39.7157 73.1485 39.0727C73.7294 38.6439 74.0183 38.2947 74.0151 38.0252C74.0119 37.7557 73.6646 37.625 72.9733 37.6332C72.2819 37.6414 71.2703 37.8174 69.9383 38.1613C69.3287 38.1451 68.7988 37.9346 68.3487 37.5297C67.9577 37.171 67.7601 36.8101 67.7558 36.4468C67.7513 36.0718 67.8528 35.7308 68.0601 35.4236C68.2673 35.1047 68.545 34.8084 68.8934 34.5348C69.2417 34.2611 69.6489 34.0102 70.115 33.782C71.2569 33.2177 72.443 32.9282 73.6734 32.9137C74.0366 32.9094 74.3886 32.9404 74.7292 33.0067C75.0105 33.0033 75.176 33.1244 75.2257 33.37C75.2755 33.6155 75.3037 34.0195 75.3104 34.5819C74.6153 34.2737 73.8342 34.1247 72.9671 34.135C71.889 34.1478 71.001 34.3751 70.3031 34.8169C69.5815 35.2474 69.2131 35.8026 69.1977 36.4825C69.2016 36.8106 69.4437 36.9718 69.9242 36.9661L71.2056 36.8103C72.3043 36.5629 73.1876 36.4353 73.8556 36.4274ZM85.5506 40.5784C85.4475 40.7789 85.1733 40.8817 84.728 40.887C84.2945 40.8921 84.0758 40.7365 84.0721 40.4201C84.0557 39.0374 84.0152 38.0886 83.9505 37.5737C83.8316 36.4383 83.6018 35.8316 83.261 35.7536C82.4153 35.5995 81.723 35.5257 81.184 35.5321C80.6567 35.5383 80.2192 35.7075 79.8715 36.0398C79.5355 36.3602 79.2781 36.8965 79.0995 37.6487C78.9325 38.389 78.8159 39.4334 78.7498 40.7819L77.3964 40.7979C77.4119 40.1297 77.4163 39.5085 77.4095 38.9344C77.4027 38.3602 77.383 37.6807 77.3502 36.8959C77.3174 36.0993 77.2778 35.2325 77.2316 34.2955C77.1603 33.2182 77.1202 32.3104 77.1115 31.5721C77.1026 30.8222 77.1414 30.1361 77.2278 29.514C77.3423 29.2899 77.5109 29.1766 77.7336 29.174C78.0031 29.1708 78.2152 29.2679 78.3699 29.4653C78.5244 29.651 78.6084 29.8199 78.622 29.9721L78.5684 32.8734C78.5813 33.9631 78.6436 34.7769 78.7555 35.3147C79.8018 34.5991 80.8874 34.2347 82.0123 34.2214C82.3756 34.2171 82.7626 34.2418 83.1734 34.2955C84.0577 34.7422 84.6376 35.2217 84.9132 35.7341C85.0453 36.002 85.1307 36.2882 85.1695 36.5924C85.2082 36.8967 85.2358 37.2421 85.252 37.6286C85.3382 38.9636 85.4377 39.9469 85.5506 40.5784ZM86.9638 37.4677C86.9474 36.085 87.5319 34.9647 88.7171 34.1069C89.6584 33.4278 90.7961 33.01 92.1303 32.8536C92.2006 32.8527 92.3646 32.8508 92.6224 32.8478C92.8802 32.8447 93.2268 32.9168 93.6622 33.064C94.6269 33.3807 95.29 33.953 95.6514 34.7808C95.7959 35.1073 95.8695 35.3877 95.8723 35.622C95.8749 35.8447 95.8709 36.0029 95.8603 36.0968C95.8776 37.5615 95.3347 38.7223 94.2314 39.5792C93.2094 40.3648 91.925 40.7667 90.3782 40.785C89.265 40.7982 88.4183 40.5504 87.838 40.0416C87.2695 39.5326 86.9781 38.6747 86.9638 37.4677ZM88.1816 37.8752C88.1902 38.6017 88.3893 39.0916 88.7791 39.3448C89.0742 39.5289 89.5675 39.6168 90.2589 39.6086C90.9502 39.6004 91.5589 39.5405 92.085 39.4288C92.611 39.3171 93.0776 39.1299 93.4847 38.8673C94.3569 38.2944 94.786 37.4162 94.772 36.2327C94.7637 35.5296 94.5694 34.9577 94.1891 34.5168C93.7733 34.0413 93.2315 33.8074 92.5635 33.8153C92.1075 33.9027 91.6457 33.9961 91.1781 34.0954C90.7222 34.1945 90.2908 34.3813 89.8838 34.6557C89.0001 35.2404 88.4327 36.3136 88.1816 37.8752ZM96.9326 38.3518C96.9304 38.1644 96.9097 37.9068 96.8707 37.5791C96.8433 37.2395 96.8155 36.8707 96.7873 36.4726C96.7592 36.0744 96.7427 35.6703 96.7378 35.2602C96.733 34.8501 96.7637 34.4747 96.83 34.134C96.9733 33.3705 97.2852 32.986 97.7656 32.9803C98.0948 33.0702 98.313 33.1848 98.4201 33.3241C98.5389 33.4634 98.5996 33.6384 98.6021 33.8494C98.6045 34.0486 98.5547 34.3011 98.4529 34.607C98.0782 35.6311 97.8958 36.5532 97.9055 37.3735C97.9086 37.643 97.9296 37.9299 97.9684 38.2341C98.1651 39.017 98.8143 39.4019 99.9158 39.3889C100.49 39.3821 101.034 39.2761 101.547 39.0708C102.527 38.6959 103.19 38.2603 103.535 37.7639C103.635 37.2237 103.682 36.7543 103.677 36.3559C103.672 35.9458 103.65 35.5827 103.611 35.2668C103.584 34.9507 103.545 34.6054 103.494 34.231C103.454 33.8447 103.426 33.4231 103.408 32.9663C103.56 32.8942 103.706 32.8573 103.847 32.8556C103.999 32.8538 104.152 32.9282 104.306 33.0787C104.472 33.2291 104.61 33.5146 104.721 33.9352C104.843 34.3557 104.925 34.8528 104.967 35.4265C105.009 35.9886 105.033 36.5743 105.04 37.1836C105.059 37.7928 105.072 38.3845 105.079 38.9587C105.086 39.5211 105.115 40.0071 105.167 40.4167C105.027 40.5473 104.893 40.6133 104.765 40.6148C104.296 40.6204 103.945 40.1558 103.711 39.221C103.56 39.3517 103.304 39.5129 102.943 39.7047C102.175 40.1357 101.264 40.4277 100.211 40.5808C100.012 40.6066 99.7897 40.6209 99.5436 40.6239C99.2975 40.6268 98.9865 40.5836 98.6104 40.4943C98.246 40.4048 97.8978 40.1921 97.5657 39.8562C97.2335 39.5202 97.0225 39.0188 96.9326 38.3518ZM106.784 33.7526C106.753 33.1201 106.723 32.5579 106.694 32.066C106.664 31.5624 106.642 31.1935 106.628 30.9593C106.625 30.7132 106.524 30.1226 106.325 29.1874C106.429 29.0455 106.527 28.9096 106.62 28.7796C106.723 28.6494 106.869 28.5833 107.057 28.581C107.467 28.5762 107.804 30.3008 108.067 33.755C108.208 35.7574 108.29 37.7604 108.314 39.7642C108.32 40.3032 107.949 40.5772 107.199 40.5861L107.058 40.5701C107.051 39.9608 107.024 39.1818 106.977 38.233C106.931 37.2843 106.892 36.4585 106.86 35.7557C106.84 35.0528 106.815 34.3851 106.784 33.7526ZM117.885 26.3259C117.898 27.4508 117.876 28.5527 117.818 29.6316C117.773 30.6986 117.726 31.748 117.68 32.7799C117.645 33.7999 117.635 34.89 117.648 36.05C117.662 37.1984 117.758 38.4161 117.938 39.7031C117.941 39.9726 117.89 40.1666 117.786 40.285C117.694 40.4033 117.531 40.4638 117.296 40.4666C116.745 40.4731 116.465 40.0194 116.454 39.1054L116.447 38.5254C114.798 39.7871 113.399 40.4248 112.251 40.4384C111.794 40.4438 111.324 40.338 110.841 40.1211C110.369 39.904 109.919 39.4581 109.489 38.7835C109.427 38.5029 109.394 38.2162 109.391 37.9232C109.387 37.6303 109.436 37.2781 109.536 36.8667C109.648 36.4435 109.872 36.0072 110.206 35.5579C110.553 35.1085 110.97 34.711 111.458 34.3653C112.527 33.6261 113.689 33.249 114.943 33.2342C115.482 33.2278 115.999 33.3037 116.493 33.462C116.49 33.251 116.497 32.8818 116.515 32.3542C116.544 31.8265 116.572 31.2695 116.6 30.6831C116.653 29.159 116.689 28.262 116.709 27.9922C116.729 27.7107 116.756 27.476 116.789 27.2881C116.833 27.0883 116.896 26.9177 116.976 26.7761C117.148 26.4811 117.451 26.331 117.885 26.3259ZM110.672 37.7674C110.683 38.6931 111.022 39.1521 111.69 39.1442C111.796 39.1429 111.913 39.1298 112.041 39.1048C112.522 39.0992 113.112 38.9515 113.812 38.662C115.141 38.1189 115.95 37.6523 116.239 37.2621L116.211 34.9244C116.206 34.5143 115.87 34.3131 115.202 34.321C115.12 34.3103 115.008 34.3057 114.868 34.3074C114.739 34.3089 114.534 34.3407 114.254 34.4026C113.973 34.4645 113.658 34.5737 113.308 34.7302C112.958 34.8867 112.615 35.0782 112.278 35.3049C111.569 35.7938 111.083 36.3621 110.821 37.0098C110.719 37.2571 110.669 37.5096 110.672 37.7674ZM126.877 30.1397L126.798 27.8729C126.795 27.6854 126.858 27.5382 126.986 27.4312C127.113 27.3242 127.271 27.2696 127.458 27.2674C127.646 27.2652 127.816 27.3159 127.97 27.4195C128.124 27.5115 128.184 27.6455 128.151 27.8217L128.363 35.4135C129.09 34.4205 130.076 33.5826 131.322 32.8998C132.358 32.325 133.269 32.033 134.054 32.0237C134.746 32.0155 135.281 32.2318 135.662 32.6727C135.947 33.0209 136.093 33.488 136.1 34.0739C136.107 34.648 136.002 35.1532 135.784 35.5894C135.578 36.0138 135.302 36.4272 134.955 36.8298C134.608 37.2206 134.208 37.5887 133.755 37.9339C133.302 38.2791 132.843 38.5893 132.377 38.8643C131.493 39.3904 130.619 39.8285 129.756 40.1786C129.685 40.156 129.568 40.1515 129.404 40.1652C129.24 40.1788 129.041 40.1871 128.807 40.1898C128.174 40.1973 127.616 40.1277 127.134 39.9811C127.004 38.8693 126.925 37.1767 126.898 34.9034L126.877 30.1397ZM128.456 38.7525C128.457 38.8814 128.575 38.9444 128.81 38.9417C129.056 38.9388 129.354 38.8884 129.704 38.7905C130.055 38.6926 130.475 38.5294 130.964 38.3009C131.465 38.0606 131.966 37.7558 132.465 37.3866C133.627 36.5408 134.5 35.5519 135.085 34.4199C134.924 33.7538 134.463 33.4252 133.702 33.4342C133.01 33.4424 132.234 33.7094 131.373 34.2352C130.152 34.988 129.283 35.9124 128.769 37.0084C128.552 37.4446 128.445 37.8854 128.451 38.3306C128.452 38.4478 128.453 38.5416 128.454 38.6119C128.455 38.6822 128.455 38.729 128.456 38.7525ZM140.93 38.9389C141.961 38.9267 143.508 38.4397 145.571 37.4777C145.7 37.4762 145.806 37.5218 145.889 37.6146C145.972 37.6956 146.015 37.7947 146.016 37.9119C145.557 38.7143 144.668 39.3459 143.349 39.8069C142.03 40.2678 140.795 40.3586 139.643 40.0792C138.338 39.7548 137.538 39.0318 137.244 37.9102C137.218 37.6878 137.203 37.3892 137.198 37.0142C137.194 36.6392 137.282 36.146 137.462 35.5344C137.654 34.911 137.981 34.3212 138.443 33.7649C138.905 33.2086 139.451 32.7685 140.08 32.4446C140.709 32.1208 141.381 31.9546 142.096 31.9462C142.775 31.9381 143.54 32.1635 144.389 32.6222C144.79 32.8401 145.109 33.0883 145.347 33.3668C145.585 33.6452 145.705 33.9309 145.709 34.2239C145.71 34.3059 145.705 34.388 145.694 34.4702C145.679 35.1852 145.339 35.6405 144.673 35.8359C144.381 35.9214 144.042 35.9664 143.655 35.971L141.123 35.8954C140.279 35.9054 139.637 36.0947 139.196 36.4632C138.94 36.6654 138.762 36.9664 138.661 37.3661C138.967 38.4289 139.723 38.9532 140.93 38.9389ZM143.995 33.4707C143.735 33.2862 143.463 33.1547 143.181 33.076C142.899 32.9973 142.664 32.959 142.477 32.9612C142.289 32.9635 141.985 33.0315 141.565 33.1654C141.145 33.2876 140.771 33.4268 140.445 33.583C139.641 33.9675 139.241 34.3648 139.246 34.775C140.184 34.8459 140.888 34.8786 141.357 34.8731C142.657 34.8577 143.535 34.736 143.989 34.5079C144.269 34.3874 144.408 34.2393 144.406 34.0635C144.403 33.8526 144.266 33.655 143.995 33.4707ZM10.9387 61.7905C10.0762 63.1836 8.9145 64.0529 7.45364 64.3983C7.11465 64.4726 6.80454 64.5114 6.52331 64.5148C6.2538 64.518 6.0253 64.5207 5.83782 64.5229C5.66191 64.5132 5.46236 64.4863 5.23916 64.4421C5.01597 64.3978 4.81 64.3241 4.62127 64.2208C4.18479 63.9799 3.96392 63.6368 3.95866 63.1915C3.90929 62.9811 3.88308 62.747 3.88003 62.4892C3.87684 62.2197 3.93128 61.8675 4.04333 61.4326C4.15538 60.9976 4.36076 60.5264 4.65946 60.0189C4.96989 59.5113 5.34525 59.0439 5.78554 58.6168C6.70072 57.7153 7.69581 57.1293 8.77081 56.8587C9.08636 56.7847 9.37304 56.7461 9.63083 56.7431C9.90035 56.7399 10.1408 56.7546 10.3521 56.7873C11.0317 56.7793 11.4942 57.2367 11.7395 58.1597C11.8988 58.7438 11.9964 59.563 12.0323 60.6173C12.0798 61.6598 12.1186 62.468 12.1489 63.0419C12.1907 63.6039 12.2729 64.1186 12.3957 64.5859L11.3586 64.5982C11.308 64.2824 11.2695 64.0016 11.2432 63.7558C11.2168 63.51 11.1907 63.2817 11.1648 63.0711C11.1004 62.5796 11.025 62.1528 10.9387 61.7905ZM10.8361 59.0669C10.8281 58.3873 10.4901 58.0514 9.82219 58.0593C9.74003 58.0485 9.65794 58.0436 9.57591 58.0446C8.7205 58.0547 7.82307 58.4755 6.88362 59.307C6.44277 59.6873 6.06693 60.1136 5.75609 60.5861C5.29527 61.2595 5.06798 61.8599 5.07422 62.3872C5.0824 63.0786 5.48566 63.484 6.284 63.6035C7.33834 63.5676 8.3404 63.0752 9.29018 62.1264C9.69546 61.7114 10.03 61.2621 10.2938 60.7785C10.6612 60.1296 10.842 59.559 10.8361 59.0669ZM20.2768 79.2594C20.2605 77.8767 20.8449 76.7564 22.0302 75.8986C22.9714 75.2194 24.1091 74.8016 25.4433 74.6452C25.5136 74.6444 25.6777 74.6424 25.9355 74.6394C26.1933 74.6363 26.5398 74.7084 26.9752 74.8556C27.94 75.1724 28.603 75.7446 28.9644 76.5725C29.1089 76.8989 29.1825 77.1793 29.1853 77.4137C29.1879 77.6363 29.184 77.7946 29.1733 77.8884C29.1907 79.3532 28.6477 80.514 27.5445 81.3708C26.5225 82.1564 25.2381 82.5584 23.6913 82.5767C22.5781 82.5898 21.7314 82.342 21.1511 81.8332C20.5825 81.3243 20.2911 80.4663 20.2768 79.2594ZM21.4946 79.6669C21.5032 80.3934 21.7024 80.8833 22.0921 81.1365C22.3873 81.3205 22.8806 81.4084 23.5719 81.4002C24.2633 81.3921 24.872 81.3321 25.398 81.2204C25.9241 81.1087 26.3907 80.9216 26.7977 80.6589C27.6699 80.0861 28.099 79.2079 28.085 78.0244C28.0767 77.3213 27.8824 76.7493 27.5022 76.3085C27.0864 75.8329 26.5445 75.5991 25.8766 75.607C25.4206 75.6944 24.9588 75.7877 24.4911 75.887C24.0353 75.9862 23.6038 76.1729 23.1969 76.4473C22.3131 77.032 21.7457 78.1052 21.4946 79.6669ZM31.9652 75.4119C33.5523 74.8423 34.9259 74.5506 36.086 74.5369C37.5624 74.5195 38.5513 74.8945 39.0526 75.6621C39.2796 76.0227 39.3955 76.4139 39.4005 76.8358C39.4074 77.4217 39.2271 78.0274 38.8595 78.6528C38.5036 79.2782 38.0239 79.8464 37.4205 80.3575C36.0164 81.5343 34.3024 82.2753 32.2785 82.5806C32.28 82.7095 32.2825 82.9145 32.2858 83.1957C32.301 83.4886 32.3106 83.8107 32.3148 84.1623C32.3307 84.5137 32.341 84.8886 32.3457 85.287C32.3621 85.6853 32.3783 86.0659 32.3944 86.4291C32.4402 87.3309 32.4697 87.8462 32.483 87.975C32.5079 88.1036 32.5209 88.2089 32.5219 88.291C32.5253 88.5839 32.4341 88.8018 32.2483 88.9446C32.0626 89.0992 31.8175 89.1783 31.5128 89.1819C31.4542 89.1826 31.3956 89.1833 31.337 89.184L30.8886 75.0555C30.9923 74.9019 31.1321 74.8299 31.308 74.8395C31.4839 74.8492 31.6251 74.8944 31.7315 74.9752C31.8379 75.0559 31.9158 75.2015 31.9652 75.4119ZM37.1049 75.9664C36.7159 75.7717 36.2987 75.6771 35.8534 75.6823C35.4199 75.6875 34.9868 75.7336 34.5542 75.8207C33.5721 76.0199 32.8505 76.4445 32.3894 77.0945C32.1821 77.4016 32.0811 77.7779 32.0863 78.2232C32.0869 78.27 32.0874 78.3169 32.088 78.3638L32.124 81.4046C34.5315 80.837 36.2334 80.0668 37.2298 79.094C37.8092 78.5363 38.0954 77.9646 38.0885 77.3787C38.0811 76.7576 37.7533 76.2869 37.1049 75.9664ZM43.3741 80.6386L43.376 77.8259C43.3708 77.3806 43.3252 77.0003 43.2395 76.6849L40.5151 76.7171L40.4656 75.5047L43.1021 75.4735L43.0484 70.9387C43.0824 70.8328 43.1514 70.7265 43.2556 70.6198C43.4177 70.4538 43.5515 70.3702 43.657 70.369C43.7742 70.3676 43.8739 70.3781 43.9562 70.4006C44.0385 70.423 44.1274 70.504 44.2228 70.6435C44.4194 71.4147 44.5269 72.5795 44.5454 74.138C44.5499 74.5247 44.572 74.9053 44.6116 75.2799C44.986 75.2286 45.3607 75.2007 45.7357 75.1963C45.7357 75.1963 46.0404 75.1927 46.6497 75.1855C46.8723 75.1828 47.0773 75.1687 47.2645 75.143L47.2267 76.4092L44.6597 76.3692L44.8193 82.4322C44.6095 82.5285 44.4284 82.5775 44.2761 82.5793C43.6902 82.5862 43.3895 81.9393 43.3741 80.6386ZM49.861 73.9872C50.0392 76.1767 50.1982 78.7121 50.3377 81.5935C50.2717 81.9575 49.9926 82.1425 49.5005 82.1483C49.3716 82.1498 49.2365 82.128 49.0954 82.0828C48.9658 82.0257 48.8828 81.9505 48.8466 81.8572L48.7537 74.0003L49.861 73.9872ZM48.1981 71.6161C48.1932 71.206 48.431 70.9981 48.9114 70.9924C49.2278 70.9887 49.4865 71.0559 49.6873 71.1942C49.724 71.3227 49.7431 71.4513 49.7446 71.5802C49.746 71.6974 49.7005 71.8152 49.6082 71.9334C49.5158 72.0517 49.3759 72.112 49.1884 72.1142C49.0009 72.1164 48.8129 72.0776 48.6245 71.9978C48.4359 71.9063 48.2938 71.7791 48.1981 71.6161ZM51.8611 78.8858C51.8447 77.5031 52.4292 76.3828 53.6144 75.525C54.5557 74.8458 55.6934 74.4281 57.0276 74.2716C57.0979 74.2708 57.262 74.2689 57.5197 74.2658C57.7775 74.2628 58.1241 74.3348 58.5595 74.4821C59.5242 74.7988 60.1873 75.3711 60.5487 76.1989C60.6932 76.5253 60.7668 76.8057 60.7696 77.0401C60.7722 77.2627 60.7682 77.421 60.7576 77.5149C60.7749 78.9796 60.232 80.1404 59.1288 80.9973C58.1067 81.7828 56.8223 82.1848 55.2756 82.2031C54.1624 82.2162 53.3156 81.9684 52.7354 81.4596C52.1668 80.9507 51.8754 80.0927 51.8611 78.8858ZM53.0789 79.2933C53.0875 80.0198 53.2867 80.5097 53.6764 80.7629C53.9716 80.9469 54.4648 81.0348 55.1562 81.0267C55.8475 81.0185 56.4563 80.9586 56.9823 80.8469C57.5084 80.7352 57.9749 80.548 58.382 80.2853C59.2542 79.7125 59.6833 78.8343 59.6693 77.6508C59.661 76.9477 59.4667 76.3757 59.0865 75.9349C58.6707 75.4593 58.1288 75.2255 57.4609 75.2334C57.0048 75.3208 56.543 75.4142 56.0754 75.5135C55.6195 75.6126 55.1881 75.7994 54.7812 76.0737C53.8974 76.6584 53.33 77.7316 53.0789 79.2933ZM68.7549 78.1762C68.7384 76.7817 68.6501 75.7573 68.49 75.1029C68.5817 74.926 68.44 74.8398 68.0651 74.8443C67.6667 74.849 67.1522 74.9547 66.5218 75.1614C65.8914 75.3681 65.3782 75.5734 64.9821 75.7773C64.0384 76.2455 63.5163 76.697 63.416 77.1318L63.4726 81.9127L62.2949 81.9267C62.1379 81.5301 62.0485 80.4119 62.0267 78.5722C62.0073 76.9317 62.0223 75.7244 62.0718 74.9503C62.1329 74.1761 62.1804 73.736 62.2144 73.6302C62.5167 73.4274 62.7616 73.3248 62.9491 73.3226C63.242 73.3192 63.3926 73.6631 63.4007 74.3545C63.4039 74.624 63.3895 74.8878 63.3574 75.1461C63.3368 75.3924 63.3271 75.5625 63.3282 75.6562C65.2101 74.2393 66.6724 73.5247 67.7153 73.5124C68.8988 73.4984 69.5839 74.4454 69.7705 76.3535C69.8487 77.0206 69.8948 77.9459 69.9088 79.1294L69.9077 80.5182C69.9138 81.0338 69.9314 81.5316 69.9605 82.0118C69.8442 82.0835 69.7508 82.1198 69.6805 82.1206C69.6452 82.1093 69.5689 82.0926 69.4514 82.0706C69.334 82.0485 69.1814 82.0327 68.9938 82.0232C68.8711 81.5559 68.801 81.0821 68.7836 80.6018C68.7661 80.1098 68.7549 79.6587 68.75 79.2486L68.7549 78.1762ZM80.3555 73.6265C80.5338 75.816 80.6927 78.3514 80.8322 81.2328C80.7662 81.5969 80.4871 81.7818 79.995 81.7876C79.8661 81.7892 79.731 81.7673 79.5899 81.7221C79.4603 81.665 79.3774 81.5898 79.3411 81.4965L79.2482 73.6396L80.3555 73.6265ZM78.6926 71.2554C78.6877 70.8453 78.9255 70.6374 79.406 70.6317C79.7223 70.628 79.981 70.6952 80.1818 70.8335C80.2185 70.962 80.2376 71.0907 80.2391 71.2196C80.2405 71.3367 80.195 71.4545 80.1027 71.5728C80.0103 71.691 79.8704 71.7513 79.6829 71.7535C79.4954 71.7557 79.3075 71.7169 79.119 71.6371C78.9304 71.5456 78.7883 71.4184 78.6926 71.2554ZM88.7652 77.9395C88.7487 76.5451 88.6604 75.5206 88.5003 74.8662C88.5919 74.6894 88.4503 74.6031 88.0753 74.6076C87.6769 74.6123 87.1625 74.718 86.5321 74.9247C85.9017 75.1314 85.3884 75.3367 84.9924 75.5406C84.0486 76.0088 83.5266 76.4603 83.4263 76.8951L83.4828 81.6761L82.3052 81.69C82.1481 81.2934 82.0587 80.1752 82.0369 78.3355C82.0175 76.695 82.0326 75.4877 82.082 74.7136C82.1432 73.9394 82.1907 73.4994 82.2246 73.3935C82.5269 73.1907 82.7718 73.0882 82.9593 73.0859C83.2522 73.0825 83.4028 73.4264 83.411 74.1178C83.4142 74.3873 83.3997 74.6512 83.3676 74.9094C83.3471 75.1557 83.3374 75.3258 83.3385 75.4195C85.2203 74.0026 86.6826 73.288 87.7255 73.2757C88.9091 73.2617 89.5941 74.2087 89.7808 76.1168C89.859 76.7839 89.9051 77.7092 89.9191 78.8927L89.9179 80.2815C89.924 80.7971 89.9416 81.295 89.9708 81.7751C89.8544 81.8468 89.7611 81.8831 89.6908 81.8839C89.6555 81.8726 89.5791 81.8559 89.4616 81.8339C89.3442 81.8118 89.1917 81.796 89.004 81.7865C88.8813 81.3192 88.8112 80.8454 88.7938 80.3651C88.7763 79.8731 88.7651 79.422 88.7603 79.0119L88.7652 77.9395ZM97.2727 77.1533C98.5617 77.138 99.21 77.4585 99.2178 78.1147C99.2236 78.6069 98.873 79.1853 98.166 79.8499C97.1112 80.8351 95.6849 81.6313 93.8873 82.2386C93.8053 82.2396 93.7106 82.1586 93.6032 81.9958C93.5075 81.8329 93.4298 81.7108 93.3703 81.6294C93.3223 81.5362 93.2865 81.4781 93.2627 81.4549C94.605 80.9937 95.706 80.4416 96.5657 79.7985C97.1466 79.3698 97.4354 79.0206 97.4322 78.7511C97.429 78.4816 97.0818 78.3509 96.3904 78.3591C95.6991 78.3673 94.6874 78.5433 93.3554 78.8872C92.7458 78.871 92.216 78.6605 91.7658 78.2556C91.3748 77.8969 91.1772 77.5359 91.1729 77.1727C91.1685 76.7977 91.2699 76.4566 91.4772 76.1495C91.6844 75.8306 91.9622 75.5343 92.3105 75.2607C92.6589 74.987 93.0661 74.7361 93.5322 74.5079C94.674 73.9435 95.8601 73.6541 97.0905 73.6396C97.4538 73.6353 97.8057 73.6663 98.1464 73.7325C98.4276 73.7292 98.5931 73.8503 98.6429 74.0958C98.6927 74.3414 98.7209 74.7454 98.7275 75.3078C98.0324 74.9996 97.2513 74.8506 96.3842 74.8609C95.3061 74.8736 94.4181 75.101 93.7202 75.5428C92.9987 75.9733 92.6302 76.5284 92.6148 77.2084C92.6187 77.5365 92.8609 77.6977 93.3413 77.692L94.6227 77.5362C95.7215 77.2888 96.6048 77.1612 97.2727 77.1533ZM103.344 79.9293L103.346 77.1166C103.34 76.6713 103.295 76.291 103.209 75.9756L100.485 76.0078L100.435 74.7954L103.072 74.7642L103.018 70.2294C103.052 70.1235 103.121 70.0172 103.225 69.9105C103.387 69.7445 103.521 69.6609 103.627 69.6596C103.744 69.6582 103.843 69.6688 103.926 69.6913C104.008 69.7137 104.097 69.7947 104.192 69.9342C104.389 70.7054 104.496 71.8702 104.515 73.4287C104.52 73.8154 104.542 74.196 104.581 74.5706C104.956 74.5193 105.33 74.4914 105.705 74.4869C105.705 74.4869 106.01 74.4833 106.619 74.4761C106.842 74.4735 107.047 74.4594 107.234 74.4337L107.196 75.6999L104.629 75.6599L104.789 81.7229C104.579 81.8191 104.398 81.8682 104.246 81.87C103.66 81.8769 103.359 81.23 103.344 79.9293ZM111.917 80.285C112.949 80.2728 114.496 79.7857 116.559 78.8237C116.688 78.8222 116.794 78.8678 116.877 78.9606C116.96 79.0417 117.002 79.1408 117.003 79.258C116.544 80.0603 115.655 80.692 114.336 81.1529C113.017 81.6139 111.782 81.7046 110.63 81.4253C109.325 81.1008 108.526 80.3778 108.231 79.2562C108.205 79.0339 108.19 78.7352 108.185 78.3602C108.181 77.9853 108.269 77.492 108.449 76.8804C108.641 76.257 108.968 75.6672 109.43 75.1109C109.893 74.5546 110.438 74.1145 111.067 73.7907C111.696 73.4668 112.368 73.3006 113.083 73.2922C113.763 73.2841 114.527 73.5095 115.376 73.9682C115.777 74.1862 116.097 74.4344 116.334 74.7128C116.572 74.9913 116.693 75.277 116.696 75.5699C116.697 75.6519 116.692 75.734 116.681 75.8162C116.666 76.5313 116.326 76.9865 115.66 77.1819C115.368 77.2674 115.029 77.3124 114.642 77.317L112.11 77.2415C111.266 77.2514 110.624 77.4407 110.183 77.8092C109.928 78.0115 109.749 78.3124 109.649 78.7121C109.954 79.775 110.711 80.2992 111.917 80.285ZM114.982 74.8167C114.722 74.6323 114.451 74.5007 114.169 74.422C113.886 74.3433 113.652 74.3051 113.464 74.3073C113.277 74.3095 112.973 74.3775 112.552 74.5114C112.132 74.6336 111.759 74.7728 111.432 74.929C110.628 75.3135 110.228 75.7109 110.233 76.121C111.172 76.1919 111.875 76.2246 112.344 76.2191C113.645 76.2037 114.522 76.082 114.977 75.8539C115.256 75.7334 115.395 75.5853 115.393 75.4095C115.391 75.1986 115.254 75.001 114.982 74.8167ZM125.317 78.4389C124.455 79.832 123.293 80.7012 121.832 81.0467C121.493 81.121 121.183 81.1598 120.902 81.1631C120.632 81.1663 120.404 81.169 120.216 81.1713C120.04 81.1616 119.841 81.1347 119.618 81.0904C119.394 81.0462 119.188 80.9725 119 80.8692C118.563 80.6283 118.342 80.2852 118.337 79.8399C118.288 79.6295 118.262 79.3954 118.258 79.1376C118.255 78.8681 118.31 78.5159 118.422 78.0809C118.534 77.646 118.739 77.1748 119.038 76.6673C119.348 76.1597 119.724 75.6923 120.164 75.2652C121.079 74.3637 122.074 73.7777 123.149 73.5071C123.465 73.4331 123.752 73.3945 124.009 73.3915C124.279 73.3883 124.519 73.403 124.731 73.4357C125.41 73.4276 125.873 73.8851 126.118 74.808C126.277 75.3921 126.375 76.2114 126.411 77.2657C126.458 78.3082 126.497 79.1164 126.527 79.6903C126.569 80.2523 126.651 80.767 126.774 81.2343L125.737 81.2466C125.686 80.9308 125.648 80.6499 125.622 80.4041C125.595 80.1583 125.569 79.9301 125.543 79.7195C125.479 79.228 125.403 78.8011 125.317 78.4389ZM125.215 75.7153C125.207 75.0356 124.869 74.6998 124.201 74.7077C124.118 74.6969 124.036 74.692 123.954 74.693C123.099 74.7031 122.202 75.1239 121.262 75.9554C120.821 76.3356 120.445 76.762 120.135 77.2344C119.674 77.9079 119.446 78.5083 119.453 79.0356C119.461 79.727 119.864 80.1324 120.662 80.2519C121.717 80.2159 122.719 79.7236 123.669 78.7748C124.074 78.3598 124.408 77.9105 124.672 77.4269C125.04 76.778 125.22 76.2074 125.215 75.7153ZM136.108 67.1132C136.122 68.2381 136.1 69.34 136.042 70.4189C135.996 71.4859 135.95 72.5353 135.903 73.5672C135.869 74.5872 135.858 75.6773 135.872 76.8374C135.885 77.9857 135.982 79.2034 136.161 80.4904C136.164 80.76 136.114 80.9539 136.01 81.0723C135.917 81.1906 135.754 81.2512 135.52 81.2539C134.969 81.2605 134.688 80.8067 134.677 79.8927L134.671 79.3127C133.021 80.5745 131.622 81.2121 130.474 81.2257C130.017 81.2311 129.547 81.1253 129.064 80.9084C128.593 80.6913 128.142 80.2454 127.712 79.5708C127.65 79.2902 127.618 79.0035 127.614 78.7105C127.611 78.4176 127.659 78.0654 127.76 77.6541C127.872 77.2308 128.095 76.7946 128.43 76.3453C128.776 75.8958 129.193 75.4983 129.682 75.1526C130.751 74.4134 131.913 74.0363 133.166 74.0215C133.705 74.0151 134.222 74.091 134.716 74.2493C134.714 74.0384 134.721 73.6691 134.738 73.1415C134.767 72.6138 134.796 72.0568 134.824 71.4705C134.876 69.9463 134.912 69.0493 134.933 68.7795C134.953 68.498 134.979 68.2633 135.012 68.0754C135.057 67.8757 135.119 67.705 135.2 67.5634C135.372 67.2684 135.675 67.1183 136.108 67.1132ZM128.896 78.5547C128.906 79.4805 129.246 79.9394 129.914 79.9315C130.019 79.9302 130.136 79.9171 130.265 79.8922C130.745 79.8865 131.336 79.7389 132.035 79.4493C133.365 78.9062 134.174 78.4396 134.462 78.0494L134.435 75.7117C134.43 75.3016 134.093 75.1005 133.425 75.1084C133.343 75.0976 133.232 75.0931 133.091 75.0947C132.962 75.0963 132.758 75.128 132.477 75.1899C132.197 75.2518 131.881 75.361 131.532 75.5175C131.182 75.674 130.838 75.8656 130.501 76.0922C129.792 76.5811 129.307 77.1494 129.045 77.7971C128.942 78.0444 128.892 78.297 128.896 78.5547ZM42.8411 95.7984C44.1301 95.7831 44.7785 96.1036 44.7862 96.7598C44.7921 97.2519 44.4414 97.8303 43.7344 98.495C42.6796 99.4802 41.2534 100.276 39.4557 100.884C39.3737 100.885 39.279 100.804 39.1716 100.641C39.0759 100.478 38.9983 100.356 38.9387 100.275C38.8907 100.181 38.8549 100.123 38.8312 100.1C40.1735 99.6388 41.2744 99.0866 42.1341 98.4436C42.715 98.0148 43.0039 97.6657 43.0007 97.3962C42.9975 97.1267 42.6502 96.996 41.9588 97.0042C41.2675 97.0124 40.2558 97.1884 38.9239 97.5323C38.3143 97.5161 37.7844 97.3055 37.3343 96.9007C36.9433 96.542 36.7456 96.181 36.7413 95.8178C36.7369 95.4428 36.8383 95.1017 37.0456 94.7946C37.2528 94.4757 37.5306 94.1794 37.8789 93.9057C38.2273 93.6321 38.6345 93.3811 39.1006 93.153C40.2424 92.5886 41.4286 92.2992 42.6589 92.2846C43.0222 92.2803 43.3741 92.3113 43.7148 92.3776C43.996 92.3743 44.1615 92.4954 44.2113 92.7409C44.2611 92.9864 44.2893 93.3904 44.296 93.9529C43.6009 93.6447 42.8198 93.4957 41.9526 93.506C40.8746 93.5187 39.9866 93.746 39.2886 94.1879C38.5671 94.6184 38.1986 95.1735 38.1833 95.8534C38.1871 96.1815 38.4293 96.3428 38.9097 96.3371L40.1912 96.1813C41.2899 95.9339 42.1732 95.8063 42.8411 95.7984ZM46.1624 97.9565C46.1602 97.769 46.1396 97.5114 46.1006 97.1837C46.0731 96.8442 46.0453 96.4753 46.0172 96.0772C45.989 95.6791 45.9725 95.275 45.9677 94.8648C45.9628 94.4547 45.9935 94.0793 46.0598 93.7387C46.2031 92.9752 46.515 92.5906 46.9954 92.5849C47.3247 92.6748 47.5428 92.7894 47.6499 92.9288C47.7688 93.068 47.8295 93.2431 47.832 93.454C47.8343 93.6532 47.7846 93.9058 47.6827 94.2117C47.3081 95.2357 47.1256 96.1579 47.1353 96.9781C47.1385 97.2476 47.1595 97.5345 47.1982 97.8388C47.395 98.6216 48.0441 99.0066 49.1456 98.9935C49.7198 98.9868 50.2635 98.8807 50.7767 98.6754C51.7567 98.3005 52.4196 97.8649 52.7653 97.3686C52.8644 96.8283 52.9116 96.359 52.9069 95.9606C52.902 95.5504 52.8802 95.1874 52.8413 94.8714C52.8141 94.5553 52.7748 94.21 52.7235 93.8356C52.6838 93.4494 52.6554 93.0278 52.6383 92.5709C52.7898 92.4988 52.9358 92.4619 53.0764 92.4603C53.2288 92.4585 53.382 92.5328 53.5361 92.6834C53.702 92.8338 53.8401 93.1192 53.9506 93.5398C54.0728 93.9603 54.1548 94.4574 54.1968 95.0312C54.2386 95.5932 54.2631 96.1789 54.2703 96.7882C54.2892 97.3974 54.3021 97.9891 54.3089 98.5633C54.3155 99.1258 54.3447 99.6118 54.3964 100.021C54.2573 100.152 54.1233 100.218 53.9944 100.219C53.5257 100.225 53.1745 99.7604 52.9408 98.8256C52.79 98.9563 52.534 99.1175 52.173 99.3093C51.4046 99.7403 50.4939 100.032 49.441 100.185C49.2421 100.211 49.0195 100.226 48.7735 100.228C48.5274 100.231 48.2163 100.188 47.8402 100.099C47.4759 100.009 47.1276 99.7968 46.7955 99.4608C46.4634 99.1249 46.2524 98.6234 46.1624 97.9565ZM55.7628 89.985L55.6833 87.7182C55.681 87.5307 55.7438 87.3834 55.8714 87.2765C55.9991 87.1695 56.1566 87.1149 56.3441 87.1127C56.5316 87.1104 56.7021 87.1612 56.8557 87.2648C57.0092 87.3568 57.0693 87.4908 57.0363 87.667L57.2491 95.2588C57.9757 94.2657 58.962 93.4278 60.2079 92.7451C61.2441 92.1703 62.1548 91.8782 62.9399 91.869C63.6312 91.8608 64.167 92.0771 64.5473 92.518C64.8327 92.8662 64.9788 93.3332 64.9858 93.9191C64.9926 94.4933 64.8872 94.9985 64.6697 95.4347C64.4637 95.859 64.1874 96.2725 63.8405 96.675C63.4936 97.0659 63.0936 97.4339 62.6406 97.7792C62.1876 98.1244 61.7284 98.4345 61.2629 98.7096C60.3784 99.2357 59.5046 99.6738 58.6415 100.024C58.5709 100.001 58.4537 99.9968 58.2898 100.01C58.1258 100.024 57.9267 100.032 57.6924 100.035C57.0596 100.043 56.5021 99.973 56.0198 99.8264C55.8895 98.7145 55.8109 97.022 55.784 94.7487L55.7628 89.985ZM57.3413 98.5978C57.3429 98.7267 57.4608 98.7897 57.6952 98.7869C57.9412 98.784 58.2395 98.7336 58.5899 98.6357C58.9404 98.5378 59.3603 98.3746 59.8499 98.1462C60.3509 97.9059 60.8513 97.6011 61.3509 97.2319C62.5128 96.386 63.3859 95.3971 63.9703 94.2651C63.81 93.599 63.3491 93.2705 62.5874 93.2795C61.896 93.2877 61.1199 93.5547 60.2588 94.0805C59.0372 94.8333 58.1691 95.7577 57.6547 96.8537C57.4372 97.2899 57.3311 97.7306 57.3364 98.1759C57.3377 98.2931 57.3388 98.3868 57.3397 98.4571C57.3405 98.5274 57.3411 98.5743 57.3413 98.5978ZM72.2023 95.4511C73.4912 95.4358 74.1396 95.7563 74.1474 96.4125C74.1532 96.9047 73.8026 97.4831 73.0956 98.1477C72.0407 99.1329 70.6145 99.9291 68.8169 100.536C68.7348 100.537 68.6401 100.456 68.5327 100.294C68.437 100.131 68.3594 100.009 68.2999 99.9272C68.2519 99.834 68.216 99.7759 68.1923 99.7527C69.5346 99.2915 70.6356 98.7394 71.4952 98.0963C72.0761 97.6676 72.365 97.3184 72.3618 97.0489C72.3586 96.7794 72.0113 96.6487 71.32 96.6569C70.6286 96.6651 69.617 96.8411 68.285 97.185C67.6754 97.1688 67.1455 96.9582 66.6954 96.5534C66.3044 96.1947 66.1068 95.8337 66.1025 95.4705C66.098 95.0955 66.1995 94.7544 66.4068 94.4473C66.614 94.1284 66.8917 93.8321 67.2401 93.5585C67.5884 93.2848 67.9957 93.0339 68.4617 92.8057C69.6036 92.2413 70.7897 91.9519 72.0201 91.9374C72.3833 91.9331 72.7353 91.964 73.0759 92.0303C73.3572 92.027 73.5227 92.1481 73.5725 92.3936C73.6222 92.6392 73.6505 93.0431 73.6571 93.6056C72.962 93.2974 72.1809 93.1484 71.3138 93.1587C70.2357 93.1714 69.3477 93.3987 68.6498 93.8406C67.9283 94.2711 67.5598 94.8262 67.5444 95.5062C67.5483 95.8343 67.7904 95.9955 68.2709 95.9898L69.5523 95.834C70.651 95.5866 71.5344 95.459 72.2023 95.4511ZM82.7184 98.0163C83.1964 97.8114 83.663 97.6243 84.1181 97.4548C84.5731 97.2853 85.0057 97.1982 85.4158 97.1933C85.8377 97.1884 86.0501 97.3148 86.0532 97.5726C86.0539 97.6311 86.0374 97.7251 86.0038 97.8544C85.9817 97.9719 85.8253 98.1202 85.5344 98.2994C85.2551 98.4668 84.9054 98.6292 84.4854 98.7865C84.0771 98.9437 83.6276 99.0896 83.137 99.2243C82.6463 99.3591 82.1672 99.4761 81.6996 99.5754C80.7294 99.7861 80.0392 99.8938 79.6291 99.8987C79.2189 99.9035 78.7731 99.8619 78.2916 99.7739C77.8217 99.6857 77.3805 99.5385 76.9679 99.3325C76.0129 98.8515 75.5297 98.1306 75.5184 97.1698C75.5176 97.0995 75.5159 96.9589 75.5134 96.7479C75.5109 96.537 75.5952 96.2372 75.7664 95.8484C75.9375 95.4479 76.1965 95.0522 76.5435 94.6614C76.8903 94.2588 77.2961 93.8907 77.761 93.5571C78.737 92.8423 79.7627 92.3732 80.8383 92.1495C81.2123 92.063 81.5223 92.0183 81.7684 92.0154C82.0262 92.0124 82.2372 92.0157 82.4014 92.0255C82.5654 92.0236 82.7355 92.0333 82.9115 92.0546C83.0874 92.0643 83.2403 92.1035 83.37 92.1723C83.6764 92.321 83.8323 92.618 83.8376 93.0633C83.8409 93.3445 83.645 93.6222 83.2497 93.8965C83.1451 93.968 83.0521 94.0336 82.9708 94.0931C82.909 93.8243 82.8302 93.5967 82.7342 93.4103C82.6382 93.224 82.4321 93.1326 82.1157 93.1364C80.7364 93.4457 79.5522 93.8992 78.5632 94.4969C77.4461 95.1781 76.892 95.8878 76.9007 96.626C76.9017 96.7081 76.9086 96.7959 76.9214 96.8895C76.9303 97.6394 77.2237 98.1692 77.8016 98.4788C78.2379 98.708 78.7959 98.8186 79.4756 98.8106C80.1669 98.8024 80.7636 98.7192 81.2657 98.5609C81.7676 98.3909 82.2519 98.2094 82.7184 98.0163ZM95.9433 93.2893C95.447 92.9435 94.8121 92.7753 94.0387 92.7844C93.3122 92.793 92.6401 92.9357 92.0222 93.2126C90.8562 93.7186 90.061 94.3609 89.6366 95.1394C89.4533 95.4931 89.364 95.8692 89.3687 96.2676C89.3695 96.3379 89.3719 96.5371 89.3758 96.8652C89.3795 97.1816 89.4432 97.6145 89.5669 98.1638C89.6905 98.7015 89.7556 99.2515 89.7622 99.814C89.5163 99.8286 89.3174 99.8603 89.1656 99.909C89.0139 99.9576 88.8852 99.9826 88.7798 99.9838C88.6743 99.9851 88.58 99.9393 88.4969 99.8465C88.4255 99.7536 88.3413 99.573 88.2444 99.3046C88.2318 99.2344 88.206 99.0355 88.167 98.7078C88.128 98.3801 88.0764 97.9822 88.0122 97.5142C87.9598 97.0461 87.8952 96.537 87.8184 95.9871C87.7531 95.4253 87.688 94.8753 87.6231 94.337C87.4803 93.1667 87.3705 92.3066 87.2937 91.7567C87.2904 91.4755 87.4938 91.3324 87.9039 91.3276C88.15 91.3247 88.3446 91.4278 88.4877 91.6371C88.6307 91.8346 88.7447 92.0677 88.83 92.3362C88.915 92.593 88.9708 92.8502 88.9973 93.1077C89.0355 93.3651 89.0669 93.5464 89.0916 93.6516C90.622 92.2506 92.5356 91.5365 94.8323 91.5093C95.0901 91.5063 95.3597 91.5089 95.6411 91.5173C95.7112 91.5048 95.799 91.4979 95.9045 91.4966C96.01 91.4954 96.1163 91.5644 96.2234 91.7038C96.3542 91.8663 96.421 92.0648 96.4238 92.2991C96.4307 92.885 96.2706 93.2151 95.9433 93.2893ZM99.164 91.4053C99.3423 93.5948 99.5012 96.1302 99.6408 99.0116C99.5747 99.3756 99.2957 99.5606 98.8035 99.5664C98.6746 99.5679 98.5396 99.5461 98.3984 99.5009C98.2688 99.4438 98.1859 99.3686 98.1496 99.2753L98.0567 91.4184L99.164 91.4053ZM97.5011 89.0342C97.4963 88.6241 97.7341 88.4162 98.2145 88.4105C98.5309 88.4068 98.7895 88.474 98.9904 88.6123C99.0271 88.7408 99.0462 88.8694 99.0477 88.9983C99.0491 89.1155 99.0036 89.2333 98.9112 89.3515C98.8189 89.4698 98.6789 89.5301 98.4915 89.5323C98.304 89.5345 98.116 89.4957 97.9275 89.4159C97.7389 89.3244 97.5968 89.1972 97.5011 89.0342ZM100.749 89.4529L100.67 87.1861C100.667 86.9986 100.73 86.8513 100.858 86.7444C100.985 86.6374 101.143 86.5828 101.33 86.5805C101.518 86.5783 101.688 86.6291 101.842 86.7327C101.995 86.8247 102.056 86.9587 102.023 87.1349L102.235 94.7267C102.962 93.7336 103.948 92.8957 105.194 92.213C106.23 91.6382 107.141 91.3461 107.926 91.3369C108.618 91.3287 109.153 91.545 109.534 91.9859C109.819 92.3341 109.965 92.8011 109.972 93.387C109.979 93.9612 109.874 94.4664 109.656 94.9026C109.45 95.3269 109.174 95.7404 108.827 96.1429C108.48 96.5338 108.08 96.9018 107.627 97.2471C107.174 97.5923 106.715 97.9024 106.249 98.1775C105.365 98.7036 104.491 99.1417 103.628 99.4918C103.557 99.4692 103.44 99.4647 103.276 99.4784C103.112 99.492 102.913 99.5002 102.679 99.503C102.046 99.5105 101.488 99.4409 101.006 99.2943C100.876 98.1824 100.797 96.4899 100.77 94.2166L100.749 89.4529ZM102.328 98.0657C102.329 98.1945 102.447 98.2576 102.681 98.2548C102.928 98.2519 103.226 98.2015 103.576 98.1036C103.927 98.0057 104.347 97.8425 104.836 97.6141C105.337 97.3738 105.838 97.069 106.337 96.6998C107.499 95.8539 108.372 94.865 108.957 93.733C108.796 93.0669 108.335 92.7384 107.574 92.7474C106.882 92.7556 106.106 93.0226 105.245 93.5484C104.023 94.3012 103.155 95.2256 102.641 96.3216C102.424 96.7578 102.317 97.1985 102.323 97.6438C102.324 97.761 102.325 97.8547 102.326 97.925C102.327 97.9953 102.327 98.0422 102.328 98.0657ZM114.802 98.2521C115.833 98.2399 117.38 97.7528 119.443 96.7909C119.572 96.7893 119.678 96.835 119.761 96.9277C119.844 97.0088 119.887 97.1079 119.888 97.2251C119.429 98.0275 118.54 98.6591 117.221 99.1201C115.902 99.581 114.666 99.6718 113.515 99.3924C112.21 99.068 111.41 98.345 111.116 97.2234C111.09 97.001 111.074 96.7023 111.07 96.3274C111.066 95.9524 111.154 95.4591 111.334 94.8476C111.526 94.2242 111.853 93.6343 112.315 93.078C112.777 92.5218 113.323 92.0817 113.952 91.7578C114.581 91.4339 115.253 91.2678 115.967 91.2593C116.647 91.2513 117.412 91.4766 118.261 91.9354C118.662 92.1533 118.981 92.4015 119.219 92.68C119.457 92.9584 119.577 93.2441 119.581 93.5371C119.582 93.6191 119.577 93.7012 119.566 93.7833C119.551 94.4984 119.211 94.9536 118.545 95.149C118.253 95.2345 117.914 95.2796 117.527 95.2841L114.995 95.2086C114.151 95.2186 113.509 95.4078 113.068 95.7764C112.812 95.9786 112.634 96.2796 112.533 96.6792C112.839 97.7421 113.595 98.2664 114.802 98.2521ZM117.867 92.7838C117.606 92.5994 117.335 92.4678 117.053 92.3891C116.771 92.3104 116.536 92.2722 116.349 92.2744C116.161 92.2766 115.857 92.3447 115.437 92.4786C115.016 92.6007 114.643 92.7399 114.317 92.8961C113.513 93.2807 113.113 93.678 113.118 94.0881C114.056 94.1591 114.76 94.1918 115.229 94.1862C116.529 94.1709 117.407 94.0491 117.861 93.8211C118.141 93.7006 118.28 93.5524 118.278 93.3767C118.275 93.1658 118.138 92.9681 117.867 92.7838Z" fill="#FFD335"/>
<path d="M30.6383 56.811L30.5156 52.3825C30.5072 51.6794 30.5156 51.0621 30.5405 50.5305C30.5809 49.9831 30.6949 49.7083 30.8824 49.7061L32.4526 49.6875C32.4555 49.9375 32.4847 50.4216 32.5401 51.1397C32.5954 51.8579 32.6353 52.584 32.6596 53.3181C32.6837 54.0367 32.6988 54.6537 32.7049 55.1693C32.711 55.6849 32.7112 56.3568 32.7053 57.1851C32.6993 57.9977 32.6318 58.897 32.5028 59.883C32.2015 62.1523 31.5931 63.558 30.6776 64.1002C29.9791 64.4991 28.8631 64.606 27.3296 64.421C25.7802 64.2206 24.4156 63.7836 23.2357 63.11C21.8514 62.3294 21.0513 61.4013 20.8354 60.3257C20.8311 59.9663 20.9446 59.6525 21.1758 59.3841C21.5918 58.8791 21.9716 58.6246 22.3153 58.6205C22.3415 59.5109 22.5923 60.2424 23.0679 60.8149C24.1771 62.1144 25.9425 62.7498 28.3643 62.7212C28.7705 62.7164 29.1686 62.6882 29.5586 62.6367C30.3194 62.2214 30.6793 60.2796 30.6383 56.811ZM35.0231 59.9703C35.0013 58.1267 35.7806 56.633 37.3609 55.4893C38.6159 54.5837 40.1329 54.0267 41.9118 53.8181C42.0055 53.817 42.2243 53.8144 42.568 53.8104C42.9117 53.8063 43.3738 53.9024 43.9543 54.0987C45.2406 54.521 46.1247 55.284 46.6066 56.3878C46.7992 56.823 46.8974 57.1969 46.9011 57.5094C46.9046 57.8062 46.8993 58.0172 46.8851 58.1424C46.9082 60.0954 46.1843 61.6431 44.7133 62.7856C43.3506 63.8331 41.6381 64.369 39.5758 64.3934C38.0915 64.4109 36.9625 64.0805 36.1888 63.4021C35.4307 62.7235 35.0422 61.5796 35.0231 59.9703ZM36.6468 60.5137C36.6583 61.4824 36.9239 62.1355 37.4435 62.4731C37.8371 62.7185 38.4948 62.8357 39.4166 62.8248C40.3384 62.8139 41.15 62.734 41.8514 62.5851C42.5528 62.4361 43.1749 62.1866 43.7177 61.8364C44.8806 61.0726 45.4527 59.9017 45.4341 58.3237C45.423 57.3862 45.1639 56.6236 44.6569 56.0358C44.1025 55.4017 43.38 55.0899 42.4895 55.1004C41.8814 55.217 41.2657 55.3415 40.6422 55.4739C40.0344 55.6061 39.4591 55.8551 38.9165 56.2209C37.7382 57.0005 36.9816 58.4314 36.6468 60.5137ZM50.4479 53.2249C50.6855 56.1442 50.8974 59.5248 51.0835 63.3666C50.9955 63.852 50.6234 64.0986 49.9671 64.1064C49.7953 64.1084 49.6152 64.0793 49.427 64.019C49.2542 63.9429 49.1437 63.8427 49.0953 63.7182L48.9714 53.2424L50.4479 53.2249ZM48.2306 50.0634C48.2242 49.5166 48.5412 49.2394 49.1818 49.2318C49.6036 49.2268 49.9485 49.3165 50.2163 49.5009C50.2652 49.6722 50.2907 49.8438 50.2927 50.0156C50.2945 50.1719 50.2339 50.3288 50.1108 50.4865C49.9876 50.6443 49.8011 50.7246 49.5511 50.7276C49.3011 50.7305 49.0505 50.6788 48.7992 50.5724C48.5477 50.4503 48.3582 50.2807 48.2306 50.0634ZM61.6607 58.9755C61.6387 57.1163 61.521 55.7504 61.3075 54.8779C61.4298 54.642 61.2409 54.5271 60.7409 54.533C60.2097 54.5393 59.5238 54.6802 58.6833 54.9558C57.8427 55.2314 57.1584 55.5051 56.6303 55.777C55.372 56.4013 54.676 57.0033 54.5422 57.5831L54.6176 63.9576L53.0474 63.9762C52.838 63.4474 52.7188 61.9565 52.6898 59.5036C52.6639 57.3162 52.6839 55.7065 52.7498 54.6744C52.8314 53.6421 52.8948 53.0554 52.94 52.9142C53.3431 52.6438 53.6696 52.5071 53.9196 52.5041C54.3102 52.4995 54.5109 52.9581 54.5218 53.8799C54.5261 54.2393 54.5068 54.5911 54.464 54.9354C54.4366 55.2638 54.4237 55.4906 54.4252 55.6156C56.9342 53.7264 58.884 52.7736 60.2746 52.7571C61.8526 52.7385 62.766 54.0012 63.0149 56.5453C63.1192 57.4347 63.1806 58.6685 63.1993 60.2465L63.1978 62.0982C63.2059 62.7857 63.2294 63.4495 63.2682 64.0897C63.1131 64.1853 62.9886 64.2336 62.8949 64.2347C62.8478 64.2197 62.746 64.1974 62.5894 64.168C62.4328 64.1386 62.2294 64.1176 61.9792 64.1049C61.8156 63.4818 61.7222 62.8501 61.699 62.2097C61.6756 61.5537 61.6607 60.9522 61.6542 60.4054L61.6607 58.9755ZM83.9784 57.3755C83.6481 58.5201 83.3716 59.5782 83.1487 60.5496C82.9414 61.5209 82.7322 62.3281 82.521 62.9713C82.1882 63.8972 81.803 64.3627 81.3656 64.3679C81.1312 64.3706 80.8643 64.2644 80.5649 64.0492C79.8371 63.2921 78.8015 61.6089 77.458 58.9996C76.1466 56.4525 75.4871 54.8586 75.4795 54.218C75.4762 53.9368 75.5601 53.7639 75.7312 53.6994C75.9021 53.6192 76.0973 53.6091 76.3168 53.669C76.8499 53.819 77.2277 54.0567 77.4503 54.3822C77.5615 54.5372 77.6976 54.809 77.8584 55.1978L78.4615 56.6439C79.1371 58.2766 79.8032 59.7688 80.4599 61.1205C80.7973 60.5853 81.1173 59.8939 81.4198 59.0465L82.1225 57.0225C82.7266 55.2496 83.2784 54.3445 83.778 54.3074C84.1656 54.0528 85.3538 55.4216 87.3424 58.4139C88.1857 59.6853 88.7103 60.4448 88.9164 60.6924C89.057 60.6907 89.2155 60.22 89.3919 59.2804C89.5839 58.3406 89.7464 57.5495 89.8795 56.9073C90.028 56.2492 90.2082 55.6377 90.4203 55.0726C90.9204 53.7541 91.5063 53.0909 92.1782 53.0829C92.3969 53.0804 92.5462 53.1567 92.6262 53.312C92.7216 53.4515 92.7699 53.5682 92.771 53.6619C92.7721 53.7556 92.7729 53.826 92.7735 53.8728C92.5923 54.4063 92.4042 55.0179 92.2092 55.7078C92.014 56.382 91.8035 57.0798 91.5777 57.8013C91.3673 58.507 91.149 59.2127 90.923 59.9186C90.7124 60.6086 90.501 61.2362 90.289 61.8012C89.7878 63.026 89.3659 63.6873 89.0233 63.7851C88.7591 63.9132 88.3259 63.6136 87.7235 62.8863C87.4538 62.5457 87.1678 62.1428 86.8654 61.6776C86.563 61.2124 86.2448 60.7318 85.9108 60.2357C85.0992 58.9952 84.455 58.0418 83.9784 57.3755ZM104.198 59.7147C103.048 61.5722 101.499 62.7312 99.5517 63.1917C99.0997 63.2909 98.6862 63.3426 98.3112 63.3471C97.9519 63.3513 97.6472 63.3549 97.3972 63.3579C97.1627 63.345 96.8966 63.3091 96.599 63.2501C96.3014 63.1911 96.0268 63.0928 95.7752 62.9551C95.1932 62.6339 94.8987 62.1764 94.8917 61.5827C94.8259 61.3022 94.7909 60.9901 94.7869 60.6464C94.7826 60.287 94.8552 59.8174 95.0046 59.2374C95.154 58.6575 95.4278 58.0292 95.8261 57.3526C96.24 56.6758 96.7405 56.0526 97.3275 55.4831C98.5478 54.2811 99.8746 53.4998 101.308 53.139C101.729 53.0403 102.111 52.9889 102.455 52.9848C102.814 52.9806 103.135 53.0002 103.416 53.0438C104.322 53.0331 104.939 53.643 105.266 54.8736C105.479 55.6524 105.609 56.7447 105.657 58.1504C105.72 59.5404 105.772 60.618 105.812 61.3832C105.868 62.1326 105.977 62.8188 106.141 63.442L104.758 63.4583C104.691 63.0372 104.64 62.6628 104.604 62.3351C104.569 62.0073 104.534 61.703 104.5 61.4222C104.414 60.7669 104.313 60.1977 104.198 59.7147ZM104.062 56.0832C104.051 55.177 103.6 54.7292 102.71 54.7397C102.6 54.7254 102.491 54.7189 102.381 54.7202C101.241 54.7337 100.044 55.2947 98.7916 56.4034C98.2038 56.9104 97.7027 57.4788 97.2883 58.1088C96.6738 59.0067 96.3708 59.8073 96.3791 60.5103C96.39 61.4321 96.9277 61.9727 97.9922 62.132C99.3979 62.0841 100.734 61.4276 102 60.1626C102.541 59.6093 102.987 59.0102 103.339 58.3654C103.828 57.5001 104.069 56.7394 104.062 56.0832ZM109.703 52.5241C109.941 55.4433 110.153 58.8239 110.339 62.6657C110.251 63.1511 109.879 63.3977 109.222 63.4055C109.051 63.4075 108.87 63.3784 108.682 63.3181C108.509 63.2421 108.399 63.1418 108.351 63.0174L108.227 52.5415L109.703 52.5241ZM107.486 49.3626C107.479 48.8157 107.796 48.5385 108.437 48.5309C108.859 48.526 109.204 48.6156 109.472 48.8C109.52 48.9713 109.546 49.1429 109.548 49.3147C109.55 49.471 109.489 49.628 109.366 49.7857C109.243 49.9434 109.056 50.0237 108.806 50.0267C108.556 50.0296 108.306 49.9779 108.054 49.8715C107.803 49.7495 107.613 49.5798 107.486 49.3626ZM115.349 61.2235L115.351 57.4732C115.344 56.8795 115.284 56.3724 115.169 55.9518L111.537 55.9948L111.471 54.3783L114.986 54.3367L114.915 48.2903C114.96 48.1491 115.052 48.0074 115.191 47.8651C115.407 47.6438 115.585 47.5323 115.726 47.5306C115.882 47.5288 116.015 47.5428 116.125 47.5728C116.235 47.6027 116.353 47.7107 116.48 47.8967C116.743 48.9249 116.886 50.478 116.911 52.556C116.917 53.0716 116.946 53.5791 116.999 54.0785C117.498 54.0101 117.998 53.9729 118.498 53.967C118.498 53.967 118.904 53.9622 119.716 53.9526C120.013 53.9491 120.286 53.9302 120.536 53.896L120.486 55.5843L117.063 55.531L117.276 63.615C116.996 63.7433 116.755 63.8086 116.551 63.811C115.77 63.8203 115.369 62.9578 115.349 61.2235ZM122.333 54.2967C122.292 53.4534 122.252 52.7038 122.213 52.0479C122.174 51.3765 122.145 50.8846 122.125 50.5723C122.121 50.2442 121.987 49.4567 121.722 48.2097C121.861 48.0206 121.991 47.8393 122.114 47.666C122.253 47.4925 122.447 47.4042 122.697 47.4013C123.244 47.3948 123.693 49.6943 124.044 54.2999C124.232 56.9697 124.342 59.6405 124.374 62.3122C124.382 63.0309 123.886 63.3961 122.886 63.408L122.699 63.3867C122.689 62.5743 122.653 61.5356 122.592 60.2706C122.53 59.0056 122.478 57.9046 122.435 56.9675C122.409 56.0303 122.375 55.14 122.333 54.2967ZM128.251 52.3047C128.489 55.2239 128.701 58.6045 128.887 62.4463C128.799 62.9318 128.427 63.1784 127.77 63.1861C127.599 63.1882 127.419 63.159 127.23 63.0988C127.058 63.0227 126.947 62.9224 126.899 62.798L126.775 52.3221L128.251 52.3047ZM126.034 49.1432C126.027 48.5963 126.345 48.3191 126.985 48.3116C127.407 48.3066 127.752 48.3962 128.02 48.5806C128.069 48.7519 128.094 48.9235 128.096 49.0953C128.098 49.2516 128.037 49.4086 127.914 49.5663C127.791 49.724 127.604 49.8043 127.354 49.8073C127.104 49.8103 126.854 49.7585 126.602 49.6521C126.351 49.5301 126.162 49.3604 126.034 49.1432ZM138.328 57.1546C140.047 57.1343 140.911 57.5616 140.922 58.4365C140.93 59.0927 140.462 59.8639 139.519 60.7501C138.113 62.0637 136.211 63.1253 133.814 63.935C133.705 63.9363 133.579 63.8284 133.436 63.6113C133.308 63.3941 133.204 63.2312 133.125 63.1228C133.061 62.9985 133.013 62.921 132.982 62.8901C134.771 62.2751 136.239 61.539 137.386 60.6816C138.16 60.1099 138.545 59.6444 138.541 59.285C138.537 58.9257 138.074 58.7515 137.152 58.7624C136.23 58.7733 134.881 59.008 133.105 59.4665C132.292 59.4449 131.586 59.1642 130.986 58.6243C130.464 58.1461 130.201 57.6648 130.195 57.1805C130.189 56.6805 130.325 56.2257 130.601 55.8162C130.877 55.391 131.248 54.996 131.712 54.6311C132.177 54.2662 132.719 53.9316 133.341 53.6274C134.863 52.8749 136.445 52.489 138.085 52.4696C138.57 52.4639 139.039 52.5052 139.493 52.5936C139.868 52.5892 140.089 52.7506 140.155 53.078C140.222 53.4054 140.259 53.944 140.268 54.694C139.341 54.283 138.3 54.0844 137.144 54.0981C135.706 54.1151 134.522 54.4182 133.592 55.0073C132.63 55.5812 132.138 56.3215 132.118 57.228C132.123 57.6655 132.446 57.8805 133.086 57.8729L134.795 57.6652C136.26 57.3353 137.438 57.1651 138.328 57.1546ZM146.423 60.856L146.425 57.1057C146.418 56.512 146.358 56.0048 146.243 55.5843L142.611 55.6273L142.545 54.0107L146.06 53.9692L145.989 47.9227C146.034 47.7815 146.126 47.6398 146.265 47.4975C146.481 47.2762 146.659 47.1647 146.8 47.1631C146.956 47.1612 147.089 47.1753 147.199 47.2052C147.309 47.2352 147.427 47.3432 147.554 47.5292C147.817 48.5574 147.96 50.1105 147.985 52.1885C147.991 52.7041 148.02 53.2116 148.073 53.711C148.572 53.6426 149.072 53.6054 149.572 53.5995C149.572 53.5995 149.978 53.5947 150.79 53.5851C151.087 53.5816 151.36 53.5627 151.61 53.5285L151.56 55.2167L148.137 55.1634L148.35 63.2474C148.07 63.3757 147.829 63.4411 147.625 63.4435C146.844 63.4527 146.443 62.5902 146.423 60.856Z" fill="#AC47FF"/>
</svg>
